<svg xmlns="http://www.w3.org/2000/svg" viewBox="0 0 1289.8 1444.4">
<defs>
<linearGradient id="linear-gradient" x1="644.82" y1="724.06" x2="682.43" y2="1358.73" gradientUnits="userSpaceOnUse">
<stop offset=".13"/>
<stop offset=".26" stop-color="#010505"/>
<stop offset=".42" stop-color="#041515"/>
<stop offset=".59" stop-color="#082e2e"/>
<stop offset=".77" stop-color="#0e5151"/>
<stop offset=".84" stop-color="#116060"/>
<stop offset="1" stop-color="#e67fb4"/>
</linearGradient>
<linearGradient id="GradientFill_17" data-name="GradientFill 17" x1="1112.18" y1="1031.39" x2="1045.19" y2="1005.54" gradientUnits="userSpaceOnUse">
<stop offset="0"/>
<stop offset="1" stop-color="#fff"/>
</linearGradient>
<linearGradient id="GradientFill_16" data-name="GradientFill 16" x1="1213.55" y1="556.53" x2="1076.62" y2="687.14" gradientUnits="userSpaceOnUse">
<stop offset="0"/>
<stop offset=".53" stop-color="#115046"/>
<stop offset="1" stop-color="#fff"/>
</linearGradient>
<linearGradient id="linear-gradient-2" x1="1042.48" y1="369.13" x2="747.66" y2="786.32" gradientUnits="userSpaceOnUse">
<stop offset="0"/>
<stop offset=".52" stop-color="#006887"/>
<stop offset=".69" stop-color="#2cc0d9"/>
<stop offset="1" stop-color="#e67fb4"/>
</linearGradient>
<style> .cls-1{fill:url(#linear-gradient)}.cls-2,.cls-6{fill:#fff}.cls-10,.cls-11,.cls-12,.cls-13,.cls-14,.cls-16,.cls-17,.cls-18,.cls-19,.cls-2,.cls-3,.cls-4,.cls-7,.cls-8,.cls-9{fill-rule:evenodd}.cls-3{fill:url(#GradientFill_17)}.cls-15,.cls-4{opacity:.45}.cls-4{fill:url(#GradientFill_16)}.cls-5{opacity:.18}.cls-7{fill:#255063}.cls-8{fill:#2c5566}.cls-9{fill:#00232e}.cls-10{fill:#0c3641}.cls-11{fill:#18414f}.cls-13{fill:#002627}.cls-14{fill:#a5aaaa}.cls-16{fill:#d1d4d9}.cls-17{fill:#969aa0}.cls-18{fill:#f4f3f3}.cls-19{opacity:.3;fill:url(#linear-gradient-2)} </style>
</defs>
<g id="Layer_3" data-name="Layer 3">
<path class="cls-1" d="M0.7 2.4H1287.2V1414.97H0.7z"/>
<path class="cls-2" d="M643.5 983.6L632.4 987.4 635.9 979.4 643.5 983.6zM560.2 708.4L549.1 712.2 552.7 704.2 560.2 708.4zM719.8 754.7L708.7 758.4 712.2 750.5 719.8 754.7zM578.1 347.4L567.6 351 571 343.5 578.1 347.4zM929.6 291.9L919.2 295.4 922.5 288 929.6 291.9zM833.9 510.9L825.1 503.1 833.7 502.2 833.9 510.9zM820 1105.3L815.9 1101.6 819.9 1101.2 820 1105.3zM741.2 354.1L736.4 353.2 739.3 351 741.2 354.1zM644.8 525.2L640 524.3 642.9 522.1 644.8 525.2zM744.3 441.2L739.5 440.3 742.4 438.1 744.3 441.2zM969.9 424.1L965.1 423.2 968 421 969.9 424.1zM562.3 450.5L557.5 449.6 560.4 447.5 562.3 450.5zM735 651.2L730.2 650.3 733.1 648.1 735 651.2zM553 623.2L548.2 622.3 551.1 620.1 553 623.2zM682.1 892.3L677.3 891.4 680.2 889.2 682.1 892.3zM778.5 1007.4L773.7 1006.5 776.6 1004.4 778.5 1007.4zM553 1152.1L548.2 1151.2 551.1 1149 553 1152.1zM951.7 991.6L945.5 993.7 947.5 989.3 951.7 991.6zM990.2 929.5L985.5 928.6 988.4 926.5 990.2 929.5z"/>
<path class="cls-3" d="M1105.2,1020.4l51.2,36.3c-2.7-.1-109.3-55.6-123.4-60.9C1048,1000,1097.3,1020.7,1105.2,1020.4Z" transform="translate(3.8 3)"/>
<path class="cls-2" d="M1070.1 202.8L1059.6 202.9 1064.8 197.1 1070.1 202.8zM794.8 217L789.5 212.4 794.7 211.8 794.8 217zM1072.8 362.7L1067 364.6 1068.9 360.5 1072.8 362.7zM1216.1 764.9L1205 768.7 1208.5 760.7 1216.1 764.9zM1068.8 945.1L1066.1 947.5 1068.8 947.8 1068.8 945.1zM120.5 63L114.2 57.5 120.4 56.9 120.5 63zM119.2 162.3L114.4 161.4 117.4 159.2 119.2 162.3zM631 210.5L626.2 209.6 629.1 207.4 631 210.5zM360.3 156.1L355.6 155.1 358.5 153 360.3 156.1zM245.2 82.9L240.4 82 243.4 79.9 245.2 82.9zM855 79.8L850.2 78.9 853.1 76.8 855 79.8zM876.8 264.9L872 264 874.9 261.9 876.8 264.9zM662.1 306.9L657.3 306 660.2 303.9 662.1 306.9zM897 350.5L892.2 349.6 895.1 347.4 897 350.5zM1009 457.8L1004.2 456.9 1007.1 454.7 1009 457.8zM1215.9 579.2L1211.1 578.2 1214 576.1 1215.9 579.2zM1141.2 655.4L1136.4 654.5 1139.3 652.3 1141.2 655.4zM1183.2 341.2L1178.4 340.2 1181.3 338.1 1183.2 341.2zM1152.1 473.4L1147.3 472.5 1150.2 470.3 1152.1 473.4zM1089.9 543.4L1085.1 542.5 1088 540.3 1089.9 543.4zM1024.6 286.7L1019.8 285.8 1022.7 283.6 1024.6 286.7zM1187.9 165.4L1183.1 164.5 1186 162.3 1187.9 165.4zM1183.2 64.3L1178.4 63.4 1181.3 61.2 1183.2 64.3zM962.3 103.2L957.5 102.2 960.5 100.1 962.3 103.2zM935.9 187.2L931.1 186.2 934 184.1 935.9 187.2zM1086.8 48.7L1082 47.8 1084.9 45.6 1086.8 48.7zM607.7 134.3L602.9 133.4 605.8 131.2 607.7 134.3zM760.1 353.6L755.3 352.7 758.2 350.5 760.1 353.6z"/>
<path class="cls-4" d="M1210.8,421.1a139.9,139.9,0,0,1,72.6,20.2V681.5a140.3,140.3,0,1,1-72.6-260.4Z" transform="translate(3.8 3)"/>
<path class="cls-2" d="M551 670.7L539.9 674.5 543.4 666.5 551 670.7z"/>
<g class="cls-5">
<path class="cls-2" d="M127.1 949.4L124.2 950.4 125.1 948.3 127.1 949.4zM78.3 614.6L67.2 618.3 70.7 610.4 78.3 614.6zM237.9 660.8L226.8 664.6 230.3 656.6 237.9 660.8zM96.2 253.6L85.7 257.1 89 249.6 96.2 253.6zM447.6 198.1L437.2 201.6 440.5 194.1 447.6 198.1zM351.9 417.1L343.1 409.3 351.8 408.4 351.9 417.1zM280.2 1016.2L273.2 1010.1 280.1 1009.4 280.2 1016.2zM259.2 260.3L254.4 259.4 257.4 257.2 259.2 260.3zM162.8 431.4L158 430.5 160.9 428.3 162.8 431.4zM262.4 347.4L257.6 346.5 260.5 344.3 262.4 347.4zM487.9 330.3L483.1 329.4 486 327.2 487.9 330.3zM80.4 356.7L75.6 355.8 78.5 353.6 80.4 356.7zM253 557.4L248.2 556.5 251.1 554.3 253 557.4zM71 529.4L66.2 528.5 69.1 526.3 71 529.4zM200.1 798.5L195.3 797.6 198.2 795.4 200.1 798.5zM296.6 913.6L291.8 912.7 294.7 910.5 296.6 913.6zM71 1058.3L66.2 1057.3 69.1 1055.2 71 1058.3zM468.2 897.2L463.6 898.8 465.1 895.5 468.2 897.2zM407.9 766.2L396.8 770 400.3 762 407.9 766.2zM513.3 808.4L508.5 807.5 511.4 805.3 513.3 808.4z"/>
</g>
<path class="cls-2" d="M609.7 923.5L604.9 922.6 607.8 920.4 609.7 923.5z"/>
<path class="cls-6" d="M1093.2,177.1h4.6l.7-4h-4.6l-.7,4Z" transform="translate(3.8 3)"/>
<path class="cls-7" d="M-3.1,1035.2c133.2,14.9,310.4,47.3,404,74,202.3,57.8,387,84.2,595.3,102.5,16.5,1.4,32.2,8.3,48.2,12.1-1.7,10.2-7.1,12-14.5,20.1C739.2,1442.2,574.1,1382.5,251,1389.6c-136,2.9-143.7,1.2-254.1-16.5Z" transform="translate(3.8 3)"/>
<g>
<path class="cls-8" d="M432.3,1149.2l-3.4-1.4a3.4,3.4,0,0,0,.9,1.2,2.1,2.1,0,0,0,2.5.2Zm-159.7-49.5-3.7-.8v.2a2.2,2.2,0,0,0,2.9,1.1,1.8,1.8,0,0,0,.7-.5Zm-60.5-12.4-4.4-.8a2.1,2.1,0,0,0,0,1.1,2.2,2.2,0,0,0,4.4-.3Zm-21.8-3.8-3.1-.5c-.2.1-.3.3-.5.5a2.4,2.4,0,0,0,.6,3.2,2.3,2.3,0,0,0,3.1-.6,2.1,2.1,0,0,0-.1-2.6Zm-22-3.4-4.3-.7a2,2,0,0,0,.2,1,2.5,2.5,0,0,0,3.2.8,2.4,2.4,0,0,0,.9-1.1Zm-46.4-6.2-3.4-.4a3.9,3.9,0,0,0-.6,1.1,2.4,2.4,0,0,0,1.7,2.7,2.2,2.2,0,0,0,2.7-1.7,2.1,2.1,0,0,0-.4-1.7Zm-37.5-3.8h-.5a2.4,2.4,0,0,0-1.8.9,2.5,2.5,0,0,0,.6,3.2,2.2,2.2,0,0,0,2.6-3.6,1.8,1.8,0,0,0-.9-.4ZM326,1116.4l3.9,1.3-.4.3a2.4,2.4,0,0,1-3.2-.4,2.7,2.7,0,0,1-.3-1.2Zm55.5,17.1,3.4,1.1h-.3a2.1,2.1,0,0,1-3-1v-.2Zm84.7,36.4-4-.7v-.4a2.3,2.3,0,1,1,4.5-.4,2.5,2.5,0,0,1-.5,1.5Zm-182-41.9-1.4-.3a2.2,2.2,0,0,1,1.4.3Zm-14.3-3.4-4-.9a1,1,0,0,1,.4-.5,2.4,2.4,0,0,1,3.3.6,1.1,1.1,0,0,1,.3.8Zm-11.6-2.7-4.2-1a3,3,0,0,1,.8-.8,2.4,2.4,0,0,1,3.1.6,2.7,2.7,0,0,1,.3,1.2Zm-10.8-2.6-2.7-.6a2.2,2.2,0,0,1,1.4-.1,2.4,2.4,0,0,1,1.3.7Zm-34.5-8.2-1.5-.3h0a1.9,1.9,0,0,1,1.5.3Zm-17.4-4.1-3.6-.9a1.6,1.6,0,0,1-.1-1.2,2.4,2.4,0,0,1,2.7-1.8,2.2,2.2,0,0,1,1.7,2.8,4.1,4.1,0,0,1-.7,1.1Zm-39.3-9.5-3.9-.9a2.9,2.9,0,0,1,.9-1.7c-.9.3-1.4-.5-1.9-1.1s-.9,1.2-1.7,1.2a2.1,2.1,0,0,1-1.8-2.6c0-.3.4-.2.5-.4a2.3,2.3,0,0,1-2.8.5,2.2,2.2,0,1,1,2.4-3.7,2.2,2.2,0,0,1,.6,3.1c.6-.7.9-1.5,1.8-1.2s.6.8.9,1.4.3-1.3.9-1.4a2.3,2.3,0,0,1,2.9,1.5c.1.9-.5,1.5-1.4,2.1a2.2,2.2,0,0,1,2.8,1,2.4,2.4,0,0,1-.2,2.2Zm-15.3-3.6-3.9-1a1.9,1.9,0,0,1,.9-1.4l.5-.3a2.3,2.3,0,0,1-1.1-2.5,2,2,0,0,1,2.6-1.6,2.2,2.2,0,0,1,1.8,2.6,2.8,2.8,0,0,1-1.6,1.6l.9.8a1.7,1.7,0,0,1-.1,1.8Zm-33.6-8.3-5.4-1.2a2.2,2.2,0,0,1,1-1.2,2.2,2.2,0,0,1,2.7.5h.3c.1.1-.1.2,0,.3a2.9,2.9,0,0,1,1.4,1.5Zm-6.3-1.4-3.7-.7.6-.4a2,2,0,0,1,2.9.9c.1.1.1.2.2.2Zm301.3,59.1a2.2,2.2,0,0,0,.6,3.1,2.2,2.2,0,0,0,3.1-.4,2.3,2.3,0,0,0-.5-3.1,2.4,2.4,0,0,0-3.2.4Zm-100.9-31.1a2.1,2.1,0,0,0-.3-3.2,2.2,2.2,0,0,0-3.2.4,2.1,2.1,0,0,0,.6,3,2,2,0,0,0,2.9-.2Zm-23.9,10.6a2.4,2.4,0,0,0,2.1,2.3,2.4,2.4,0,0,0,2.4-2.3,2.1,2.1,0,0,0-2.2-2.1,2.1,2.1,0,0,0-2.3,2.1Zm121.1,28.9a2.1,2.1,0,0,0,2.5-1.7,2.1,2.1,0,0,0-1.6-2.7,2.3,2.3,0,0,0-2.7,1.8,2.2,2.2,0,0,0,1.8,2.6Zm-93.8-35.8a2,2,0,0,0,2.5-1.7,2.3,2.3,0,0,0-1.8-2.6,2.2,2.2,0,1,0-.7,4.3Zm-17.1,5.6a2.6,2.6,0,0,0,.8-3.1,2.4,2.4,0,0,0-3.2-.7,2.3,2.3,0,0,0-.8,2.9,2.4,2.4,0,0,0,3.2.9Zm-49.9-11.9c.4.5,1,.3,1.4.5a2,2,0,0,0,1.5,2.3,2.1,2.1,0,0,0,2.6-1.7,2.3,2.3,0,0,0-1.8-2.7c-.1-.1.3-.4.2-.5a2.1,2.1,0,0,0-3-.9,2.1,2.1,0,0,0-.9,3Zm93.4,15.9a2.2,2.2,0,0,0-.8,3,2.4,2.4,0,0,0,3,1,2.3,2.3,0,0,0,.8-3.1,2.2,2.2,0,0,0-3-.9Zm49.2,15.9a2.3,2.3,0,0,0,3,1,2.1,2.1,0,0,0,.8-3.1,2,2,0,0,0-2.9-.9c-1.2.8-1.6,2-.9,3Zm-137.9-43.9a2.4,2.4,0,0,0-3.2-.7,2.3,2.3,0,0,0-.9,2.9,2.4,2.4,0,0,0,3.2.8,2.4,2.4,0,0,0,.9-3Zm24.4,5.2a2.4,2.4,0,0,0-1.4-2.9,2.3,2.3,0,0,0-2.9,1.3,2.4,2.4,0,0,0,1.3,3,2.5,2.5,0,0,0,3-1.4Zm90.6,39.6a2.3,2.3,0,0,0,3-1.3,2.2,2.2,0,0,0-1.4-2.9,2.1,2.1,0,0,0-2.8,1.2,2.2,2.2,0,0,0,1.2,3ZM251,1097.9a2.4,2.4,0,0,0-1.4-2.8,2.2,2.2,0,0,0-1.6,4.1,2.3,2.3,0,0,0,3-1.3Zm11,20.2a2.5,2.5,0,0,0,2.8-1.7c.1-.6-.6-.8-.9-1.3a2,2,0,0,0,2.3-1.1,2.1,2.1,0,0,0-1.1-2.9,2.6,2.6,0,0,0-3.1,1.3c-.1.7.4.9.8,1.5a2.1,2.1,0,0,0-2.4,1.5,2.2,2.2,0,0,0,1.6,2.7Zm16.4-.8a2,2,0,0,0,2.5-1.6,2.2,2.2,0,0,0-1.5-2.7,2.3,2.3,0,0,0-2.8,1.7,2.1,2.1,0,0,0,1.8,2.6Zm-163.2-34.4a2.2,2.2,0,0,0,2.6-1.6,2.7,2.7,0,0,0-1.6-2.8,2.5,2.5,0,0,0-2.8,1.8,2.2,2.2,0,0,0,1.8,2.6Zm298.4,62.8a2.3,2.3,0,0,0-3.1-1.1,2.2,2.2,0,0,0-.9,3,1.9,1.9,0,0,0,2.8,1,2.1,2.1,0,0,0,1.2-2.9Zm12.8,5.9a2.1,2.1,0,0,1,1.1-3,2.2,2.2,0,0,1,2.8,1.2,2.1,2.1,0,0,1-1.1,2.9,2.1,2.1,0,0,1-2.8-1.1ZM129,1078.3a2.5,2.5,0,0,0-1.4,2.3c-.2-.3-.4-.6-.6-.6a2.3,2.3,0,0,0-1.9,2.6,2.2,2.2,0,0,0,2.5,1.8,2,2,0,0,0,1.6-2.2c.3,0,.4.6.9.5a2.5,2.5,0,0,0,1.8-2.9,2.6,2.6,0,0,0-2.9-1.5Zm245.4,62a2.3,2.3,0,0,0,1.7-2.6,2.4,2.4,0,0,0-2.7-1.7,2.1,2.1,0,0,0-1.6,2.7,2,2,0,0,0,2.6,1.6Zm-116.7-32.2a2.2,2.2,0,0,0,2.1-2.5,2.5,2.5,0,0,0-2.5-2,2.3,2.3,0,0,0-2,2.5,2.2,2.2,0,0,0,2.4,2Zm120.2,38a2.3,2.3,0,0,1-2.4-2,2.3,2.3,0,0,1,2.1-2.4,2.3,2.3,0,0,1,2.4,2,2.2,2.2,0,0,1-2.1,2.4ZM76,1076.2a2.1,2.1,0,0,0,3.1.7,2.1,2.1,0,0,0,.5-3.1,2,2,0,0,0-3-.6,2.1,2.1,0,0,0-.6,3Zm231.5,50a2.4,2.4,0,0,0,3.3.6,2.2,2.2,0,0,0,.4-3.1,2.1,2.1,0,0,0-2.9-.6,2.3,2.3,0,0,0-.8,3.1Zm-116.7-26.9a2.1,2.1,0,0,0,.7-1.5,3.5,3.5,0,0,0-.2,1.7l-.5-.2Zm1.5,1.3a2.2,2.2,0,0,0,2.8-.6,2.4,2.4,0,0,0-.6-3.2,2.2,2.2,0,0,0-3.1.5h.1a2,2,0,0,0-2.2-1.9,2.2,2.2,0,0,0-2.2,2.1,2.5,2.5,0,0,0,1.6,2.2,2.2,2.2,0,0,0-.8,1.3,2.4,2.4,0,0,0,1.8,2.6,2.5,2.5,0,0,0,2.7-1.9,2.5,2.5,0,0,0-.1-1.2Zm26,2a2.2,2.2,0,1,0-3.7,2.2,2.2,2.2,0,1,0,3.7-2.2Zm-49-6.4a2.5,2.5,0,0,0,1.1-3,2.3,2.3,0,0,0-3.1-1,2.1,2.1,0,0,0-1,2.8,2.3,2.3,0,0,0,3,1.2Zm-21.2-12.7a2.2,2.2,0,0,0,3.1-.5,2.2,2.2,0,0,0-.6-3.1,2.1,2.1,0,0,0-3.1.5A2.4,2.4,0,0,0,148.1,1083.5Z" transform="translate(3.8 3)"/>
<path class="cls-8" d="M246.1,1093.9l-4.4-.9h0l-3.6-.7v1.3a2.8,2.8,0,0,0-1.1-1.5l-.8-.2a2.3,2.3,0,0,0-1.8,2.4,2,2,0,0,0,2.3,2.1c.7-.1.9-.8,1.3-1.5s1.4.6,2.2.5-.2.2-.1.3a2.4,2.4,0,0,0,2.9,1.2c.5-.2.3-.8.6-1.2a2,2,0,0,0,2.3-1.1,1.9,1.9,0,0,0,.2-.7Zm-41.3-7.9-4.4-.8a2.5,2.5,0,0,0,1.6,2.7,2.4,2.4,0,0,0,2.8-1.8Zm-28.8-4.8-4.3-.7a2.1,2.1,0,0,0,1.8,2.4,2,2,0,0,0,2.5-1.7Zm-7.6-1.1-4.4-.7a1.7,1.7,0,0,0,.1.7,2.5,2.5,0,0,0,2.8,1.7,2.6,2.6,0,0,0,1.5-1.7Zm-9.8-1.5-4-.5a2.1,2.1,0,0,0,2.2,1.7,2.8,2.8,0,0,0,1.8-1.2ZM147,1077l-4.4-.6a2.8,2.8,0,0,0,.4,1.5,2.2,2.2,0,0,0,3.1.6,2.4,2.4,0,0,0,.9-1.5Zm-36.5-4.4-4.5-.4a2.1,2.1,0,0,0,.9,1.9,2.2,2.2,0,0,0,3.1-.5,1.9,1.9,0,0,0,.5-1Zm-42.1-3.8H67.3a2.3,2.3,0,0,0,1.1,4.4,2.3,2.3,0,0,0,1.7-2.7,2.3,2.3,0,0,0-1.7-1.7Zm-12.4-.9-2.9-.2a2,2,0,0,0-.9,2.1,2.4,2.4,0,0,0,2.6,1.9,2.3,2.3,0,0,0,1.9-2.6,2.4,2.4,0,0,0-.7-1.2Zm-12.3-.8-5.8-.3a2.4,2.4,0,0,0,2.3.1c.5.8,1.2,1.5,2.1,1.3a2,2,0,0,0,1.4-1.1Zm-23-1.1-4.3-.2a2.8,2.8,0,0,0,.1,1.8,2.4,2.4,0,0,0,3.2.7,2.2,2.2,0,0,0,1-2.3Zm179.8,42.1-3.8-.9.6-.4s.1.3.3.1-1.7-.6-1.8-1.4a2.2,2.2,0,0,1,2.1-2.4,2.4,2.4,0,0,1,2.4,2,2.2,2.2,0,0,1-1.7,2.1c.6.1,1.5-.1,1.6.5l.3.4Zm-60.6-14.5-4-1a2.5,2.5,0,0,1,1.4-.8,2.4,2.4,0,0,1,2.6,1.8Zm-33-8.1-4-.9a2.1,2.1,0,0,1,1.4-1.2,2.5,2.5,0,0,1,2.8,1.8l-.2.3Zm-7.9-1.7-5.1-1a2.1,2.1,0,0,1,2.1-2.3c.2-.1.2.4.6.5s-.2-.3-.1-.5a2.1,2.1,0,0,1,3.1-.4,2.3,2.3,0,0,1,.6,3.1,1.4,1.4,0,0,1-1.2.6Zm133.1,13.7a2.2,2.2,0,0,0-2.3-2.2,2.2,2.2,0,0,0-2.2,2.2,2.3,2.3,0,0,0,2.1,2.3,2.5,2.5,0,0,0,2.4-2.3Zm-92.9-5.6a2.1,2.1,0,0,0,2.5-1.7,2.4,2.4,0,0,0-1.8-2.7,2.2,2.2,0,0,0-2.5,1.8,2.3,2.3,0,0,0,1.8,2.6Zm-9-5.8a2.3,2.3,0,0,0,3,.9,2.2,2.2,0,0,0,.9-3,2.2,2.2,0,1,0-3.9,2.1Zm-30.6-9.5a2.1,2.1,0,0,0,2.9-1.3,1.9,1.9,0,0,0-1.4-2.7,2.1,2.1,0,0,0-2.9,1.1,2.3,2.3,0,0,0,1.4,2.9Zm107.9,18.6a2.3,2.3,0,0,0,2-2.5,2.3,2.3,0,0,0-4.5.7A2.3,2.3,0,0,0,207.5,1095.2Z" transform="translate(3.8 3)"/>
</g>
<path class="cls-9" d="M1283.4,954.3c-67.1,12.7-129.1,28.1-162.7,40.5-77.1,28.4-147.4,62.3-232.8,78.6-101.4-6-189.7-.8-201.6.2-24,1.8-251.5,47.8-338.8,75.1-93.6,29.2-273,9.8-350.6,2.4V1419H1283.4Z" transform="translate(3.8 3)"/>
<path class="cls-10" d="M885.2,1073.2c-100.2-5.7-187.1-.6-198.9.4-24,1.8-251.5,47.8-338.8,75.1-93.6,29.2-273,9.8-350.6,2.4v24.3c90.3,46.9,185.8,76.9,301.3,76.9,130.7,0,292.3-36.7,410.4-92.9C744.6,1142.2,815,1106.6,885.2,1073.2Z" transform="translate(3.8 3)"/>
<path class="cls-11" d="M1283.4,1270.6v6.5a3.6,3.6,0,0,1-4.4-2,3.4,3.4,0,0,1,2-4.4,2.9,2.9,0,0,1,2.4-.1Zm-36.7-5.4-5.2,1.8.4.2a3.5,3.5,0,0,0,4.7-1.7v-.3Zm-71.3,24.5-6.1,2a3.2,3.2,0,0,0,4.7.2,3.7,3.7,0,0,0,1.4-2.2Zm-54.8,18-5.4,1.7a3.5,3.5,0,0,0,2,.7,3.7,3.7,0,0,0,3.4-2.4Zm-10.3,3.3-2.2.7c.1,0,.2,0,.2-.1a3.2,3.2,0,0,0,2-.6Zm-22.5,7-6,1.8,1,.7a3.1,3.1,0,0,0,5-2.5Zm-46.6,13.6-4.4,1.2a3.7,3.7,0,0,0-.6,2.1,3.4,3.4,0,0,0,3.5,3.2,3.3,3.3,0,0,0,3.1-3.8,3,3,0,0,0-1.6-2.7Zm78.6-5.3,6-1.3a1.5,1.5,0,0,0,.1-.7,3.5,3.5,0,0,0-3.2-3.6,3.6,3.6,0,0,0-3.7,3.4,3.5,3.5,0,0,0,.8,2.2Zm95.6-44.8a3.6,3.6,0,0,1-.6,4.8c-1.3,1.3-3.4,1-4.8-.5a3.4,3.4,0,0,1,.6-4.8,3.6,3.6,0,0,1,4.8.5Zm6.2,12.6a3.3,3.3,0,0,1-3.9-2.5,3.1,3.1,0,0,1,2.3-4.2,3.4,3.4,0,0,1,4.2,2.6,3.3,3.3,0,0,1-2.6,4.1Zm27.1-16.9a3.6,3.6,0,0,1-4.6,1.7,3.3,3.3,0,0,1-1.4-4.7,3.2,3.2,0,0,1,4.5-1.5c1.8,1,2.5,2.9,1.5,4.5Zm-50.2,8.7a3.5,3.5,0,0,1,4.7-1.8,3.3,3.3,0,0,1,1.6,4.4,3.1,3.1,0,0,1-4.3,1.7,3.3,3.3,0,0,1-2-4.3Zm-19.1,9.8a3.2,3.2,0,0,1-4.2,1.9,3.3,3.3,0,0,1-2-4.4,3.4,3.4,0,0,1,4.3-1.9,3.3,3.3,0,0,1,1.9,4.4Zm78.5-20.7a3.3,3.3,0,1,1,1.4-6.5,3.3,3.3,0,0,1-1.4,6.5Zm-4.9,9.2a3.7,3.7,0,0,0,3.5-3.3,3.3,3.3,0,0,0-3.3-3.4,3.3,3.3,0,0,0-3.6,3.2A3.5,3.5,0,0,0,1253,1284.2Z" transform="translate(3.8 3)"/>
<g>
<path class="cls-11" d="M1110.3,1179.7l.8-.2a2.8,2.8,0,0,1,2.9,1.2,3,3,0,0,1-.6,4.2,2.7,2.7,0,0,1-4-.7,2.8,2.8,0,0,1,.4-4.2l.5-.3Zm31.1-9.1,4.5-1.2c-.1.9.1,1.6-.7,2.1a3.1,3.1,0,0,1-3.8-.9Zm4.6-1.2c0,.2-.1.4.1.5s2-.1,2.9-.4-.4.7-.2.8a3,3,0,0,0,4.1.7,3.2,3.2,0,0,0,1.2-3.8l-8.1,2.2Zm32.3-8.1,4.1-1h.1a3,3,0,0,1,.9,4,3.2,3.2,0,0,1-4.3,1.1,3.1,3.1,0,0,1-.8-4.2Zm43.5,25.5-6.1,1.3-.7-.5-.3.7-4.1.8a2.1,2.1,0,0,1-.7-1.5c-.2-.4.4-.4.4-.7a3.1,3.1,0,0,1-3.3,2,3,3,0,0,1-2.3-3.7,3,3,0,0,1,3.6-2.1,3,3,0,0,1,2.2,3.5c.4-1.1.4-2.2,1.6-2.3s1.2.8,1.9,1.2-.3-1.6.5-2.1a3,3,0,0,1,4.2.4c.7,1.1.2,2.1-.7,3.3a3,3,0,0,1,3.8-.3Zm-20.1,4.2-4.9,1c0-.2.2-.4.3-.6l.5-.6a2.9,2.9,0,0,1-2.6-2.7,2.7,2.7,0,0,1,2.4-3.2,2.9,2.9,0,0,1,3.5,2.3,3.6,3.6,0,0,1-1.1,2.9,3,3,0,0,1,1.5.5l.4.4Zm-45.6,8.1c-2.4.3-4.9.7-7.3,1.2a2.7,2.7,0,0,1,.6-2.1c.6-1,2.4-1.3,3.6-.7h.5c.1.1,0,.3.1.4a3.5,3.5,0,0,1,2.5,1.2Zm-8.5,1.4-5,.9a3.5,3.5,0,0,1,.5-.8,2.9,2.9,0,0,1,4.2-.4l.3.3Zm-30.5-10a2.9,2.9,0,0,0,.9-4,3,3,0,0,0-4.1-1.3,3.1,3.1,0,0,0-1,4.2,3.1,3.1,0,0,0,4.2,1.1Zm47.4,1.4a2.9,2.9,0,0,0,2.4-3.3,3.4,3.4,0,0,0-3.3-2.7,3.1,3.1,0,0,0-2.5,3.6,2.8,2.8,0,0,0,3.4,2.4Zm2.7-9.2a2.9,2.9,0,0,0,2.5-3.5,2.9,2.9,0,0,0-3.5-2.3,2.8,2.8,0,0,0-2.4,3.2,3.2,3.2,0,0,0,3.4,2.6Zm12.2-3.3c-1,.7-.9,2.2-.6,3.5-.4-.2-.8-.5-1.1-.4a3,3,0,0,0,3,5.2c1.2-.7,1.4-2.2.9-3.6s.8.5,1.3.2a3.3,3.3,0,0,0,.8-4.5,3.3,3.3,0,0,0-4.3-.4Zm-59.8,17.4a3.4,3.4,0,0,1-2.3-3.7,3.3,3.3,0,0,1,3.8-2.1,3.1,3.1,0,0,1,2.1,3.7,3,3,0,0,1-3.6,2.1Zm-7.2,6a2.8,2.8,0,0,0,4.2-.7,3,3,0,0,0-5-3.3,2.8,2.8,0,0,0,.8,4Zm111.8-38.1a3.4,3.4,0,0,0,4.5-.6c1-1.1.6-3.1-.5-4.2a3.2,3.2,0,0,0-4.1.3,3.5,3.5,0,0,0,.1,4.5Zm14.2,17.2a3.3,3.3,0,0,0-.1-4.3,3,3,0,0,0-4.3.3,2.6,2.6,0,0,0,.1,3.9,3.1,3.1,0,0,0,4.3.1Zm-8.1-27a3.1,3.1,0,0,1,4.3-.2,3.1,3.1,0,1,1-4.3,4.6,3.5,3.5,0,0,1,0-4.4Zm-24.5,21.5a2.8,2.8,0,0,0,3.5-2.1,2.9,2.9,0,0,0-2.1-3.6,2.9,2.9,0,0,0-3.6,2.2,2.9,2.9,0,0,0,2.2,3.5Zm-11.4-12.9c.8,1.5,2.4,2.4,3.9,1.5a2.9,2.9,0,0,0,1.5-3.9c-.7-1.5-2.5-2.4-3.9-1.6s-2.4,2.7-1.5,4Zm19.5.8a2.9,2.9,0,0,0,1.5-3.9,3.2,3.2,0,0,0-3.9-1.6,2.9,2.9,0,0,0-1.4,4A2.8,2.8,0,0,0,1213.9,1164.3Z" transform="translate(3.8 3)"/>
<path class="cls-11" d="M1235.5,1149.5l5.5-1a3.5,3.5,0,0,1-1.9,2.4,2.7,2.7,0,0,1-3.6-1.4Zm-37.4,42.2-1.5.3a4,4,0,0,1,1.5-.3Zm-187.7,47.8-2.2.6a3.1,3.1,0,0,1,1.3-.6Zm-11.5,3.5-4.3,1.4a2.9,2.9,0,0,1,3.5-1.7l.8.3Zm-9.6,3.1-5.6,1.8a2.8,2.8,0,0,1,1.8-3.2,3.1,3.1,0,0,1,3.8,1.4Zm-11.7,3.8-3.1,1a3.5,3.5,0,0,1,1.9-1,2.4,2.4,0,0,1,1.2,0Zm-6.7,2.2-4.8,1.7a1.9,1.9,0,0,1,.7-1.2,3,3,0,0,1,4.1-.5Zm-18.3,6.3-5.4,1.9a3,3,0,0,1,.9-2.5,3,3,0,0,1,4.2.1l.3.5Zm-22.3,8-4.9,1.9a2.9,2.9,0,0,1,2.9-2.7,2.8,2.8,0,0,1,2,.8Zm225.2-67.2a48.5,48.5,0,0,0-5.5.9,2.8,2.8,0,0,1,1.2-2.2,3.2,3.2,0,0,1,4.3.8v.5Zm-10.7,1.8-6.9,1.3a2.9,2.9,0,0,1,1.4-4c.3-.2.6.4,1.1.3s-.4-.3-.4-.5a2.9,2.9,0,0,1,3.7-2.1,3.1,3.1,0,0,1,2.2,3.6,2.1,2.1,0,0,1-1.1,1.4Zm54-9.8a2.8,2.8,0,0,0,2.3-3.3,3,3,0,0,0-3.5-2.4,2.9,2.9,0,0,0-2.3,3.4,2.9,2.9,0,0,0,3.5,2.3Zm-14-2.7a3,3,0,0,0,4.1-.3,2.8,2.8,0,0,0-.3-4.2,2.9,2.9,0,0,0-4.3.3,3,3,0,0,0,.5,4.2ZM1034,1221.2a3.3,3.3,0,0,0,4.4-.6c.9-1.1.6-3.1-.6-4.3a3.3,3.3,0,0,0-4.1.4,3.5,3.5,0,0,0,.3,4.5Zm28.8-16.5h.2c-.4.2,0,.4-.2.6s.3-.5,0-.7Zm-4.2.3a3,3,0,0,0,.4,4.2,3.2,3.2,0,0,0,4.2-.4c1,.7,2.2,1.2,3.2.5a2.9,2.9,0,0,0,.7-4.2c-.7-1.1-1.9-.8-3.2-.4.5-.3,1.2.2,1.5-.3a3.1,3.1,0,0,0-.4-4.2,3.2,3.2,0,0,0-4.1.4,3,3,0,0,0,.3,4.1c-1.1,0-1.9-.6-2.6.3Zm83.4-13.4a2.7,2.7,0,0,0,2.9-2.9,2.6,2.6,0,0,0-3-2.8,2.9,2.9,0,0,0-3.1,2.9,3,3,0,0,0,3.2,2.8Zm-58.3,16a3.2,3.2,0,0,0,1.1-4.2,3.1,3.1,0,0,0-4.1-1c-1.5,1.1-2,2.8-1.1,4.1a3.1,3.1,0,0,0,4.1,1.1Zm153.4-44.3a2.8,2.8,0,0,0,2.4-3.4,3.3,3.3,0,0,0-3.3-2.6,3.4,3.4,0,0,0-2.6,3.6,3,3,0,0,0,3.5,2.4Zm-233.8,74c.4-.3-.1-1-.1-1.7,1.7-.4,2.6-1,2.8-2.8a2.9,2.9,0,0,0-3.1-2.7,3,3,0,0,0-2.9,3h.1c-.4,0-.7-.2-1,0a2.8,2.8,0,0,0-.1,4.1,2.9,2.9,0,0,0,4.3,0Zm225.5-76.5a3,3,0,0,0-4.1-.6,3.1,3.1,0,0,0-.7,4.1,3,3,0,1,0,4.8-3.5Zm-127.3,41.9a3,3,0,0,0,.7-4.1,3,3,0,1,0-4.9,3.3,3.1,3.1,0,0,0,4.2.8Zm48.4-17.7a3.1,3.1,0,0,0,3.6-2.2,3,3,0,1,0-5.7-1.7,2.9,2.9,0,0,0,2.1,3.9Zm16.6-18.3a3,3,0,0,0,2.7,5.3,2.9,2.9,0,0,0,1.4-4,3,3,0,0,0-4.1-1.3Zm48.3.9a3,3,0,0,0,1.3-4.1,2.9,2.9,0,0,0-3.9-1.5,2.9,2.9,0,0,0-1.3,4,3,3,0,0,0,3.9,1.6Zm-133.2,29.8a3,3,0,1,0,3.3-4.9,3,3,0,0,0-3.3,4.9Zm119.2-26.2a2.9,2.9,0,0,0-.8-4.1,2.8,2.8,0,0,0-4.2.7,2.9,2.9,0,0,0,.9,4.2A2.9,2.9,0,0,0,1200.8,1171.2Z" transform="translate(3.8 3)"/>
</g>
<g>
<path class="cls-11" d="M651.8,1090.8H651a2.8,2.8,0,0,0-2.3,2.1,2.9,2.9,0,0,0,2.1,3.7,2.8,2.8,0,0,0,3.5-2.1,2.8,2.8,0,0,0-2-3.7Zm-32.3,3-4.6.5c.4.8.5,1.5,1.4,1.7a3.2,3.2,0,0,0,3.2-2.2Zm-4.7.5a.7.7,0,0,1,.1.6c-.6.8-1.9.6-2.9.6s.7.5.5.7a3,3,0,0,1-3.5,2.2,3.3,3.3,0,0,1-2.5-3.1l8.3-1Zm-33,4.4-4.2.6h-.1a3.1,3.1,0,0,0,.7,4.1,3,3,0,1,0,3.6-4.8ZM219.3,1202.3l-2.6.9a3.2,3.2,0,0,0-.3,3.8c1.3,1.4,3.1,1.7,4.2.6a2.9,2.9,0,0,0,.7-4.1,3.3,3.3,0,0,0-2-1.2Zm-8.7,3-4.2,1.4a3,3,0,0,0,5.4,2.5,2.9,2.9,0,0,0-1.2-3.9Zm-21.2,7.1-5.6,1.9a3.1,3.1,0,0,0,1.7,1.7,2.8,2.8,0,0,0,3.8-1.4,2.8,2.8,0,0,0,.1-2.2Zm33.5-.7,5.5-1.4a3,3,0,0,0-3.2-1.5,2.6,2.6,0,0,0-2.3,2.9Zm28.4-7.3,5.8-1.4a3.1,3.1,0,0,0-5.8,1v.4Zm26.2-6.6,4.4-1.1a2.9,2.9,0,0,0-2.7-.3,2.7,2.7,0,0,0-1.7,1.4Zm67.2-16.3,3.6-.8c0-.1.1-.2.1-.3a3.1,3.1,0,0,0-1-4.2,3,3,0,0,0-4,.8,2.9,2.9,0,0,0,.6,4.1l.7.4Zm31-7.2,2.5-.6a2.6,2.6,0,0,0,.9-.9,3.1,3.1,0,0,0-1.1-3.9,3.2,3.2,0,0,0-4.3.9c-.6,1.6-.2,3.5,1.1,4.2l.9.3Zm30.1-6.8,5.7-1.3v-.4a2.8,2.8,0,0,0-3.3-2c.6-.8,1.2-1.1,1.1-2a3.3,3.3,0,0,0-4.1-1.7,2.8,2.8,0,0,0-1.6,3.8,2.9,2.9,0,0,0,3.2,1.6c-.4.5-1.3.8-1.2,1.7l.2.3Zm29.4-6.4,4.3-.9a2.6,2.6,0,0,0,.2-1.5c.6-.4,1.4,0,1.8-.6a2.9,2.9,0,1,0-5.1-2.9c-.1.2.3.5.2.7a3.1,3.1,0,0,0-2.4,3.5,2.7,2.7,0,0,0,1,1.7Zm67.3-13.7,5.9-1.2a2.5,2.5,0,0,0-1-1.5,3,3,0,0,0,2.1-2.8,2.9,2.9,0,0,0-2.9-2.9,2.7,2.7,0,0,0-2.9,2.6v-.2a3,3,0,0,0-4.1-.6,3.2,3.2,0,0,0-.8,4.3,3.1,3.1,0,0,0,3.8.8,2.5,2.5,0,0,0-.2,1.5Zm48.3-9,6.1-1.1.5-.7.4.6,4.2-.8a2.2,2.2,0,0,0,.1-1.6c0-.4-.5-.3-.7-.5a3.2,3.2,0,0,0,3.8.6,3,3,0,1,0-3.3-4.9,3.1,3.1,0,0,0-.8,4.1c-.7-.9-1.1-1.9-2.3-1.6s-.8,1.2-1.3,1.9-.3-1.7-1.2-1.9a3.2,3.2,0,0,0-3.9,2c-.2,1.2.7,2,1.9,2.8a2.7,2.7,0,0,0-3.5,1.1Zm20.2-3.5,4.9-.9-.5-.4-.7-.4a2.9,2.9,0,0,0,1.4-3.4,2.8,2.8,0,0,0-3.4-2.2,3,3,0,0,0-2.4,3.5,3.1,3.1,0,0,0,2.1,2.2,3.2,3.2,0,0,0-1.2,1.1c-.1.2-.2.3-.2.5Zm-147.5.4-.9.3-4.1,1.3a2.9,2.9,0,0,0,3.2.6,3.1,3.1,0,0,0,1.8-2.2Zm-23.3,7.5-5.4,1.8a2.7,2.7,0,0,0,1.2.9,3.1,3.1,0,0,0,3.9-1.5,2.7,2.7,0,0,0,.3-1.2Zm-76.5,24.5-5.4,1.7.6.5a3.1,3.1,0,0,0,4.3-.7,2.7,2.7,0,0,0,.5-1.5Zm292.6-41.7,7.3-1.5a3.3,3.3,0,0,0-1.4-1.7c-.9-.7-2.6-.3-3.6.6h-.1c0,.1-.3,0-.4.1s.2.3.1.4a4.1,4.1,0,0,0-1.9,2Zm8.5-1.8,4.9-1-.7-.5a2.8,2.8,0,0,0-4,1.2l-.2.3Zm-268.4,37.8a3,3,0,1,1,4,.3,2.8,2.8,0,0,1-4-.3Zm-4.5,5a2.7,2.7,0,0,1-3.3-2.3,3,3,0,0,1,2.4-3.5,2.8,2.8,0,0,1,3.3,2.3,2.9,2.9,0,0,1-2.4,3.5Zm-35.4,12.9a3,3,0,0,1,1.2,4,3.3,3.3,0,0,1-4.1,1.3,3,3,0,0,1-1-4.2,2.7,2.7,0,0,1,3.9-1.1Zm-65.8,21.4a3.1,3.1,0,0,1-4.1,1.3,2.9,2.9,0,0,1-1.1-4.1,2.8,2.8,0,0,1,4-1.2,2.9,2.9,0,0,1,1.2,4Zm184.6-59.1a3.3,3.3,0,0,1,4.3-1,2.9,2.9,0,1,1-3.1,5,3.2,3.2,0,0,1-1.2-4Zm-32.7,7a3.3,3.3,0,0,1,1.9-3.9,3,3,0,0,1,3.8,1.8,3.1,3.1,0,0,1-1.7,4,3.3,3.3,0,0,1-4-1.9Zm21.4-6.4a3.2,3.2,0,0,1,1.9-3.8,2.9,2.9,0,0,1,3.8,1.7,2.8,2.8,0,0,1-1.6,3.8,3.1,3.1,0,0,1-4.1-1.7Zm225.5-39.1a2.9,2.9,0,0,1-2.4-3.3,3,3,0,0,1,3.3-2.8c1.8.5,2.9,2,2.5,3.6a2.9,2.9,0,0,1-3.4,2.5Zm-262.1,65.1a2.7,2.7,0,0,1-3.4-2.1,2.9,2.9,0,0,1,2.1-3.7,3.2,3.2,0,0,1,3.7,2.3,2.9,2.9,0,0,1-2.4,3.5ZM605.9,1122a2.9,2.9,0,0,1-3.5-2.2,3.2,3.2,0,0,1,2.1-3.6,3.1,3.1,0,0,1,3.7,2.4,2.8,2.8,0,0,1-2.3,3.4Zm-5.9-7.5a3,3,0,0,1-3.7-2.3,3,3,0,0,1,5.9-1.3,3.2,3.2,0,0,1-2.2,3.6Zm-12.6,1.5c1.2.2,1.7,1.6,1.9,3,.2-.4.5-.9.8-.8a3,3,0,0,1,2.5,3.5,3.1,3.1,0,0,1-3.4,2.4,2.9,2.9,0,0,1-2.1-3c-.4,0-.6.8-1.2.6a3.2,3.2,0,0,1-2.4-3.8,3.2,3.2,0,0,1,3.9-1.9Zm-328.6,83.4a3.2,3.2,0,0,1-2.2-3.6,2.9,2.9,0,0,1,3.6-2.1c1.8.4,2.8,2.1,2.1,3.5a2.8,2.8,0,0,1-3.5,2.2Zm390.6-89.3a3,3,0,0,1-4.2-.7,3.1,3.1,0,0,1,.7-4.1,3.2,3.2,0,0,1,4.3.6,3.3,3.3,0,0,1-.8,4.2ZM415,1156a2.9,2.9,0,0,1-2.7-3.3,3.1,3.1,0,0,1,3.3-2.6,3.1,3.1,0,0,1,2.7,3.2,3,3,0,0,1-3.3,2.7Zm243.3-43a2.8,2.8,0,0,1-4.1.9,3,3,0,0,1,3.4-4.9,2.8,2.8,0,0,1,.7,4Zm-153.7,31.1-.6.2a4.5,4.5,0,0,0-.3-2.2,2.9,2.9,0,0,0,.9,2Zm-36.8,4.5a2.7,2.7,0,0,1,3.9-1.1,2.8,2.8,0,0,1,1.1,4.1c-.6,1.5-2.7,1.8-3.9,1.1a2.7,2.7,0,0,1-1.1-4.1Zm72.5-29.9a3.2,3.2,0,0,1-4.4,1.1c-1.3-.7-1.7-2.6-1.1-4.1a3.1,3.1,0,0,1,5.5,3Zm-6.8,21.2a3.2,3.2,0,0,1-1.5-4,3,3,0,0,1,4.1-1.3,2.6,2.6,0,0,1,1.3,3.7,2.9,2.9,0,0,1-3.9,1.6Zm-2.4-28a3.2,3.2,0,0,1,1.5,4,3.1,3.1,0,0,1-4.1,1.5,3.2,3.2,0,0,1-1.5-4.1,3.1,3.1,0,0,1,4.1-1.4ZM482,1128.5a2.9,2.9,0,0,1-3.6,2.1,2.9,2.9,0,0,1-2.2-3.6,3,3,0,0,1,5.8,1.5Zm79.8-5.7a2.9,2.9,0,0,1-4.1-.6,3,3,0,0,1,4.8-3.5,2.9,2.9,0,0,1-.7,4.1Zm-52.5,4.4a3,3,0,0,1-4.1-.7,3,3,0,0,1,4.9-3.5,3,3,0,0,1-.8,4.2Zm58.3-20.5a2.8,2.8,0,0,1-3.1,2.8c-1.6-.1-3.1-1.6-2.8-3.1s1.5-3.1,3-2.9,3.3,1.6,2.9,3.2Zm-17.8,7.9a2.9,2.9,0,0,1-2.8-3.1,3.1,3.1,0,0,1,3-2.9,3,3,0,0,1-.2,6Z" transform="translate(3.8 3)"/>
<path class="cls-11" d="M524.3,1108.7l-5.5,1.2a3.5,3.5,0,0,0,2.6,1.5,2.8,2.8,0,0,0,2.9-2.7Zm50.2,25.6,1.6-.3a2.2,2.2,0,0,0-1.6.3Zm192.2-24.7,2.2-.2a3.2,3.2,0,0,0-1.4-.1l-.8.3Zm12-.9,4.4-.3a2.9,2.9,0,0,0-3.8-.3c-.2.2-.5.4-.6.6Zm10-.7,5.9-.4a2.9,2.9,0,0,0-2.8-2.3,3.1,3.1,0,0,0-3.1,2.7Zm12.3-.7,3.2-.2a2.6,2.6,0,0,0-2.1-.3,1.6,1.6,0,0,0-1.1.5Zm7-.4,5.1-.3a2.4,2.4,0,0,0-1.1-.9,3,3,0,0,0-4,1.2Zm19.4-.9,5.6-.3a2.7,2.7,0,0,0-1.7-1.9,2.9,2.9,0,0,0-3.8,1.5,2,2,0,0,0-.1.7Zm23.6-.8h5.3a2.9,2.9,0,0,0-3.7-1.4,3.9,3.9,0,0,0-1.6,1.5Zm-234.1,20.3,5.4-1.2a2.8,2.8,0,0,0-1.9-1.6,3.2,3.2,0,0,0-3.6,2.3.4.4,0,0,0,.1.5Zm10.6-2.3,6.9-1.3a2.8,2.8,0,0,0-2.8-3.1c-.3-.1-.4.5-.8.6s.2-.4.1-.6a3,3,0,0,0-4.2-.6,3.1,3.1,0,0,0-.7,4.1,1.6,1.6,0,0,0,1.5.9Zm-178.2,18.6a3.1,3.1,0,0,1,3.2-3,2.8,2.8,0,0,1,2.8,3,3,3,0,0,1-2.8,3c-1.7.1-2.9-1.3-3.2-3Zm124.4-7.7a2.8,2.8,0,0,1-3.3-2.3,2.9,2.9,0,0,1,2.4-3.5,2.8,2.8,0,0,1,3.3,2.3,3,3,0,0,1-2.4,3.5Zm12.1-7.7a3.1,3.1,0,0,1-4,1.2,3,3,0,0,1,2.9-5.3,3,3,0,0,1,1.1,4.1ZM738,1101.3a3.2,3.2,0,0,1-4.3,1c-1.3-.6-1.7-2.6-1.1-4.1a3.4,3.4,0,0,1,4-1.2,3.4,3.4,0,0,1,1.4,4.3Zm-32.9-4.8v.2c.4,0,.2.4.4.5s-.5-.4-.3-.7Zm4.1-1.2a2.9,2.9,0,0,1,1.1,4c-.9,1.4-2.8,2-4,1.2-.7,1-1.6,2-2.9,1.7a2.9,2.9,0,0,1-2.1-3.7c.2-1.3,1.4-1.5,2.8-1.5-.5-.1-1,.6-1.5.2a3,3,0,0,1-1.1-4,3.1,3.1,0,0,1,3.9-1.2,3,3,0,0,1,1.2,4c1-.4,1.6-1.3,2.6-.7Zm-82.5,18.3a2.9,2.9,0,0,1-3.8-1.7,2.6,2.6,0,0,1,1.8-3.7,2.8,2.8,0,0,1,3.9,1.5,3.1,3.1,0,0,1-1.9,3.9Zm60-6.7a3.2,3.2,0,0,1-2.5-3.5,3.1,3.1,0,0,1,3.4-2.4,3,3,0,0,1,2.6,3.4,3.2,3.2,0,0,1-3.5,2.5Zm-204.5,31.8a3.3,3.3,0,0,1-2.6-3.4,3.3,3.3,0,0,1,3.5-2.6,3.4,3.4,0,0,1,2.6,3.5,3.2,3.2,0,0,1-3.5,2.5Zm7.5-9.8a3.2,3.2,0,0,1-3.8-2.4,3,3,0,0,1,2.4-3.5,2.7,2.7,0,0,1,3.5,2.2,3.5,3.5,0,0,1-2.1,3.7Zm38.1-6.8a2.6,2.6,0,0,1-3.4-2.2,3.3,3.3,0,0,1,2.1-3.6,3.3,3.3,0,0,1,3.7,2.3,2.9,2.9,0,0,1-2.4,3.5ZM772.5,1105c-.5-.2-.3-1-.6-1.7s-2.8.1-3.6-1.5.2-3.3,1.9-3.6a2.9,2.9,0,0,1,3.8,1.6v.2c.4-.2.6-.5,1-.4a2.9,2.9,0,0,1,1.5,3.9,2.8,2.8,0,0,1-3.9,1.5Zm-329.3,35.4c-.9-.1-1.3-1.2-1.8-2.1-.6,1-1.9.8-2.9.6s.2.4.1.5a3.1,3.1,0,0,1-3.9,1.5c-.6-.2-.3-1-.7-1.5a2.9,2.9,0,0,1-3.2-1.4,3.2,3.2,0,0,1,1.6-4.1,3.7,3.7,0,0,1,4.1,1.9h.1c.1-.3-.4-.6-.2-.8a3.1,3.1,0,0,1,4.4-.8c.7.5.4,1.5.5,2.5a3.2,3.2,0,0,1,2.2-2.4c1.6.3,3.1,1.8,2.8,3.4a3,3,0,0,1-3.1,2.8Zm91.4-23.6a2.9,2.9,0,0,1,3.6-2,3,3,0,0,1,2.2,3.5,3,3,0,1,1-5.8-1.5Zm133.8-7.9a2.9,2.9,0,0,1-2.1-3.6,2.9,2.9,0,0,1,3.7-2.2,3,3,0,0,1,2.1,3.5,3.2,3.2,0,0,1-3.7,2.3Zm-51.5,1.4a3.1,3.1,0,0,1-4.1-.7c-1.1-1.5-.9-3.5.4-4.3a3.1,3.1,0,0,1,3.7,5Zm-22.1-11a3.3,3.3,0,0,1,2.7,3.3,3.1,3.1,0,0,1-3.3,2.7,3,3,0,0,1-2.8-3.2,3.1,3.1,0,0,1,3.4-2.8ZM550.2,1118c-1.7-.3-3.1-1.8-2.8-3.4a3,3,0,0,1,3.1-2.8,2.9,2.9,0,0,1,2.7,3.3,3,3,0,0,1-3,2.9Zm134.7-21.3a2.9,2.9,0,1,1-4.8-3.3,2.9,2.9,0,0,1,4.8,3.3Zm-120.4,19.4a2.7,2.7,0,0,1-.7-4,2.8,2.8,0,0,1,4.1-.9,2.9,2.9,0,0,1,.7,4.2A2.9,2.9,0,0,1,564.5,1116.1Z" transform="translate(3.8 3)"/>
</g>
<path class="cls-12" d="M-3.1,1419H1283.4v-4c-93.3-20.3-174.7-39-314.9-95.8-232.4-94.2-597.4-141.5-852-94-46,8.6-84.5,16-119.6,23.2Z" transform="translate(3.8 3)"/>
<path class="cls-13" d="M1268.6,1411.8l-3.4-.7a5.9,5.9,0,0,0-4.6,4.2,4.7,4.7,0,0,0,.4,3.7h9.5a5.8,5.8,0,0,0,.5-1.4,5.4,5.4,0,0,0-2.4-5.8ZM-3.1,1406.5v-10a5,5,0,0,1,3.4,6.1,5.6,5.6,0,0,1-3.4,3.9Zm0-15.2v-10.4a4.4,4.4,0,0,1,2.6,1.7,5.2,5.2,0,0,1-.7,7.6,4.5,4.5,0,0,1-1.9,1.1Zm1207.2,5.6-9.4-2.3a4.9,4.9,0,0,0-1.1,2,6.1,6.1,0,0,0,4.3,6.7c2.7.1,5.6-1.6,6-4.3a5,5,0,0,0,.2-2.1Zm-17.7-4.4-9.8-2.6c-1.2,2.2-.8,5.4,1.2,6.9a5.3,5.3,0,0,0,7.4-.6,6.3,6.3,0,0,0,1.2-3.7Zm-22.8-6.1-9-2.5a6.1,6.1,0,0,0-.7,1c-1.7,2.2-.8,5.9,1.8,7.3a5.2,5.2,0,0,0,7.1-2.2,4.5,4.5,0,0,0,.8-3.6Zm-26.6-7.5-10.3-3.1a5.1,5.1,0,0,0,.5,4.3,5.1,5.1,0,0,0,7.3,1.7,5.8,5.8,0,0,0,2.5-2.9Zm-83.6-27.3-10.1-3.6a4.8,4.8,0,0,0,0,2.9,5.4,5.4,0,0,0,6.3,4.2,5,5,0,0,0,3.8-3.5Zm-91.7-35.1-6.6-2.6a4,4,0,0,0,1.3,1.6,5,5,0,0,0,5.3,1Zm-29.3-11.2-8.3-3a6.4,6.4,0,0,0,2.3,3.2,5.6,5.6,0,0,0,6-.2Zm-28.6-10-14.5-4.8-.7.4c-2.5,1.4-2.9,5.2-1.3,7.4s2.7.7,4.7.7c-2.2,2-3,4.9-1.2,7.3a5.8,5.8,0,0,0,7.3,1.2c2.3-1.9,3-5.2,1.3-7.4s-1.8-.2-2.7-.7c2.3.9,4.5,1.6,5.8-.4a5.3,5.3,0,0,0,1.3-3.7Zm-327.6-73.1-17.9-2.2c-.5.4-1.1.7-.9,1.4.9,3.1,3.6,5.3,6.5,4.6s2.9-2.8,3.3-4.9c.5,2.1.2,4,1.7,4.4a5.5,5.5,0,0,0,7.3-2.4.8.8,0,0,0,0-.9Zm-86.6-9.3-10.7-.8a5.8,5.8,0,0,0,4.4,5.8,5.9,5.9,0,0,0,6.2-4.3c0-.2.1-.4.1-.7Zm-54.7-3.8-10-.5a3.5,3.5,0,0,1,.7,1.5c-2.6-.9-5.2-.6-6.4,1.8a5.5,5.5,0,0,0,2.6,7.1,5.6,5.6,0,0,0,7.2-2.5c.5-.8-.7-1.3-.7-2.5,2.6.9,5,.5,6.3-2a7.2,7.2,0,0,0,.3-2.9ZM303.1,1207l-9.7.3a6,6,0,0,0,.7,2,4.4,4.4,0,0,0,.8,1.1,5.3,5.3,0,0,0-4.9,4.4c-.7,2.7,1.2,6,3.9,6.1a5.2,5.2,0,0,0,6.5-3.8,5.8,5.8,0,0,0-1.7-5.1,8.3,8.3,0,0,0,2.8-.9c1.4-.9,1.6-2.6,1.6-4.1Zm-63,2.9-10.4.8a5.7,5.7,0,0,0,4.2,4.5,6.2,6.2,0,0,0,6.2-4.3v-1Zm678,155.9a5.4,5.4,0,0,1,4.3-6.2c2.6-.9,5.3,1.1,6.3,4.2a5.5,5.5,0,0,1-4.3,6.2,5.8,5.8,0,0,1-6.3-4.2Zm-215.8-86.4a5.6,5.6,0,0,1,5.4,1.8v-.2a5.4,5.4,0,0,1,6.3-4.2,5.8,5.8,0,0,1,3.9,6.7,5.3,5.3,0,0,1-6.3,3.8,5.2,5.2,0,0,1-2.9-1.7,5.6,5.6,0,0,1-4.2,3.9c-2.7,1.1-5.6-.9-6.3-3.5s1.3-6.2,4-6.6Zm-33.9,51.2c.7,3.3-1,6-4,6.6a5.2,5.2,0,1,1-2.1-10.2c2.5-.9,5.5,1,6.1,3.6Zm533.9,84.4a6,6,0,0,1,3,4h-10.4a4.9,4.9,0,0,1,.4-1.1,5,5,0,0,1,7-2.9Zm-111.7-6.3c-.9,3-4.4,3.8-7,2.9a5.2,5.2,0,0,1-2.4-7c1-3.1,4.1-4.1,6.9-2.8a4.9,4.9,0,0,1,2.5,6.9Zm-590-173.8a6.2,6.2,0,0,1,2.7,7.4,5.4,5.4,0,0,1-7.3,2.5c-2.6-1.5-3.8-4.4-2.5-7s4.3-3.7,7.1-2.9Zm126.9,48.5a5.8,5.8,0,0,1,7-2.9,6.1,6.1,0,0,1,2.8,7.5,5.1,5.1,0,0,1-7,2.3c-2.9-1.4-4.1-4.2-2.8-6.9ZM3.1,1279.2a5.2,5.2,0,0,1,7-2.4,5.2,5.2,0,1,1-4.4,9.3c-2.5-.8-3.8-4.4-2.6-6.9Zm915.5,64.6a5.1,5.1,0,0,1,3.6,6.3,5,5,0,0,1-6.3,4.2,5.6,5.6,0,0,1-3.9-6.7,5.5,5.5,0,0,1,6.6-3.8Zm-98.9,32.6a4.9,4.9,0,0,1,3.7,6.2,5.3,5.3,0,0,1-6.6,3.8,4.8,4.8,0,0,1-3.6-6.2,5.2,5.2,0,0,1,6.5-3.8Zm-166.4-14a5.3,5.3,0,0,1,3.7,6.3,5.3,5.3,0,0,1-6.5,3.8,5,5,0,0,1-3.7-6.3,5.3,5.3,0,0,1,6.5-3.8Zm-20.1-98.6a5.2,5.2,0,0,1,3.7,6.4,5.6,5.6,0,0,1-6.5,3.8,5.2,5.2,0,0,1-3.8-6.4,5.7,5.7,0,0,1,6.6-3.8ZM78.3,1339.4a6.1,6.1,0,0,1,4,6.8,5.3,5.3,0,0,1-6.6,3.8,5.6,5.6,0,0,1-3.9-6.7,5.3,5.3,0,0,1,6.5-3.9Zm601.2-13.5a4.9,4.9,0,0,1,3.7,6.2,5.4,5.4,0,0,1-6.5,3.9,4.9,4.9,0,0,1-3.7-6.3,5.2,5.2,0,0,1,6.5-3.8Zm-62.7,13.3c1.7,2.7,1.3,5.9-1.1,7.3s-5.8.9-7.6-1a5,5,0,0,1,1.4-7.4c2.1-2,5.4-1.5,7.3,1.1Zm31.4-42.6c1.6,2.1.8,5.5-1.4,7.5a5.7,5.7,0,0,1-7.6-1.6,5.5,5.5,0,0,1,1.2-7.2,5.8,5.8,0,0,1,7.8,1.3Zm474.3,109.7a5.6,5.6,0,0,1,7.5,1.7c1.5,2.1,1,5.4-1.2,7.4a5.7,5.7,0,0,1-7.7-1.6c-1.6-2.1-.8-5.5,1.4-7.5Zm-381-122.7c-1.5-2.1-.8-5.6,1.4-7.5s4.1-1.2,5.9-.1a5.5,5.5,0,0,1-.5-6,5.1,5.1,0,0,1,7.1-2.4c2.6,1.4,3.5,5.1,2.1,7.1a5.4,5.4,0,0,1-7.3,2.6c1.8,2.6,1.4,5.8-1.1,7.3a5.2,5.2,0,0,1-7.6-1Zm-128.6-41a5.3,5.3,0,0,1,7.5,1,5.1,5.1,0,0,1-1.4,7.5,5,5,0,0,1-7.3-1.2,5,5,0,0,1,1.2-7.3Zm207.9,38a5.5,5.5,0,0,1,3.9,6.1c2.4-1,5.4-.7,6.6,1s1.2,6-1.3,7.4a5.1,5.1,0,0,1-7.4-1.3c-1.6-2-.5-4.4,1-6-1.3,2-3,3.7-5.2,3.1a5.6,5.6,0,0,1-3.9-6.7,4.9,4.9,0,0,1,6.3-3.6Zm-685.5,9.2a5.7,5.7,0,0,1-.9,7.7c-2.6,1.5-6,1.2-7.7-1.5s-1-5.5,1.3-7.4a5.8,5.8,0,0,1,7.3,1.2Zm393.2-18.2c1.2-.7,2.2.4,3.4.3.9-2.3,3.1-4.1,5.7-3.4a5.1,5.1,0,0,1,3.7,6.4,5.2,5.2,0,0,1-6.5,3.8c-.4.3.2,1.2-.2,1.4a5,5,0,0,1-7.4-1.1c-1.8-2.6-1.3-5.9,1.3-7.4Zm50.8-40.6a5.7,5.7,0,0,1,7.5,1.5,5.5,5.5,0,0,1-1.1,7.3c-2.8,1.6-6,1.1-7.6-1a5.7,5.7,0,0,1,1.2-7.8Zm167.1,101a5.4,5.4,0,0,1,1.2-7.3c2.6-1.6,5.8-1.2,7.4,1a5.2,5.2,0,0,1-1.4,7.5,4.9,4.9,0,0,1-7.2-1.2Zm122.4,15.6a5.5,5.5,0,0,1,7.6,1,5.2,5.2,0,0,1-1.4,7.5,5,5,0,0,1-7.3-1.2c-1.8-2.6-1.4-5.8,1.1-7.3Zm26-48.3c.5-.3-.3-1,.1-1.3s-.4.8.1,1.2Zm-368.6,3.2a5.6,5.6,0,0,1-6.5-9,5.6,5.6,0,0,1,7.6,1.7c1.6,2.1,1,5.4-1.1,7.3Zm70.6,100.9a5.6,5.6,0,0,1,7.6,1.5,5.4,5.4,0,1,1-9,5.8c-1.6-2-.8-5.5,1.4-7.3Zm114.1-145.2a4.9,4.9,0,0,1,7.5.9,5.2,5.2,0,0,1-1.4,7.5,4,4,0,0,1-2.3,1,5.4,5.4,0,0,1-8.9,6.1,5.6,5.6,0,0,1,.8-7.6,5,5,0,0,1,2.8-1.2c-1.3-2.6-.8-5.4,1.5-6.7Zm-111.7,85.9a6,6,0,0,1,5.3,6,6,6,0,0,1-6.1,4.6,5,5,0,0,1-4.8-5.6,5.3,5.3,0,0,1,5.6-5Zm409.3,70.5c2.3-.6,4.8-1,6.5,1.2a4.9,4.9,0,0,1,.7,3.2h-10.2a15.5,15.5,0,0,1,1.4-2.9c-1,.8-1.4,2-2.5,2.2a6.1,6.1,0,0,1-5.2-6.1,6.2,6.2,0,0,1,6-4.7c2.9.2,4.9,2.6,4.9,5.7-.3.7-1.1.7-1.6,1.4Zm-318.2-153a5.1,5.1,0,0,1,4.9,5.7c-.4,2.5-2.7,5.1-5.7,4.6s-5.1-2.4-5.2-5.5a5.2,5.2,0,0,1,6-4.8Zm107.1,21.1a5.5,5.5,0,0,1,4.9,5.7,5.6,5.6,0,0,1-5.8,5.1c-2.8,0-5.1-3.1-4.8-5.5a5.5,5.5,0,0,1,5.7-5.3Zm-207.1,97.9a5.4,5.4,0,0,1,.7-10.7,5.3,5.3,0,0,1,5.1,5.6c-.3,3.1-2.7,5-5.8,5.1Zm-6.1-64.5c-.6,2.6-2.8,5.1-6,4.7s-4.8-2.5-4.8-5.7a5.5,5.5,0,0,1,5.8-5.1,5.9,5.9,0,0,1,5,6.1Zm236.1,6.4a5.6,5.6,0,0,1,5.1,5.9,5.4,5.4,0,0,1-6,4.8c-2.8-.1-4.8-2.6-4.8-5.6a5.4,5.4,0,0,1,5.7-5.1Zm-275.5-2.7a5.4,5.4,0,1,1-.7,10.7,5,5,0,0,1-4.8-5.6,5.3,5.3,0,0,1,5.5-5.1Zm0-9.6a5.8,5.8,0,0,1-6,4.7,5.2,5.2,0,0,1-4.7-5.7,5.1,5.1,0,0,1,5.5-4.9,5.6,5.6,0,0,1,5.2,5.9ZM985,1404.3a5.2,5.2,0,0,1,4.9,5.7,5.3,5.3,0,0,1-5.6,5,5.4,5.4,0,1,1,.7-10.7ZM113.7,1241a5.7,5.7,0,0,1,7.5-1.5c2.5,1.6,2.9,5,1.5,7.6s-5.2,3-7.4,1.4a5.6,5.6,0,0,1-1.6-7.5Zm774.9,177.6a4.9,4.9,0,0,1,7-1.7,7.4,7.4,0,0,1,1.9,2.1h-9.2l.3-.4ZM779.5,1284.2a4.9,4.9,0,0,1,1.2,7.1c-1.4,2.7-5,2.9-7.4,1.4a5.1,5.1,0,0,1-1.1-7.3c1.4-2.6,4.9-2.9,7.3-1.2Zm75.8,18.3a6,6,0,0,1,7.7-1.6,6.1,6.1,0,0,1,1.3,7.7,5.7,5.7,0,0,1-7.5,1.4c-2.5-2-3.2-5.3-1.5-7.5Zm-286.5,82.3c.3-1.4-.5-2.7.4-3.2a5.5,5.5,0,0,1,7.5,1.5c1.6,2.1,1.1,5.4-1.1,7.4s-2.6-.3-3.9-.7.8,1.3.2,2.1a5.5,5.5,0,0,1-7.3,1.3c-2.4-1.5-2.9-4.9-1.4-7.5s3.3-1.5,5.6-.9Zm378.9,5.8a5.7,5.7,0,0,1,1.5,7.5,5.6,5.6,0,0,1-7.4,1.4,5.7,5.7,0,0,1-1.5-7.5,5.6,5.6,0,0,1,7.4-1.4Zm-358.6-113a5.9,5.9,0,0,1,4.2,6.6c-.4,1.4-2.1,1.2-3.1,1.8,2,.6,4.1,2.5,3.9,4.9a5.1,5.1,0,0,1-5.4,5.1,5.9,5.9,0,0,1-5.3-6c.4-1.5,1.7-1.5,3.2-2.4-2.7-.9-4.2-3-3.7-5.7s3.4-5,6.2-4.3Zm34.6,18.4a4.9,4.9,0,0,1,3.9,6.1c-.8,2.9-3.4,4.9-6.2,4.3a5.7,5.7,0,0,1-4.3-6.6,5.3,5.3,0,0,1,6.6-3.8ZM89.4,1248.6a5.8,5.8,0,0,1-4.2-6.7,5.3,5.3,0,0,1,6.5-3.8,5.2,5.2,0,0,1,3.9,6.1,4.9,4.9,0,0,1-6.2,4.4ZM73,1282.3a5.5,5.5,0,0,1-3.9-6.3c.9-2.7,3.4-4.9,6.3-4.2s4.9,3.8,4.1,6.7-3.4,4.3-6.5,3.8Zm166.9-61a5.2,5.2,0,0,1,4.1,6.5c-.5,2.7-3.6,4.5-6.5,3.8a5.2,5.2,0,0,1-3.9-6.1,5.7,5.7,0,0,1,6.3-4.2Zm-128.7,81.4a5,5,0,0,0,3.9,6.1c.8.2,1.2-.7,1.6-1-.8,2.4-.6,5.3,1.6,6.4a5.2,5.2,0,0,0,7.3-1.8,5.6,5.6,0,0,0-1.9-7.5c-1.2-.5-2.2.8-3.7,1,.4-.3,1.5-.2,1.6-1a5.3,5.3,0,1,0-10.4-2.2Zm476.5,57.2c-2.9-.7-5.6,1.4-6.3,4.3s1,5.3,3.9,6.1a5.3,5.3,0,0,0,6.5-3.9,5.8,5.8,0,0,0-4.1-6.5Zm-30-109.6a5.4,5.4,0,0,1,4.1,6.5,5.3,5.3,0,0,1-6.5,3.8c-2.9-.8-4.7-3.2-3.9-6.1s3.4-5,6.3-4.2Zm93.4-4.2a5.2,5.2,0,0,1,7.4.6,5.4,5.4,0,0,1-.5,7.5c-2.6,2-5.8,1.6-7.5-.5a5.1,5.1,0,0,1,.6-7.6Zm212.2,119.3a5.3,5.3,0,0,1,7.7.9,5.2,5.2,0,0,1-.9,7.1,5.3,5.3,0,1,1-6.8-8Zm-278.9-31.9a5.5,5.5,0,0,1,.4-7.6,5.5,5.5,0,0,1,7.5.5,5.3,5.3,0,0,1-.6,7.6,5.2,5.2,0,0,1-7.3-.5Zm360.3,38.4a5.6,5.6,0,0,1-7.9-.8c-1.7-2-1.5-5.2,1-7.3s5.3-1.8,7.2.7a5.1,5.1,0,0,1-.3,7.4ZM776,1373.1a5.3,5.3,0,1,1-.5,7.5c-2-2.5-1.8-5.6.5-7.5ZM85.6,1317.6a5.4,5.4,0,0,1-.6,7.6,5.1,5.1,0,0,1-7.3-.5,5.2,5.2,0,0,1,.5-7.5c2.2-1.9,5.8-1.6,7.4.4Zm892.6,54.6c2.2-2,5.8-1.6,7.2.5s1.8,5.6-.4,7.4a5.3,5.3,0,0,1-7.4-.4,5.2,5.2,0,0,1,.6-7.5ZM261.3,1228.5c-1.7-1.3-1.5-3.9-.7-6.2-.7.4-1.6.9-1.9.6-2.5-1.5-3.2-4.8-1.5-7.6a5.5,5.5,0,0,1,7.3-1.3c2,1.3,2.2,4.1,1.2,6.5.7.3,1.5-.9,2.3-.1,2.5,2.2,3,5.6,1,8a5.9,5.9,0,0,1-7.7.1Zm593.2,115.4a5.2,5.2,0,1,1-6.6,8.1c-2.4-2.1-2.8-5.5-.6-7.4a4.8,4.8,0,0,1,7.2-.7Zm-661-78.7c-.3-.3-.9.6-1.2.3-2.6-1.7-3.5-5.4-1.8-7.6s5.2-3,7.6-1.3.9,3,1.1,4.8c.7.1,1.1-.7,1.5-.4a5.4,5.4,0,0,1,.8,7.4c-1.9,2.4-5.2,3.1-7.4.7s-.4-2.7-.6-3.9ZM591,1253.7a5.5,5.5,0,0,1,7.6-1,5.7,5.7,0,0,1,.5,7.6,5.2,5.2,0,0,1-8.1-6.6Zm391.9,127.7a4.9,4.9,0,0,0-4.1,6.1,5.4,5.4,0,0,0,6,4.3,5.8,5.8,0,0,0,4.5-6.3c-.6-3.2-3.6-5.1-6.4-4.1Zm-300.3-15.7c.8,3.2-1.2,5.5-4.2,6.1s-5.5-1.1-6.1-4.2,1.5-5.8,4.2-6.2a5.3,5.3,0,0,1,6.1,4.3Zm-114.9-21.3c2.5-.8,5.4,1.2,6,4.3a5.3,5.3,0,0,1-4.4,6.2c-2.7.4-5.8-1.5-6.2-4.2s1.6-5.7,4.6-6.3Zm133.6-75.9a5.6,5.6,0,0,0,4.5-6.1,5.4,5.4,0,0,0-6-4.4,5.7,5.7,0,0,0-4.6,6.2,5.4,5.4,0,0,0,6.1,4.3Zm52.6,92.9c2.9-.7,5.7,1.4,6.4,4.7a5.4,5.4,0,0,1-4.4,6,4.9,4.9,0,0,1-5.9-4.2c-.7-3.3.9-6,3.9-6.5ZM82.8,1299.3c-.1-1-1.2-2.2-.5-3.2s5.5-2.6,7.4-.8a5.8,5.8,0,0,1,1,8c-1.1,1.1-2.9.4-4.6.2.3,1.1,1.3,1.7.8,2.5a5.4,5.4,0,1,1-9.4-5.3c1-1.8,3.4-1.3,5.3-1.4Zm486.9-4.3c2.5,1,3.5,4.7,1.9,7.3s-4.7,3.5-7.4,1.9a5.6,5.6,0,0,1-1.8-7.3,5.4,5.4,0,0,1,7.3-1.9Zm-55.9-57c1.1-2.5,4.6-3.4,7-2.3s3.6,5,1.8,7.3a5.1,5.1,0,0,1-7,2.4,5.7,5.7,0,0,1-1.8-7.4Zm140.5,139.4a5.2,5.2,0,0,1,7.3-1.8,5.3,5.3,0,0,1,2.1,7.2,5.2,5.2,0,0,1-7.3,1.9c-2.8-1.5-3.4-4.6-2.1-7.3Zm-30.8,4.3a5.4,5.4,0,0,1,9.5,5.2,5.2,5.2,0,0,1-7.4,1.9,5.1,5.1,0,0,1-2.1-7.1ZM547.1,1242a5.3,5.3,0,0,1,1.9,7.2,5.6,5.6,0,0,1-7.1,2.5c-2.4-1.6-3.6-5.3-1.9-7.3a5.2,5.2,0,0,1,7.1-2.4Zm529.5,162.8c-1.2,2.7-4.6,3.4-7,2.4a6.4,6.4,0,0,1-2.3-7.8c1.9-2.3,4.8-3.3,7.5-1.9a5.2,5.2,0,0,1,1.8,7.3ZM756.7,1287.3a5.5,5.5,0,0,0,2.1,7.2,5.2,5.2,0,1,0-2.1-7.2ZM868,1334.8a5.5,5.5,0,0,1,2.1,7.3,5.2,5.2,0,0,1-7.3,1.8c-2.4-1-3.5-4.5-2.1-7.1s4.7-3.5,7.3-2Zm206.8,44a5.7,5.7,0,0,1-1.8-7.4,5.2,5.2,0,0,1,7.3-1.8,5.3,5.3,0,0,1,2.1,7.2,5.6,5.6,0,0,1-7.6,2ZM194.3,1248c1.9,1.2,4.2,0,5.7-1.6.1,1.1-1,1.8-.5,2.8s1.1-.2,1.7.2c-1.4.8-3.3,1.2-3.8,2.7a4.9,4.9,0,0,0,3.9,6.1,5,5,0,0,0,6.4-3.7c.2-1.8-1.3-2.8-2.7-4.4.9,0,1.4,1,2.1.6s-.1-1.3.1-1.9c2.5,1.6,5.2,1.7,6.9-.4s1.5-5.7-1-7.9a5.4,5.4,0,0,0-7.4.8c-.3.2.3,1,.4,1.5-1.7-.8-3.6-2-5.2-1.1s0,1.2-.4,1.4c-.2-1.8.5-3.3-1-4.3a5.3,5.3,0,1,0-5.2,9.2Zm733.1,66.5c2.8-1.6,5.9-1,7.5,1.6s.5,5.7-2.2,7.4a5.1,5.1,0,0,1-7.1-2,5,5,0,0,1,1.8-7Zm-199.9,29.7a5.5,5.5,0,0,1,7.4,2.2,5.6,5.6,0,0,1-1.8,7.3,5.5,5.5,0,0,1-5.6-9.5Zm-114.7-78.6a5.6,5.6,0,0,1-1.6,7.6,5.7,5.7,0,0,1-7.6-2.2,5.6,5.6,0,0,1,2-7.3,5.5,5.5,0,0,1,7.2,1.9Zm-27.8-4.9a5.6,5.6,0,0,1-2,7.3,5.5,5.5,0,0,1-7.3-1.9,5.7,5.7,0,0,1,1.7-7.6,5.7,5.7,0,0,1,7.6,2.2Zm110.7,45.6a5.5,5.5,0,0,1,7.6,2.2,5.3,5.3,0,0,1-9.2,5.3c-1.6-2.7-.9-6.1,1.6-7.5Zm-54.2-30.4a5.4,5.4,0,0,1,1.7-7.1,5.5,5.5,0,0,1,7.5,1.7,5.8,5.8,0,0,1-1.9,7.8c-2.5,1.4-5.8.2-7.3-2.4Zm-394.2,102a5.5,5.5,0,0,1-2.1,7.2,5.2,5.2,0,0,1-7.1-1.8,5.3,5.3,0,1,1,9.2-5.4Zm168.9-131.8a5.8,5.8,0,0,1-.1,3.9,8.1,8.1,0,0,1,1.3-3.8Zm4.5-1.4c2.6,0,4.6,1.5,5.5,4.3a5.6,5.6,0,0,1-4.6,6.1,5.2,5.2,0,0,1-6.1-4.1h.3c-1.5,2-3.9,3.5-6.7,2a5.2,5.2,0,0,1-2.5-7,5.5,5.5,0,0,1,5.5-3,5.8,5.8,0,0,1-.4-3.7,5.6,5.6,0,0,1,6.5-3.8,6,6,0,0,1,4,6.8,5.3,5.3,0,0,1-1.5,2.5ZM232.6,1267a6,6,0,0,1,6.9-2.8,7.1,7.1,0,0,1,1.4,1,4.9,4.9,0,0,1,.7-4.5c1.4-2.7,5.1-3,7.3-1.3a4.8,4.8,0,0,1,1.5,7,4.9,4.9,0,0,1-7.6,1.3l-.4-.3a7,7,0,0,1-.1,4.3,5.1,5.1,0,0,1-7,2.3c-3-1.4-4.1-4.2-2.7-7Zm4.5,18.6c1.5-2.6,4.7-4,7.3-2.6a5.3,5.3,0,1,1-4.7,9.4,5.2,5.2,0,0,1-2.6-6.8Zm191.5,65.5a6.1,6.1,0,0,1-3.8-6.6,5.3,5.3,0,0,1,6.5-3.9c2.3.4,3.2,2.9,3.4,5.2,1.9-1.1,4.3-2.5,5.9-.5a5.2,5.2,0,0,1,.7,7.5c-1.6,2.2-5,2.4-7.3.6s-1.2-3.5-.6-5.6c-1.1,1.8-2.5,3.9-4.8,3.3Zm-311.3,47.5a5.4,5.4,0,0,1,3.9,6.7,5.3,5.3,0,0,1-6.5,3.8,5.8,5.8,0,0,1-3.9-6.7,5.3,5.3,0,0,1,6.5-3.8Zm-61.1,18.9a5.3,5.3,0,0,1,2.5,1.5H50.9a5.4,5.4,0,0,1,5.3-1.5ZM173,1323.7a5.1,5.1,0,0,1-3.7-6.3,5.2,5.2,0,0,1,6.5-3.8,4.9,4.9,0,0,1,3.7,6.2,5.4,5.4,0,0,1-6.5,3.9Zm174.6,73.7c-2.8-.7-4.7-3.2-3.9-6.1a5.3,5.3,0,0,1,6.5-4.4c2.9.8,4.8,3.9,3.9,6.6a5.3,5.3,0,0,1-6.5,3.9ZM479,1266.8a4.8,4.8,0,0,1-7.2-1.2c-1.8-2.6-1.3-5.9,1.3-7.4s5.7-.9,7.3,1.1a5,5,0,0,1-1.4,7.5Zm74.5,148.7a5.5,5.5,0,0,1-7.6-1.7c-1.7-2-1-5.3,1.1-7.3a5.8,5.8,0,0,1,7.7,1.7c1.5,2,1,5.3-1.2,7.3Zm-337-23.9c-2.7,1.6-5.9,1.2-7.3-1.1s-1.3-5.8,1.2-7.2,5.4-1.4,7.3,1.1a5.7,5.7,0,0,1-1.2,7.2Zm-36.9-85c-2.7,1.7-6,1.1-7.5-.9a6.1,6.1,0,0,1-1.1-3,5.4,5.4,0,0,1-7.2,1.7,5.2,5.2,0,0,1-1.8-7.3c1.1-2.5,4.7-3.3,7.3-1.9a5.3,5.3,0,0,1,2.5,4.6,4.4,4.4,0,0,1,1.7-1.6c2.1-2,5.4-1.5,7.3,1.1a5.7,5.7,0,0,1-1.2,7.3Zm159.7-46.7a5.9,5.9,0,0,1,7.9,1.5c1.6,2.1.8,5.5-1.4,7.5a5.7,5.7,0,0,1-7.3-1.1,6.2,6.2,0,0,1,.8-7.9Zm90.4,56.8c2.8.3,4.8,2.6,4.8,5.8a4.6,4.6,0,0,1-5.8,4.4c-3,0-4.9-2.3-5-5.4s2.8-5.2,6-4.8Zm42.8-74.4a5.5,5.5,0,0,1-1.4-7.6,5.6,5.6,0,0,1,7.4-1.3c2.4,1.5,2.9,4.9,1.4,7.5a5.6,5.6,0,0,1-7.4,1.4Zm-337.2,150a6,6,0,0,1,1.5,7.5c-1.7,2.2-5.1,3-7.3,1.3a5.6,5.6,0,0,1-1.8-7.5c2-2.2,5.2-3.1,7.6-1.3Zm132.9-91.9a5.2,5.2,0,0,1,3.9,6.3c-.7,2.7-3.4,5-6.3,4.2s-4.5-3.3-4.1-6.7a5.6,5.6,0,0,1,6.5-3.8Zm162.4-69.1a5.1,5.1,0,0,0-6.3,3.7c-.5,3.3,1.1,6,3.9,6.6a5,5,0,0,0,6.4-4.2,5.1,5.1,0,0,0-4-6.1ZM251.7,1360.9a4.8,4.8,0,0,1-3.8-6.2c.6-2.8,3.3-5.1,6.2-4.4s4.8,3.8,4.1,6.7a5.3,5.3,0,0,1-6.5,3.9Zm150.2-34.5a5.8,5.8,0,0,1,4.1,6.7,5.3,5.3,0,0,1-6.5,3.8c-2.5-.3-4.6-3.3-3.8-6.2a5.8,5.8,0,0,1,6.2-4.3ZM24.3,1419a5.4,5.4,0,0,1,1.8-4.4,5.4,5.4,0,0,1,7.5.6,5.1,5.1,0,0,1,1.3,3.8Zm342.1-188.1a5.9,5.9,0,0,1-.6,7.6,5.4,5.4,0,0,1-7.6-1,4.9,4.9,0,0,1,.6-7c2.3-1.8,5.5-2,7.6.4Zm1.9,74.9c1.8,1.9,1.9,5.5-.6,7s-5.5,2-7.6-.4a5.8,5.8,0,0,1,.8-7.7c2.1-1.9,5.4-1.4,7.4,1.1ZM44.8,1379.6a5.5,5.5,0,0,1-.5,7.6,5.5,5.5,0,0,1-7.5-.6,5.3,5.3,0,0,1,8-7ZM349,1277.9c2,2.3,5.6,2.7,7.7.9a5.6,5.6,0,0,0-7.1-8.6,5.8,5.8,0,0,0-.6,7.7Zm91.8,10.6a5.3,5.3,0,0,1,8.2,6.8c-1.7,2.2-5.2,2.3-7.4.6a5.4,5.4,0,0,1-.8-7.4Zm-253.5,81.7c2.2,1.7,2.4,5.3.5,7.6s-5.2,2.3-7.4.6a5.6,5.6,0,0,1-1-7.7,5.4,5.4,0,0,1,7.9-.5Zm184.9-58.3a5.6,5.6,0,0,0,7.5-.7,5.3,5.3,0,0,0-8.2-6.8,5.3,5.3,0,0,0,.7,7.5Zm-88.8-6.4a5.2,5.2,0,1,1,8.1,6.6,5,5,0,0,1-7.2.8,5.2,5.2,0,0,1-.9-7.4ZM451.7,1219c2.7-1.1,5.3,1,6.1,4.1a5.4,5.4,0,0,1-4.3,6.2,5.5,5.5,0,0,1-6.2-4.3c-.6-3.1,1.4-5.5,4.4-6Zm-143.9,17.9a5.1,5.1,0,0,1,6.1,4.2,5.2,5.2,0,0,1-4.2,6.1,5.2,5.2,0,0,1-6.2-4.2,5.3,5.3,0,0,1,4.3-6.1Zm-.8-15.8c-.7-3.2,1.5-5.7,4.5-6.3a5.7,5.7,0,0,1,5.6,3.9c-.1-.4-1-.6-.7-1.3a5.2,5.2,0,0,1,6.5-3.8c1.8.7,2,2.5,2.6,4.4,1.7-1,3.5-2,5.2-.6-.6-2.1-1.1-4,.4-5.6a5.3,5.3,0,0,1,7.4.5,5.2,5.2,0,0,1-.6,7.5c-2.2,2-5.2,1.3-7-.6,1.3,2.2,2.1,4.2.9,6s-5.2,2.5-7.7.3-.4-2.7-.6-3.9c-1.3.8-2,2.4-3.5,2.1s-2-2.3-2.6-4.5c.1,2.9-1.3,5.5-4.3,6.1a5.3,5.3,0,0,1-6.1-4.2Zm-45.7,143.7a5.3,5.3,0,0,1,6.1,4.3,5.2,5.2,0,0,1-10.3,1.9,5.2,5.2,0,0,1,4.2-6.2Zm107-71.8c-2.7.4-4.5,3.3-4.1,6.1a5.2,5.2,0,0,0,6.1,4.3,4.9,4.9,0,0,0,4.2-6.1,5.3,5.3,0,0,0-6.2-4.3Zm27.5-23.3a5.5,5.5,0,0,1,6.1,4.4c.6,3.1-1.5,5.5-4.5,6.1a5.1,5.1,0,0,1-6.1-4.2,5.7,5.7,0,0,1,4.5-6.3Zm6-58.4c1.6-2.7,4.7-3.3,7.5-2a5.5,5.5,0,0,1,2.1,7.2,5.3,5.3,0,0,1-7.4,2.1,5.4,5.4,0,0,1-2.2-7.3ZM485,1351.4a5.2,5.2,0,0,1,1.8,7.3,5.1,5.1,0,0,1-7.2,1.7c-2.4-1-3.5-4.5-2.1-7.1a5.9,5.9,0,0,1,7.5-1.9Zm-198.8-92.9c1.5-2.6,4.6-3.8,7.1-2.2s3.8,5,2.1,7.2-4.7,3.9-7,2.3-4-5-2.2-7.3ZM457.9,1404a5.6,5.6,0,0,1,7-2.4c2.7,1.4,3.7,5.2,1.8,7.3a5.1,5.1,0,0,1-7,2.4,5.5,5.5,0,0,1-1.8-7.3Zm-228-100.9a5.2,5.2,0,0,1,2.1,7.2,5.3,5.3,0,0,1-7.3,1.8,5.5,5.5,0,0,1-2.1-7.2,5.2,5.2,0,0,1,7.3-1.8Zm91.1-43.8a5.3,5.3,0,0,1,2.1,7.2,5.7,5.7,0,0,1-7,2.4c-2.8-1.4-3.8-5.2-2.1-7.2a5,5,0,0,1,7-2.4Zm-38.9,98.2c1.2-1.9,3.5-2,5.7-1.6-.9-1.9-.7-5,1.7-6.4a5.5,5.5,0,0,1,7.3,1.7,5.2,5.2,0,0,1-2,7.3c-1.9,1.1-3.5-.4-5-1.3,1.4,1.5,3,3.7,1.7,5.7a5.2,5.2,0,0,1-7.3,1.8,5.3,5.3,0,0,1-2.1-7.2ZM373,1208.4c2.7-1.6,5.9-1,7.4,1.6s.6,5.7-2.1,7.4a5.2,5.2,0,0,1-7.1-2,5,5,0,0,1,1.8-7Zm-113.8,45a5.6,5.6,0,0,1,7.5,2.2,5.5,5.5,0,0,1-2,7.1,5.4,5.4,0,0,1-7.3-1.6A5.6,5.6,0,0,1,259.2,1253.4Z" transform="translate(3.8 3)"/>
<g>
<path class="cls-11" d="M1283.4,1126.6v6.7a3.1,3.1,0,0,1-2.3-.3c-1.5-.7-2.1-2.9-1.5-4.7a4,4,0,0,1,3.8-1.7Zm0,24.3v3.7a3.4,3.4,0,0,1-4.2,1.4,3.8,3.8,0,0,1-1.8-4.5,3.3,3.3,0,0,1,4.5-1.7,3.3,3.3,0,0,1,1.5,1.1Zm-23.7-34.8-5.5,2a2.9,2.9,0,0,0,.8,2.7,3.3,3.3,0,0,0,4.7.6,3.4,3.4,0,0,0,.6-4.7l-.6-.6Zm-106,39.9-1,.4-4.6,1.7a3.8,3.8,0,0,0,3.7.6,4,4,0,0,0,1.9-2.7Zm-26.2,9.8-6,2.2a3,3,0,0,0,1.4,1,3.6,3.6,0,0,0,4.4-1.9,6.9,6.9,0,0,0,.2-1.3Zm-86,31.5-6,2.2.6.5a3.5,3.5,0,0,0,4.9-.9,2.9,2.9,0,0,0,.5-1.8Zm-83.6,29.8-5.2,1.8.4.3a3.5,3.5,0,0,0,4.7-1.8c0-.1.1-.2.1-.3Zm-71.3,24.5-6.1,2.1a3.2,3.2,0,0,0,4.7.2,3.7,3.7,0,0,0,1.4-2.3Zm-54.8,18-5.3,1.7a2.5,2.5,0,0,0,1.9.7,3.7,3.7,0,0,0,3.4-2.4Zm-10.3,3.3-2.2.7h.3a3.2,3.2,0,0,0,1.9-.7Zm-22.5,7-6,1.9,1,.7a3.4,3.4,0,0,0,4.7-1.3,2.8,2.8,0,0,0,.3-1.3Zm-46.6,13.7-4.4,1.2a2.9,2.9,0,0,0-.5,2,3.3,3.3,0,1,0,6.6-.5,3.2,3.2,0,0,0-1.7-2.7Zm78.6-5.3,6.1-1.3v-.7a3.5,3.5,0,0,0-3.2-3.6,3.6,3.6,0,0,0-3.7,3.4,3.5,3.5,0,0,0,.8,2.2Zm275-76.1,2-.6a3.6,3.6,0,0,0-2,.6Zm21.6-6.1,6.1-1.7a4.6,4.6,0,0,0-.7-.7,3.7,3.7,0,0,0-5,1.1,2.8,2.8,0,0,0-.4,1.3Zm17.4-4.9,6.4-1.8a3.4,3.4,0,0,0-1.2-1.2,3.7,3.7,0,0,0-4.7,1.1,4.1,4.1,0,0,0-.5,1.9Zm16.5-4.7,4-1.1a3.7,3.7,0,0,0-2.1-.1,3.1,3.1,0,0,0-1.9,1.2Zm51.9-14.8,2.4-.6h0a3.9,3.9,0,0,0-2.4.6Zm26.4-7.5,5.4-1.5a2.8,2.8,0,0,0,0-1.8,3.4,3.4,0,0,0-4.1-2.6,3.2,3.2,0,0,0-2.4,4.3,3.1,3.1,0,0,0,1.1,1.6Zm-313.2,69.3a3.6,3.6,0,0,1-.6,4.8c-1.2,1.2-3.3.9-4.8-.6a3.4,3.4,0,0,1,.6-4.7,3.6,3.6,0,0,1,4.8.5Zm151.9-54.3a3.3,3.3,0,0,1,.3-4.9,3.5,3.5,0,0,1,4.9.4,3.4,3.4,0,0,1-.7,4.8,3.2,3.2,0,0,1-4.5-.3Zm37.2,14.6a3.8,3.8,0,0,1-3.1,3.8,4,4,0,0,1-3.8-3.4,3.4,3.4,0,0,1,3.3-3.5c2.1,0,3.6,1.2,3.6,3.1Zm-182.8,52.3a3.4,3.4,0,0,1-4-2.5,3.1,3.1,0,0,1,2.3-4.2,3.5,3.5,0,0,1,1.7,6.7Zm140.7-60.9a3.1,3.1,0,0,1-3.9-2.5,3.5,3.5,0,0,1,2.6-4.1,3.2,3.2,0,0,1,3.9,2.5,3.4,3.4,0,0,1-2.6,4.1Zm26.5,7.3c-1.5-.7-2.1-2.9-1.5-4.7a3.8,3.8,0,0,1,4.9-1.3,3.5,3.5,0,0,1,1.4,4.4,3.7,3.7,0,0,1-4.8,1.6Zm75.2-21.4c-.4.7-1.4.4-2,.8s-.5,3.3-2.2,3.6a3.2,3.2,0,0,1-4-2.5,3.4,3.4,0,0,1,2.5-4.1c.2-.2-.4-.6-.2-.8a3.1,3.1,0,0,1,4.5-1.5,3,3,0,0,1,1.4,4.5Zm-141.4,30.5a3.4,3.4,0,0,1,1.5,4.5,3.5,3.5,0,0,1-4.5,1.6,3.3,3.3,0,0,1-1.4-4.6,3.1,3.1,0,0,1,4.4-1.5Zm-74,27.5a3.5,3.5,0,0,1-4.6,1.7,3.5,3.5,0,0,1,3.1-6.2c1.8,1,2.5,3,1.5,4.5Zm207.6-76.2a3.5,3.5,0,0,1,4.8-1.3,3.7,3.7,0,0,1,1.5,4.4,3.5,3.5,0,0,1-6.3-3.1Zm-37,9.5a3.6,3.6,0,0,1,2-4.4,3.5,3.5,0,0,1,2.7,6.4,4,4,0,0,1-4.7-2ZM994.9,1239a3.7,3.7,0,0,1-4.7-1.9,3.5,3.5,0,0,1,2-4.5,3.4,3.4,0,0,1,4.4,1.7,3.6,3.6,0,0,1-1.7,4.7Zm159.7-74.9a3.7,3.7,0,0,1,2-4.4,3.2,3.2,0,0,1,4.4,1.8,3.3,3.3,0,0,1-1.7,4.4,3.6,3.6,0,0,1-4.7-1.8Zm-15.4,31.6a3.8,3.8,0,0,1-4.3-2.5c-.2-.9.8-1.3,1.2-2a3.2,3.2,0,0,1-3.7-1.6,3.3,3.3,0,0,1,1.6-4.5,4,4,0,0,1,4.8,1.9c.2.9-.6,1.4-1.1,2.3a3.2,3.2,0,0,1,3.8,2.1,3.5,3.5,0,0,1-2.3,4.3Zm-25-.1a3.3,3.3,0,0,1-4.1-2.3c-.4-1.9.5-3.9,2.3-4.3a3.5,3.5,0,0,1,4.3,2.5,3.4,3.4,0,0,1-2.5,4.1Zm-204.5,52.3a3.6,3.6,0,0,1,4.7-1.9,3.3,3.3,0,0,1,1.6,4.4,3.1,3.1,0,0,1-4.3,1.8,3.4,3.4,0,0,1-2-4.3Zm-19.1,9.8a3,3,0,0,1-4.2,1.8,3.2,3.2,0,0,1-2-4.3,3.5,3.5,0,0,1,4.3-2,3.3,3.3,0,0,1,1.9,4.5Zm78.5-20.7a3.5,3.5,0,0,1-2.7-3.9,3.4,3.4,0,0,1,4.1-2.6c2,.4,3.2,2.2,2.5,3.9a3.1,3.1,0,0,1-3.9,2.6Zm175.9-56.9c-1.7.2-3.3-1.6-3.2-3.6a3.6,3.6,0,0,1,3.6-3.2,3.5,3.5,0,0,1,3.2,3.6,3.4,3.4,0,0,1-3.6,3.2Zm-180.8,66a3.6,3.6,0,0,0,3.5-3.2,3.5,3.5,0,0,0-6.9-.3,3.5,3.5,0,0,0,3.4,3.5Zm106.1-35a3.4,3.4,0,0,1-4.9,1,3.4,3.4,0,1,1,4.9-1Zm176.2-48.9a3.2,3.2,0,0,1-1-2.2,5.7,5.7,0,0,1,.4,2.5c.2-.2.4-.2.6-.3Zm-2.1,2.1a3.6,3.6,0,0,1-4.4-.8,3.6,3.6,0,0,1,.8-4.8,3.3,3.3,0,0,1,4.7.5v.2c.2-1.6,1.1-3.2,3.2-3.2a3.6,3.6,0,0,1,3.5,3.2,3.8,3.8,0,0,1-2.3,3.4,3.2,3.2,0,0,1,1.3,2,3.6,3.6,0,0,1-2.5,4.1,3.9,3.9,0,0,1-4.3-2.7,4,4,0,0,1,.1-1.9Zm-39.6,4.8a3,3,0,0,1,4.4-1.4,3.1,3.1,0,0,1,1.5,4.5c-.6,1.8-3,2.3-4.5,1.6a3.2,3.2,0,0,1-1.4-4.7Zm70.4-44.9a3.5,3.5,0,1,1-2.8,6.4,3.9,3.9,0,0,1-1.9-4.6,3.7,3.7,0,0,1,4.7-1.8Zm-55.2,21.3a3.4,3.4,0,0,1-4,2.6,3.4,3.4,0,0,1-2.6-4.1,3.4,3.4,0,0,1,3.9-2.5,3.5,3.5,0,0,1,2.7,4Zm31.1-2.8a3.4,3.4,0,0,1-4.7-.6,3.2,3.2,0,0,1,.7-4.8,3.2,3.2,0,0,1,4.6.5A3.5,3.5,0,0,1,1251.1,1142.7Z" transform="translate(3.8 3)"/>
<path class="cls-11" d="M1283.4,1127.1v6.7h-1.5a3.7,3.7,0,0,1-2.5-4.2,3.5,3.5,0,0,1,4-2.6Zm-51,49.2,5.7-1.6-.9-.5a.4.4,0,0,1-.5.1c1.1-.6,2.6-1,2.7-2.3a3.5,3.5,0,0,0-3.4-3.5,3.7,3.7,0,0,0-3.6,3.3,3.6,3.6,0,0,0,2.8,3c-.9.2-2.3-.1-2.5.9l-.3.6Zm-49-14.1a3.5,3.5,0,0,1,3.5-3.5,3.2,3.2,0,0,1,3.4,3.3,3.6,3.6,0,0,1-3,3.5,3.8,3.8,0,0,1-3.9-3.3Zm80.7-38.1a3.4,3.4,0,0,1-3.5-3.2,3.9,3.9,0,0,1,3.1-3.8,3.4,3.4,0,0,1,3.5,3.3,3.2,3.2,0,0,1-3.1,3.7Zm-43.3,33a3.6,3.6,0,0,1-3.1-3.8,3.7,3.7,0,0,1,3.8-3.1,3.9,3.9,0,0,1,3.1,3.9c-.4,1.8-2.1,3.3-3.8,3Zm8-11.6a3.5,3.5,0,0,1-4.4-2.5,3.3,3.3,0,0,1,2.6-4,2.9,2.9,0,0,1,4,2.2,3.8,3.8,0,0,1-2.2,4.3Zm43.1-9.5a3.1,3.1,0,0,1-4-2.3,3.4,3.4,0,1,1,6.6-1.8,3.4,3.4,0,0,1-2.6,4.1Zm-95.5,24.9c-1.1-.1-1.5-1.3-2.2-2.2-.6,1-2.1.9-3.2.8s.2.3.1.5a3.5,3.5,0,0,1-4.4,1.9c-.7-.1-.4-1.1-.9-1.7a3.2,3.2,0,0,1-3.7-1.5,3.5,3.5,0,0,1,1.7-4.6,4.2,4.2,0,0,1,4.7,1.9v-.2c.2-.2-.4-.6-.3-.8a3.7,3.7,0,0,1,5.1-1.1c.8.5.5,1.7.6,2.8.4-1.4,1.1-2.6,2.4-2.8s3.6,1.9,3.3,3.6A3.2,3.2,0,0,1,1176.4,1160.9Z" transform="translate(3.8 3)"/>
<path class="cls-8" d="M759.4,1075.1l-4.5.3a2.3,2.3,0,0,0,1.5,2.8,2.2,2.2,0,0,0,2.9-1.5,2.9,2.9,0,0,0,.1-1.6Zm-57.7,4.3-2.4.3a2.6,2.6,0,0,0,2.4-.3Zm-11.6,1.1-4.7.5a2.4,2.4,0,0,0,2.1,2.3,2.4,2.4,0,0,0,2.6-2.1,1.6,1.6,0,0,0,0-.7Zm-13.3,1.4-2.3.3a2.3,2.3,0,0,0-1,1.6,2.3,2.3,0,1,0,4.6.5,2.2,2.2,0,0,0-1.3-2.4Zm-15.3,1.7-3.9.5a2.6,2.6,0,0,0,.9,3.3,2.6,2.6,0,0,0,3.4-1,2.6,2.6,0,0,0-.4-2.8Zm-87.4,12.5-3.1.6a2.4,2.4,0,0,0,2,.3,2.4,2.4,0,0,0,1.1-.9Zm-190.7,44.7-2.3.7-.4.5a2.4,2.4,0,0,0,1,3.2,2.3,2.3,0,0,0,3.1-.9,2.4,2.4,0,0,0-1-3.3l-.4-.2Zm172.3-40.9-4.4,1.1a3.4,3.4,0,0,0,.9.8,2.5,2.5,0,0,0,3.2-1,3.2,3.2,0,0,0,.3-.9Zm-61.9,14.9-4.4,1,.5.4a2.5,2.5,0,0,0,3.4-.2,3.1,3.1,0,0,0,.5-1.2Zm-60.1,13.8-3.8.8.3.2a2.3,2.3,0,0,0,3.4-.8v-.2Zm-92.5,31.9,4.3-.4v-.4a2.4,2.4,0,1,0-4.8-.7,2.6,2.6,0,0,0,.4,1.5Zm195.9-30.3,1.4-.2a2.2,2.2,0,0,0-1.4.2Zm15.4-2.4,4.3-.7a1,1,0,0,0-.4-.5,2.4,2.4,0,0,0-3.5.3,1.5,1.5,0,0,0-.4.9Zm12.4-2,4.5-.7a1.6,1.6,0,0,0-.7-.9,2.4,2.4,0,0,0-3.3.3,2.9,2.9,0,0,0-.5,1.3Zm11.7-1.9,2.9-.5a2.2,2.2,0,0,0-1.4-.2,2.6,2.6,0,0,0-1.5.7Zm37.1-6,1.7-.3h0a2.5,2.5,0,0,0-1.7.3Zm18.8-3.1,3.9-.6a2.5,2.5,0,0,0,.1-1.2,2.4,2.4,0,0,0-2.7-2.2,2.2,2.2,0,0,0-1.9,2.8,1.7,1.7,0,0,0,.6,1.2Zm42.3-6.9,4.2-.7a3.3,3.3,0,0,0-.8-1.8c.9.3,1.5-.5,2-1.1s1,1.4,1.8,1.4a2.4,2.4,0,0,0,2.1-2.6c0-.4-.4-.3-.5-.5a2.3,2.3,0,1,0,3.8-2.6,2.3,2.3,0,0,0-3.2-.7,2.4,2.4,0,0,0-.8,3.2c-.6-.8-.8-1.6-1.8-1.4s-.7.8-1.1,1.4-.2-1.3-.9-1.6a2.4,2.4,0,0,0-3.1,1.4c-.3.9.4,1.6,1.3,2.3a2.2,2.2,0,0,0-3,.9,2.5,2.5,0,0,0,0,2.4Zm16.4-2.7,4.3-.8a1.9,1.9,0,0,0-.9-1.5l-.5-.3a2.5,2.5,0,0,0,1.4-2.7,2.4,2.4,0,1,0-3.2,2.6,2.5,2.5,0,0,0-1,.8,2.1,2.1,0,0,0-.1,1.9Zm36.2-6.2,5.9-.8a3.1,3.1,0,0,0-.9-1.4,2.6,2.6,0,0,0-3,.3h0c-.1.1-.3-.1-.3,0s0,.3,0,.3a4.2,4.2,0,0,0-1.7,1.5Zm6.9-.9,3.9-.5c-.1-.2-.3-.3-.6-.5a2.3,2.3,0,0,0-3.2.7c0,.1-.1.2-.1.3Zm-323.5,39.3a2.5,2.5,0,0,1-.8,3.2,2.4,2.4,0,0,1-3.3-.7,2.4,2.4,0,0,1,.8-3.3,2.5,2.5,0,0,1,3.3.8ZM520,1112.2a2.3,2.3,0,0,1,.6-3.4,2.3,2.3,0,1,1-.6,3.4Zm24.5,13a2.8,2.8,0,0,1-2.5,2.4,2.7,2.7,0,0,1-2.3-2.7,2.3,2.3,0,0,1,2.5-2.1,2.2,2.2,0,0,1,2.3,2.4Zm-130.4,21.3a2.2,2.2,0,0,1-2.5-2,2.1,2.1,0,0,1,1.9-2.7,2.4,2.4,0,0,1,2.7,2.1,2.3,2.3,0,0,1-2.1,2.6Zm102-30.6a2.2,2.2,0,0,1-2.5-2,2.4,2.4,0,0,1,2.1-2.6,2.1,2.1,0,0,1,2.5,2,2.3,2.3,0,0,1-2.1,2.6Zm17.7,7.1a2.5,2.5,0,0,1-.6-3.3,2.5,2.5,0,0,1,3.4-.5,2.4,2.4,0,1,1-2.8,3.8Zm53.6-8.6c-.3.5-.9.1-1.4.4a2.2,2.2,0,0,1-1.8,2.3,2.2,2.2,0,0,1-2.6-2.1,2.4,2.4,0,0,1,2.1-2.6c.1-.1-.3-.4-.1-.6a2.2,2.2,0,0,1,3.2-.7,2.2,2.2,0,0,1,.6,3.3Zm-100,9.6a2.5,2.5,0,0,1,.7,3.2,2.6,2.6,0,0,1-3.3.8,2.3,2.3,0,0,1-.6-3.3,2.2,2.2,0,0,1,3.2-.7Zm-53.3,13a2.4,2.4,0,0,1-3.3.8,2.2,2.2,0,0,1-.6-3.3,2.3,2.3,0,0,1,3.9,2.5Zm149.4-35.8a2.6,2.6,0,0,1,3.4-.6,2.7,2.7,0,0,1,.7,3.3,2.5,2.5,0,0,1-3.4.5,2.5,2.5,0,0,1-.7-3.2Zm-26.3,3.6a2.5,2.5,0,0,1,1.8-2.9,2.3,2.3,0,0,1,2.9,1.6,2.4,2.4,0,0,1-1.6,3,2.7,2.7,0,0,1-3.1-1.7Zm-99,34.9a2.4,2.4,0,0,1-3-1.6,2.4,2.4,0,0,1,1.7-2.9,2.3,2.3,0,0,1,2.9,1.5,2.4,2.4,0,0,1-1.6,3ZM574.5,1101a2.5,2.5,0,0,1,1.8-2.9,2.3,2.3,0,0,1,1.3,4.5,2.6,2.6,0,0,1-3.1-1.6ZM755,1083.3a2.4,2.4,0,0,1-1.7-2.8,2.3,2.3,0,0,1,2.8-1.9,2.4,2.4,0,0,1,1.8,2.9,2.4,2.4,0,0,1-2.9,1.8Zm-193.6,38.2a2.7,2.7,0,0,1-2.9-2c0-.7.7-.9,1.1-1.3a2.3,2.3,0,0,1-1-4.4,2.6,2.6,0,0,1,3.1,1.7c.1.7-.4.9-.9,1.5a2.1,2.1,0,0,1,2.4,1.8,2.3,2.3,0,0,1-1.8,2.7Zm-17.3-2.1a2.2,2.2,0,0,1-2.6-1.9,2.4,2.4,0,0,1,1.9-2.8,2.6,2.6,0,0,1,2.8,2.1,2.4,2.4,0,0,1-2.1,2.6Zm175.3-23.9a2.2,2.2,0,0,1-2.6-1.9,2.8,2.8,0,0,1,1.9-2.8,2.7,2.7,0,0,1,2.8,2.2,2.2,2.2,0,0,1-2.1,2.5Zm-4.2-6.2a2.3,2.3,0,0,1-2.7-2,2.4,2.4,0,0,1,4.7-.8,2.6,2.6,0,0,1-2,2.8ZM398.8,1139a2.4,2.4,0,0,1,3.3-.9,2.3,2.3,0,0,1,.8,3.2,2.2,2.2,0,0,1-3.1.9,2.4,2.4,0,0,1-1-3.2Zm306.4-49.3c.9.3,1.2,1.4,1.3,2.5s.5-.7.7-.6a2.4,2.4,0,0,1,1.8,2.9,2.4,2.4,0,0,1-2.8,1.7,2.1,2.1,0,0,1-1.5-2.5c-.4,0-.5.6-1,.5a2.6,2.6,0,0,1-1.7-3.2,2.7,2.7,0,0,1,3.2-1.3Zm-264.6,46.6a2.4,2.4,0,0,1-1.5-2.9,2.3,2.3,0,0,1,3-1.5,2.3,2.3,0,0,1-1.5,4.4Zm313.9-47.6a2.4,2.4,0,0,1-3.2-.8,2.4,2.4,0,0,1,.8-3.2,2.5,2.5,0,0,1,3.3.7,2.6,2.6,0,0,1-.9,3.3Zm-187.9,22.5a2.2,2.2,0,0,1-1.9-2.7,2.5,2.5,0,0,1,2.7-2,2.7,2.7,0,0,1,2,2.8,2.4,2.4,0,0,1-2.8,1.9Zm-130.1,31a2.5,2.5,0,0,0,2.7-2,2.4,2.4,0,0,0-4.8-.7,2.4,2.4,0,0,0,2.1,2.7Zm324.9-50.7a2.2,2.2,0,0,1-3.3.5,2.3,2.3,0,0,1-.3-3.4,2.3,2.3,0,0,1,3.3-.3,2.2,2.2,0,0,1,.3,3.2Zm-248.9,35.1a2.3,2.3,0,0,1-3.4.3,2.4,2.4,0,0,1,2.9-3.7,2.4,2.4,0,0,1,.5,3.4Zm125.6-19.5a2.7,2.7,0,0,1-.6-1.6,3.3,3.3,0,0,1,.1,1.7Zm-1.6,1.2a2.4,2.4,0,0,1-3-.8,2.6,2.6,0,0,1,.9-3.3,2.3,2.3,0,0,1,3.2.7h-.1a2.3,2.3,0,0,1,2.5-1.9,2.3,2.3,0,0,1,.3,4.6,2.8,2.8,0,0,1,.8,1.5,2.6,2.6,0,0,1-2.1,2.6,2.7,2.7,0,0,1-2.8-2.2,3.1,3.1,0,0,1,.3-1.3Zm-27.8.2a2.1,2.1,0,0,1,3.2-.7,2.3,2.3,0,0,1,.7,3.3,2.3,2.3,0,0,1-3.2.7,2.3,2.3,0,0,1-.7-3.3Zm59.1-19.4a2.5,2.5,0,1,1-.9-3.4,2.7,2.7,0,0,1,.9,3.4Zm-6.6,16.3a2.5,2.5,0,0,1-1-3.2,2.4,2.4,0,0,1,3.3-.8,2.2,2.2,0,0,1,.9,3,2.3,2.3,0,0,1-3.2,1Zm-40.1-12a2.3,2.3,0,0,1-2.9,1.5,2.4,2.4,0,0,1-1.5-3,2.2,2.2,0,0,1,2.9-1.4,2.3,2.3,0,0,1,1.5,2.9Zm63.4.2a2.3,2.3,0,0,1-3.2-.7,2.5,2.5,0,0,1,.8-3.3,2.4,2.4,0,0,1,3.3.8,2.3,2.3,0,0,1-.9,3.2Zm-41.7.4a2.4,2.4,0,0,1-3.2-.8,2.3,2.3,0,0,1,.9-3.3,2.4,2.4,0,0,1,3.2.8A2.5,2.5,0,0,1,642.8,1094Z" transform="translate(3.8 3)"/>
<path class="cls-8" d="M893.3,1082.1l-1.7-1a2,2,0,0,0,1.7,1ZM864,1071.7h-2.8a1.8,1.8,0,0,0,1,.4,2.3,2.3,0,0,0,1.8-.5Zm-20.6.3h-3.3a2.2,2.2,0,0,0,2.3.6,2.4,2.4,0,0,0,1-.6Zm-13,.2h-3.2l-.3.4a2.1,2.1,0,0,0,.7,3.2c.7.6,2,.2,2.9-.6a2.4,2.4,0,0,0,2.6,1.9,2.3,2.3,0,0,0,2-2.5,2.4,2.4,0,0,0-2.7-2.1c-1,.1-1.5,1.1-1.7,2.1a2.1,2.1,0,0,0-.3-2.5Zm-15.1.4-4.8.2a2.7,2.7,0,0,0,1.8,2.7,2.6,2.6,0,0,0,2.9-1.9,3.4,3.4,0,0,0,.1-1Zm-101.6,5.8-4.5.4v.2a2.2,2.2,0,0,0,2,2.6,2.3,2.3,0,0,0,2.7-1.9,1.9,1.9,0,0,0-.2-1.3Zm-131.4,16.4h-.9a2.5,2.5,0,0,0-1.3,3,2.5,2.5,0,0,0,2.5,1.3c.3.4,0,1.1.4,1.3a2.5,2.5,0,0,0,3.2-1c.1-.1-.1-.3,0-.4s1.8.4,2.3-.3.6,1.6,1.3,1.7a2.2,2.2,0,0,0,2.6-2,2.5,2.5,0,0,0-2-2.8c-.9,0-1.5.8-1.9,1.7,0-.7.3-1.5-.2-2a2.6,2.6,0,0,0-3.6.4c-.1.1.3.4.1.6h0a3,3,0,0,0-2.5-1.7Zm44.9,20.9,4-.7-.5-.4a.3.3,0,0,1-.4,0c.9-.3,1.9-.5,2.1-1.4a2.4,2.4,0,0,0-2.1-2.6,2.2,2.2,0,1,0-1,4.2c-.7.1-1.6-.2-1.8.5l-.3.4Zm65.3-10.8,4.2-.7a2.3,2.3,0,0,0-1.4-.9,2.5,2.5,0,0,0-2.8,1.6ZM728,1099l4.3-.7a2,2,0,0,0-1.4-1.3,2.4,2.4,0,0,0-3,1.6c-.1.1,0,.2.1.4Zm8.4-1.2,5.6-.7a2.2,2.2,0,0,0-2-2.6c-.3-.1-.4.4-.7.5s.2-.4.1-.5a2.4,2.4,0,0,0-3.3-.8,2.5,2.5,0,0,0-.8,3.3,1.5,1.5,0,0,0,1.1.8Zm109.8-1.9,3.9.3a2.1,2.1,0,0,0-2.2-1.2,2.6,2.6,0,0,0-1.7.9Zm9.9.8,4.7.3a2.1,2.1,0,0,0-.3-1.5,2.4,2.4,0,0,0-4.4,1.2Zm9.5.7,2.7.3a2.4,2.4,0,0,0,1.1-1.9,2.2,2.2,0,0,0-2.1-2.5,2.4,2.4,0,0,0-2.6,2.2,2.2,2.2,0,0,0,.9,1.9Zm8,.8,4.3.4a2.4,2.4,0,0,0-2.5-3.6c-1.3.1-2,1.5-1.9,2.8s.1.2.1.4Zm7.3.7,1.8.2a3.3,3.3,0,0,0,1.5-1.1,2.4,2.4,0,0,0-.9-3.2,2.5,2.5,0,0,0-3.4.8,2.6,2.6,0,0,0,1,3.3Zm15.3,1.6,2.6.3a2.6,2.6,0,0,0,1.3-1.9c.2-.5-.7-.7-.9-1.1s.3,0,.5-.2a2.4,2.4,0,0,0-1-3.2,2.3,2.3,0,0,0-3.2,1c-.4.8.2,1.6.8,2.4s-.9.3-.9.7a2.2,2.2,0,0,0,.8,2ZM594.5,1102a2.5,2.5,0,0,1,2.7-2.2,2.3,2.3,0,0,1,2.1,2.6,2.4,2.4,0,0,1-2.4,2.2,2.6,2.6,0,0,1-2.4-2.6Zm98.8,1.2a2.3,2.3,0,0,1-2.5-2,2.4,2.4,0,0,1,2.1-2.6,2.3,2.3,0,0,1,2.5,2,2.4,2.4,0,0,1-2.1,2.6Zm10-5.4a2.3,2.3,0,0,1-3.2.7,2.1,2.1,0,0,1-.7-3.2,2.2,2.2,0,0,1,3.3-.8,2.3,2.3,0,0,1,.6,3.3ZM825,1087a2.5,2.5,0,0,1-3.4.5,2.6,2.6,0,0,1-.6-3.3,2.5,2.5,0,0,1,3.2-.7,2.7,2.7,0,0,1,.8,3.5Zm-25.6-5.8h-.1c.3.1.1.4.2.5s-.3-.4-.1-.6Zm3.2-.7a2.4,2.4,0,0,1,.7,3.3,2.5,2.5,0,0,1-3.2.7c-.6.7-1.5,1.4-2.4,1.1a2.3,2.3,0,0,1-1.5-3c.2-1,1.2-1.1,2.3-1.1s-.8.5-1.2.2a2.5,2.5,0,0,1-.6-3.3,2.5,2.5,0,0,1,3.2-.7,2.4,2.4,0,0,1,.7,3.2c.8-.3,1.3-.9,2-.4Zm112.9,15a2.5,2.5,0,0,1,2.9,1.6,2.3,2.3,0,1,1-4.4,1.5,2.5,2.5,0,0,1,1.5-3.1Zm-179.1-5.4a2.2,2.2,0,0,1-2.9-1.6,2.1,2.1,0,0,1,1.6-2.8,2.3,2.3,0,0,1,3,1.5,2.4,2.4,0,0,1-1.7,2.9Zm131.8-9.4a2.5,2.5,0,0,1,2.9-1.8,2.4,2.4,0,0,1,1.8,3,2.5,2.5,0,0,1-2.9,1.7,2.7,2.7,0,0,1-1.8-2.9Zm-84,7.7a2.5,2.5,0,0,1-1.8-2.9,2.6,2.6,0,0,1,2.9-1.8c1.4.5,2.2,1.7,1.8,2.9a2.5,2.5,0,0,1-2.9,1.8Zm-163.5,13.1a2.4,2.4,0,0,1,1.1-4.7,2.4,2.4,0,1,1-1.1,4.7Zm6.5-7.3a2.6,2.6,0,0,1-2.8-2.1,2.3,2.3,0,0,1,2.1-2.7,2.2,2.2,0,0,1,2.6,2,2.8,2.8,0,0,1-1.9,2.8Zm30.5-3.1a2.1,2.1,0,0,1-2.5-2,2.4,2.4,0,0,1,1.8-2.7,2.5,2.5,0,0,1,2.8,2.1,2.3,2.3,0,0,1-2.1,2.6Zm194.4.8c-.4-.2-.2-.9-.4-1.4a2.1,2.1,0,0,1-2.7-1.4,2.2,2.2,0,0,1,1.7-2.8,2.3,2.3,0,0,1,2.9,1.6h-.1c.3-.1.5-.3.8-.2a2.2,2.2,0,0,1,1,3.1,2.3,2.3,0,0,1-3.2,1Zm-188.7-4.6a2.4,2.4,0,0,1,4.5,1.5,2.4,2.4,0,1,1-4.5-1.5Zm106.3,1.5a2.3,2.3,0,0,1-1.6-2.9,2.4,2.4,0,1,1,4.5,1.4,2.2,2.2,0,0,1-2.9,1.5Zm-40.9-1.9a2.4,2.4,0,0,1-3.2-.8,2.3,2.3,0,1,1,3.9-2.6,2.3,2.3,0,0,1-.7,3.4Zm-53.1,2.2a2.5,2.5,0,0,1,.6-4.9,2.4,2.4,0,0,1,1.9,2.8,2.3,2.3,0,0,1-2.5,2.1Zm107.7-8.9a2.3,2.3,0,1,1-3.6-2.9,2.2,2.2,0,0,1,3.2-.4,2.3,2.3,0,0,1,.4,3.3Zm-96.3,8.3a2.3,2.3,0,0,1-.4-3.3,2.2,2.2,0,0,1,3.3-.4,2.4,2.4,0,1,1-2.9,3.7Z" transform="translate(3.8 3)"/>
<g>
<path class="cls-11" d="M1277.5,953.7l-6.2,1.1a3.1,3.1,0,0,0,3.7,1.9,3.3,3.3,0,0,0,2.5-3Zm-66.6,14.9-1.1.2a3.5,3.5,0,0,0-1.6,2.4,3.2,3.2,0,0,0,2.5,3.7c.3,0,.3-.5.7-.7s.8,2.3,1.9,2.3a3.6,3.6,0,0,0,3.7-2.8,3.3,3.3,0,0,0-3.1-3.5c-.2-.1-.3.5-.6.4s-.4-1.6-1.4-1.9a1.7,1.7,0,0,0-1-.1Zm-98.2,31.1-5.2,1.8a2.7,2.7,0,0,0,.7,2.5,3.2,3.2,0,0,0,4.5.6,3.3,3.3,0,0,0,.5-4.4c-.2-.2-.3-.4-.5-.5Zm-99.5,37.4-.9.3-4.3,1.6a3.1,3.1,0,0,0,5.2-1.9Zm-24.5,9.1-5.7,2.1a3,3,0,0,0,1.3.9,3.4,3.4,0,0,0,4.2-1.8,5,5,0,0,0,.2-1.2ZM908,1075.8l-5.7,2a1.8,1.8,0,0,0,.7.5,3.4,3.4,0,0,0,4.6-.8,3.3,3.3,0,0,0,.4-1.7Zm-78.4,27.9-4.9,1.8.4.2a3.2,3.2,0,0,0,4.4-1.6.8.8,0,0,1,.1-.4Zm-66.9,23-5.7,1.9a3,3,0,0,0,4.4.3,3.4,3.4,0,0,0,1.3-2.2Zm-51.4,16.9-5,1.6a2.9,2.9,0,0,0,1.8.7,3.3,3.3,0,0,0,3.2-2.3Zm-9.6,3.1-2.1.7h.2a4,4,0,0,0,1.9-.7Zm-21.1,6.6L675,1155a2.7,2.7,0,0,0,.8.7,3.3,3.3,0,0,0,4.5-1.2,5.3,5.3,0,0,0,.3-1.2Zm-43.7,12.8-4.2,1.1a4.5,4.5,0,0,0-.5,1.9,3.1,3.1,0,0,0,3.3,3,3.3,3.3,0,0,0,1.4-6Zm73.6-5,5.7-1.2a1.3,1.3,0,0,0,.1-.6,3.3,3.3,0,0,0-3-3.4,3.4,3.4,0,0,0-3.5,3.2,3.7,3.7,0,0,0,.7,2Zm258-71.4,1.9-.5a4.1,4.1,0,0,0-1.9.5Zm20.2-5.6,5.8-1.7-.7-.5a3.5,3.5,0,0,0-4.7.9,5,5,0,0,0-.4,1.3Zm16.4-4.7,5.9-1.7a2.2,2.2,0,0,0-1.1-1,3.1,3.1,0,0,0-4.3,1,2.6,2.6,0,0,0-.5,1.7Zm15.4-4.4,3.8-1a4.4,4.4,0,0,0-2-.1,4.2,4.2,0,0,0-1.8,1.1Zm48.8-13.8,2.2-.6h0a3.2,3.2,0,0,0-2.2.6Zm24.7-7.1,5.1-1.4a2.5,2.5,0,0,0,0-1.7,3.2,3.2,0,0,0-3.9-2.4,3,3,0,0,0-2.2,4,2.7,2.7,0,0,0,1,1.5Zm55.6-15.9,5.6-1.6a4.2,4.2,0,0,0-1.5-2.3c1.4.3,2-.8,2.7-1.8.8.8,1.4,1.7,2.6,1.6a3.2,3.2,0,0,0,2.4-3.8c-.1-.5-.6-.3-.8-.5a3.5,3.5,0,0,0,4.1.5,3.2,3.2,0,1,0-3.8-5.1,3.3,3.3,0,0,0-.6,4.4c-.9-1-1.3-2-2.6-1.6s-.8,1.3-1.3,2.1-.4-1.8-1.4-2a3.4,3.4,0,0,0-4,2.3c-.1,1.3.8,2.2,2.1,3a2.9,2.9,0,0,0-3.9,1.6,3.6,3.6,0,0,0,.4,3.2Zm21.7-6.2,5.6-1.7a3.7,3.7,0,0,0-1.4-1.9l-.8-.4a3.2,3.2,0,0,0,1.4-3.7c-.4-1.6-2.3-2.8-3.8-2.1a3.1,3.1,0,0,0-2.4,3.8,3.7,3.7,0,0,0,2.4,2.3,2.3,2.3,0,0,0-1.2,1.2,2.1,2.1,0,0,0,.2,2.5Zm47.6-13.9,7.7-2.1a3.5,3.5,0,0,0-1.5-1.7c-1.1-.7-2.9-.2-3.9.9h-.1c-.1.2-.3.1-.4.2s.2.3.1.4a3.6,3.6,0,0,0-1.9,2.3Zm8.9-2.4,5.3-1.3-.9-.5a3.1,3.1,0,0,0-4.2,1.5c0,.1-.1.2-.2.3ZM800.2,1119.1a3.3,3.3,0,0,1-.5,4.5c-1.2,1.2-3.2.9-4.6-.5a3.3,3.3,0,0,1,.6-4.5,3.4,3.4,0,0,1,4.5.5Zm142.5-50.9a3.1,3.1,0,0,1,.3-4.6,3.2,3.2,0,0,1,4.6.4,3.2,3.2,0,0,1-.6,4.4,3,3,0,0,1-4.3-.2Zm34.9,13.7a3.5,3.5,0,0,1-2.9,3.5,3.7,3.7,0,0,1-3.6-3.2,3.2,3.2,0,0,1,3.1-3.2c2,0,3.3,1.1,3.4,2.9Zm-171.5,49a3.2,3.2,0,0,1-3.7-2.3,3,3,0,0,1,2.2-4,3.3,3.3,0,0,1,3.9,2.5,3.2,3.2,0,0,1-2.4,3.8Zm132-57.1a3,3,0,0,1-3.7-2.3,3.2,3.2,0,0,1,2.5-3.8,2.8,2.8,0,0,1,3.6,2.3,3.1,3.1,0,0,1-2.4,3.8Zm24.8,6.8c-1.4-.6-1.9-2.7-1.3-4.3a3.3,3.3,0,1,1,1.3,4.3Zm70.6-20c-.4.7-1.3.4-1.8.8a3.2,3.2,0,0,1-2.1,3.4,3.2,3.2,0,0,1-3.8-2.4,3,3,0,0,1,2.4-3.8c.1-.3-.4-.6-.3-.8a3.1,3.1,0,1,1,5.6,2.8Zm-132.6,28.6a3.2,3.2,0,0,1,1.4,4.2c-1,1.6-2.8,2.3-4.2,1.5a3.1,3.1,0,0,1-1.4-4.3,2.9,2.9,0,0,1,4.2-1.4ZM831.5,1115a3.2,3.2,0,0,1-4.3,1.6,3.2,3.2,0,1,1,4.3-1.6Zm194.6-71.5a3.6,3.6,0,0,1,4.6-1.2,3.1,3.1,0,1,1-3.1,5.4,3.4,3.4,0,0,1-1.5-4.2Zm-34.6,8.9a3.4,3.4,0,0,1,1.9-4.1,3.1,3.1,0,0,1,4.1,1.7,3.2,3.2,0,0,1-1.6,4.3,3.6,3.6,0,0,1-4.4-1.9Zm-127.2,62.5a3.4,3.4,0,0,1-4.4-1.8,3.3,3.3,0,0,1,6-2.6,3.4,3.4,0,0,1-1.6,4.4Zm149.8-70.3a3.5,3.5,0,0,1,1.9-4.1,3.2,3.2,0,0,1,2.5,5.8,3.3,3.3,0,0,1-4.4-1.7Zm248.4-83.3a3.5,3.5,0,0,1-3.6,2.9,3.6,3.6,0,0,1-2.9-3.6,3.3,3.3,0,0,1,3.6-2.8,3.2,3.2,0,0,1,2.9,3.5Zm-9.2,31.4a3.2,3.2,0,0,1-2.7-3.5,3.3,3.3,0,0,1,3.5-3.1,3.4,3.4,0,0,1,2.8,3.7,3.3,3.3,0,0,1-3.6,2.9Zm-253.6,81.6a3.5,3.5,0,0,1-4.1-2.3c-.2-.9.7-1.3,1.1-1.9a3,3,0,0,1-1.9-5.7,3.5,3.5,0,0,1,4.4,1.7c.2.9-.5,1.3-1,2.2a2.9,2.9,0,0,1,3.6,2,3.3,3.3,0,0,1-2.1,4Zm-23.5-.1a3,3,0,0,1-3.8-2.2,3.2,3.2,0,0,1,2.1-4,3.5,3.5,0,0,1,4.1,2.3,3.2,3.2,0,0,1-2.4,3.9Zm231.3-59.5a3.1,3.1,0,0,1-3.7-2.2,3.5,3.5,0,0,1,2-4,3.4,3.4,0,0,1,4.1,2.4,3.2,3.2,0,0,1-2.4,3.8Zm-6.6-7.8a3.1,3.1,0,0,1-4-2.3,3.2,3.2,0,0,1,2.4-3.8,3.1,3.1,0,0,1,3.8,2.1,3.4,3.4,0,0,1-2.2,4ZM784.4,1123.2a3.3,3.3,0,0,1,4.4-1.7,3.1,3.1,0,0,1,1.5,4.1,2.9,2.9,0,0,1-4,1.7,3.1,3.1,0,0,1-1.9-4.1Zm-17.9,9.3a3.1,3.1,0,0,1-5.8-2.4,3.2,3.2,0,0,1,4-1.8,3.1,3.1,0,0,1,1.8,4.2ZM1187.6,1009c1.2.3,1.8,1.7,2.1,3.1.2-.3.5-.9.8-.8a3.3,3.3,0,0,1,2.9,3.6,3.2,3.2,0,0,1-3.5,2.7,3.1,3.1,0,0,1-2.5-3.1c-.4,0-.5.9-1.2.7a3.3,3.3,0,0,1-2.7-3.9,3.5,3.5,0,0,1,4.1-2.3ZM840.1,1113a3.3,3.3,0,0,1-2.5-3.7,3.2,3.2,0,0,1,3.8-2.4,2.9,2.9,0,0,1,2.4,3.7,2.9,2.9,0,0,1-3.7,2.4ZM1258,983.2a3,3,0,0,0-2.2-3.9,3.2,3.2,0,0,0-1.4,6.3,2.9,2.9,0,0,0,3.6-2.4Zm-4.5,16.8a3.2,3.2,0,1,1,.7-4.6,3.6,3.6,0,0,1-.7,4.6Zm-248.4,59.6c-1.6.2-3.1-1.5-3-3.3a3.4,3.4,0,0,1,3.3-3.1,3.5,3.5,0,0,1,3.1,3.4,3.2,3.2,0,0,1-3.4,3Zm-169.6,62a3.4,3.4,0,0,0,3.3-3.1,3.3,3.3,0,0,0-6.5-.2,3.3,3.3,0,0,0,3.2,3.3ZM1217.7,980a3.2,3.2,0,0,1,3.2,3.3,3.4,3.4,0,0,1-3.4,3.1c-1.1-.2-1.1-1.1-1.7-2.1s.4.6.2.9-2,.8-3.1.9.7.4.6.7a3.3,3.3,0,1,1-6.4-1.5c.3-1.6,1.8-2.3,3.5-2.1-.1-.4-.6-.7-.4-1.1s.8,0,1.2-.3c-1.2-.4-2.2-.5-2.6-1.5a3.1,3.1,0,0,1,2.3-3.8,3,3,0,0,1,3.8,2.2c.2.9-.7,1.7-1.2,2.5s.7-.5.9-.4.1,1.1.5,1.6c.4-1.2,1.3-2.5,2.6-2.4Zm45.4,22.7a3,3,0,0,1-4.3,1.1,3,3,0,0,1-1-4.4,3.1,3.1,0,0,1,4.4-1,2.9,2.9,0,0,1,.9,4.3Zm-328.1,86a3.2,3.2,0,0,1-4.6,1,3.2,3.2,0,0,1-.9-4.4,3.1,3.1,0,0,1,4.2-1,3.3,3.3,0,0,1,1.3,4.4Zm165.3-45.9a2.6,2.6,0,0,1-1-2,4.9,4.9,0,0,1,.4,2.3l.6-.3Zm-2,2a3.2,3.2,0,0,1-4.1-.7,3.5,3.5,0,0,1,.7-4.6,3.3,3.3,0,0,1,4.4.5v.2c.2-1.5,1.1-3,3-2.9a3.1,3.1,0,0,1,3.3,3,3.4,3.4,0,0,1-2.1,3.1,3.5,3.5,0,0,1,1.2,1.9,3.2,3.2,0,0,1-2.4,3.8,3.6,3.6,0,0,1-4-2.5,3.7,3.7,0,0,1,.1-1.8Zm93.8-64.2a3.5,3.5,0,0,1-2.9,3.4h-1a2.7,2.7,0,0,1,.8,2.6c.1,1.8-1.8,3-3.5,2.7a2.9,2.9,0,0,1-2.7-3.3,3,3,0,0,1,3.7-2.9h.2a5.5,5.5,0,0,1-1.1-2.3,3.1,3.1,0,0,1,3.1-3.2,3,3,0,0,1,3.4,3Zm-130.9,68.7a2.8,2.8,0,0,1,4.1-1.3,2.9,2.9,0,0,1,1.4,4.3c-.6,1.6-2.8,2.1-4.2,1.4a3,3,0,0,1-1.3-4.4Zm76.1-35.2a3.6,3.6,0,0,1-4.6,1.4,3.6,3.6,0,0,1-1.4-4.4,3.6,3.6,0,0,1,4.3-1.4,3.6,3.6,0,0,1,1.7,4.4ZM1131,1037a3.4,3.4,0,0,1-1.8-4.1,3.1,3.1,0,0,1,4.3-1.6,3,3,0,0,1,1.7,3.9,3.1,3.1,0,0,1-4.2,1.8Zm-3.8-29.8a3.6,3.6,0,0,1,1.8,4.3,3.4,3.4,0,0,1-4.4,1.7,3.3,3.3,0,1,1,2.6-6Zm-51.8,20a3,3,0,0,1-3.7,2.4,3.1,3.1,0,1,1,3.7-2.4Zm85.1-9.7a3,3,0,0,1-4.4-.5,3.2,3.2,0,0,1,5-3.9,3.3,3.3,0,0,1-.6,4.4Zm-55.9,7.1a3.3,3.3,0,0,1-4.5-.6,3.1,3.1,0,0,1,.7-4.5,3.1,3.1,0,0,1,4.4.5,3.4,3.4,0,0,1-.6,4.6Zm61.3-24.6a3,3,0,0,1-3.1,3.2c-1.8-.1-3.4-1.6-3.1-3.2s1.4-3.5,3-3.3,3.6,1.6,3.2,3.3Zm-18.7,9.3a3.2,3.2,0,0,1,0-6.4,3.2,3.2,0,0,1,0,6.4Zm34.5-14.1a3.3,3.3,0,0,1-4.6.9,3.2,3.2,0,0,1-.9-4.3,3.2,3.2,0,0,1,4.3-1.1A3.2,3.2,0,0,1,1181.7,995.2Z" transform="translate(3.8 3)"/>
<path class="cls-11" d="M1280.2,953.2l-3.3.6a3.2,3.2,0,0,0-.4,4.3c1.4,1.4,3.3,1.7,4.5.5a3.2,3.2,0,0,0,.5-4.5,3.8,3.8,0,0,0-1.3-.9Zm-36.4,7.2-6.2,1.4a4.9,4.9,0,0,0,.6,1.7,3.1,3.1,0,0,0,4.6.4,2.9,2.9,0,0,0,1-3.5Zm-53.8,14-2.5.7a3.6,3.6,0,0,0-1.1,2.4,3.2,3.2,0,0,0,3,3.4,3.6,3.6,0,0,0,3.5-3.1,4,4,0,0,0-2.9-3.4Zm-7.1,2.1L1178,978a3.2,3.2,0,0,0-.1,1.4,3,3,0,0,0,3.3,3,2.9,2.9,0,0,0,2.8-3.5,2.8,2.8,0,0,0-1.1-2.4Zm-95.8,79.6,5.2-1.5a1.8,1.8,0,0,0-.7-.5.4.4,0,0,1-.5.1c1-.5,2.4-1,2.5-2.2a3.2,3.2,0,0,0-3.2-3.2c-1.7-.2-3,1.4-3.3,3a3.1,3.1,0,0,0,2.6,2.8c-.8.2-2.2,0-2.3.9s-.2.4-.3.6Zm85.8-24.6,5.6-1.6a3.2,3.2,0,0,0-5.6,1.6Zm46.6-13.6,5.8-1.5a3.3,3.3,0,0,0-2.2-1.7,3.5,3.5,0,0,0-3.8,2.7c0,.2.1.3.2.5Zm11.2-2.9,7.3-1.7a3,3,0,0,0-3.1-3.3c-.3-.1-.4.6-.9.8s.3-.5.1-.7a3.2,3.2,0,0,0-4.5-.5,3.4,3.4,0,0,0-.5,4.5,2.2,2.2,0,0,0,1.6.9Zm-189.6,27.9a3.2,3.2,0,0,1,3.2-3.3,3,3,0,0,1,3.3,3,3.4,3.4,0,0,1-2.9,3.4,3.6,3.6,0,0,1-3.6-3.1Zm75.7-35.8a3.1,3.1,0,0,1-3.3-3,3.6,3.6,0,0,1,2.9-3.5c1.9.1,3.3,1.3,3.3,3a3,3,0,0,1-2.9,3.5Zm56.9,21.9a2.9,2.9,0,0,1-3.6-2.3,3,3,0,0,1,2.3-3.8,3,3,0,0,1,3.7,2.3,3.1,3.1,0,0,1-2.4,3.8Zm12.5-8.7c-.6,1.6-2.8,2-4.2,1.4a3.2,3.2,0,0,1,2.9-5.8,3.1,3.1,0,0,1,1.3,4.4Zm-24.6-30.8a3.2,3.2,0,0,1-4.4,1.2,3.2,3.2,0,1,1,3.1-5.5c1.4.6,1.9,2.7,1.3,4.3Zm67.8,15.2a3,3,0,0,1-4.1-1.6,2.9,2.9,0,0,1,1.7-4.1,3.1,3.1,0,0,1,4.3,1.5,3.2,3.2,0,0,1-1.9,4.2Zm-153.2,33.4a3.4,3.4,0,0,1-3-3.6,3.3,3.3,0,1,1,3,3.6Zm7.4-10.9a3.3,3.3,0,0,1-4-2.3,3.1,3.1,0,0,1,2.3-3.8,2.8,2.8,0,0,1,3.8,2.1,3.4,3.4,0,0,1-2.1,4Zm40.5-8.9a2.8,2.8,0,0,1-3.7-2.2,3.5,3.5,0,0,1,2-4,3.6,3.6,0,0,1,4.1,2.4,3.1,3.1,0,0,1-2.4,3.8Zm141.6-60.1a3.3,3.3,0,0,1,4.4-1.7,3,3,0,0,1,1.5,4.1,2.9,2.9,0,0,1-4,1.7,3.2,3.2,0,0,1-1.9-4.1Zm-231.2,83.4c-1,0-1.4-1.1-2-2.1-.6,1-1.9,1-3,.8s.2.4.1.5a3.3,3.3,0,0,1-4.1,1.8c-.7-.2-.4-1.1-.9-1.6a3.1,3.1,0,0,1-3.5-1.4,3.4,3.4,0,0,1,1.6-4.4,4,4,0,0,1,4.4,1.8h.1c.2-.2-.4-.6-.2-.8a3.4,3.4,0,0,1,4.7-1c.7.4.5,1.6.6,2.6a3,3,0,0,1,2.3-2.6c1.7.2,3.3,1.7,3.1,3.4a3,3,0,0,1-3.2,3.1Zm213.3-74.1a3,3,0,0,1-3.9,1.7,3.1,3.1,0,0,1-1.9-4.1,3.2,3.2,0,0,1,4-1.8,3,3,0,0,1,1.8,4.2Zm-116.6,44.9a3,3,0,0,1,3.7-2.4,3.3,3.3,0,0,1,2.5,3.7,3.4,3.4,0,0,1-3.9,2.6,3.3,3.3,0,0,1-2.3-3.9Zm142.6-14.6a3.3,3.3,0,0,1-2.5-3.7,3.2,3.2,0,1,1,6.3,1.1,3.4,3.4,0,0,1-3.8,2.6Zm-55,3.8a3.2,3.2,0,0,1-4.4-.5,3.2,3.2,0,0,1,.3-4.7,3.3,3.3,0,0,1,4.5.5,3.2,3.2,0,0,1-.4,4.7Zm-24.2-10.7a3.5,3.5,0,0,1,3.1,3.4,3.2,3.2,0,0,1-3.4,3,3.1,3.1,0,0,1-3.1-3.2,3.3,3.3,0,0,1,3.4-3.2Zm-46.8,21.9c-1.8-.1-3.4-1.7-3.1-3.4a3.1,3.1,0,0,1,3.2-3.1,3,3,0,0,1,3,3.3,3.1,3.1,0,0,1-3.1,3.2Zm15.2-2.6a3,3,0,0,1-.9-4.3,3,3,0,0,1,4.3-1.1,3.2,3.2,0,0,1-3.4,5.4Z" transform="translate(3.8 3)"/>
</g>
<g>
<path class="cls-11" d="M699.9,1202l.8-.2a3,3,0,0,1,2.1,5.5,2.8,2.8,0,0,1-4-.9,2.7,2.7,0,0,1,.6-4.1l.5-.3Zm31.4-8,4.5-1.1c-.1.9.1,1.6-.7,2.1a3.2,3.2,0,0,1-3.8-1Zm4.6-1.1c0,.2-.1.4.1.5s2,0,3-.3-.5.7-.3.8a3,3,0,0,0,4,.9,3.5,3.5,0,0,0,1.4-3.8l-8.2,1.9Zm32.6-7,4.1-.8c.1,0,.1,0,.1.1a3,3,0,0,1,.8,4,3,3,0,1,1-5-3.3Zm376.2-24.2h2.8a3.2,3.2,0,0,1,1.5,3.5c-.7,1.7-2.3,2.6-3.8,2a3.1,3.1,0,0,1-2-3.7,3.2,3.2,0,0,1,1.5-1.7Zm9.2-.2h4.5a2.9,2.9,0,0,1-.3,4.1,2.7,2.7,0,0,1-4,0,2.9,2.9,0,0,1-.2-4.1Zm22.3-.4h5.9a2.8,2.8,0,0,1-1,2.2,2.8,2.8,0,0,1-4-.1,2.9,2.9,0,0,1-.9-2Zm-31.7,10.6-5.7.5a3.2,3.2,0,0,1,2.5-2.5,2.8,2.8,0,0,1,3.2,2Zm-29.3,2.7-5.9.6a3.1,3.1,0,0,1,1.8-2.4,2.9,2.9,0,0,1,4,1.4.6.6,0,0,1,.1.4Zm-26.8,2.6-4.5.4a2.5,2.5,0,0,1,2.4-1.2,3,3,0,0,1,2.1.8Zm-68.8,7.2-3.6.4-.3-.2c-1.3-.9-1.4-2.8-.4-4.3a3,3,0,0,1,4-.6,3,3,0,0,1,.8,4.1l-.5.6Zm-31.6,3.6-2.6.3-1.1-.5a3.1,3.1,0,0,1-.3-4.1,3.1,3.1,0,0,1,4.3-.5c1.1,1.2,1.4,3.2.4,4.2a1.3,1.3,0,0,1-.7.6Zm-30.6,3.8-5.9.7a.6.6,0,0,0-.1-.4,2.8,2.8,0,0,1,2.4-3c-.7-.6-1.5-.7-1.6-1.5a3.3,3.3,0,0,1,3.2-3.1,2.9,2.9,0,0,1,2.8,3.2,2.9,2.9,0,0,1-2.5,2.5c.6.4,1.5.3,1.7,1.2v.4Zm-29.9,3.8-4.4.6a3.3,3.3,0,0,1-.7-1.3c-.6-.2-1.3.4-1.9,0a2.7,2.7,0,0,1-.3-4.2,2.8,2.8,0,0,1,4.2-.3c.2.2-.2.7,0,.8a2.9,2.9,0,0,1,3.4,2.5,2.4,2.4,0,0,1-.3,1.9Zm-68,9.7-6,.9a2.6,2.6,0,0,1,.5-1.7,3.4,3.4,0,0,1-3-2,3,3,0,0,1,1.8-3.7,2.7,2.7,0,0,1,3.6,1.5h-.1a2.9,2.9,0,0,1,3.6-2,3.3,3.3,0,0,1,2.3,3.7,3.1,3.1,0,0,1-3.3,2,3.5,3.5,0,0,1,.6,1.4Zm-48.5,7.8-6.1,1-.7-.5a6.4,6.4,0,0,1-.2.7l-4.2.7a2.6,2.6,0,0,1-.7-1.5c-.1-.4.4-.4.5-.7a3.2,3.2,0,0,1-3.3,1.9,2.9,2.9,0,0,1-2.2-3.8,3,3,0,0,1,5.7,1.6c.4-1.1.4-2.2,1.7-2.3s1.2.8,1.8,1.3-.2-1.6.6-2.1a3,3,0,0,1,4.2.6c.6,1.1.1,2.1-.8,3.3a2.8,2.8,0,0,1,3.7-.2Zm-20.2,3.5-4.9.8.3-.6.6-.6a3,3,0,0,1-2.5-2.7,2.7,2.7,0,0,1,2.5-3.2,2.9,2.9,0,0,1,3.4,2.5,3.3,3.3,0,0,1-1.3,2.8,2,2,0,0,1,1.5.6.8.8,0,0,1,.4.4Zm139.1-49.2H935a3,3,0,0,1-2.7,1.7,3.3,3.3,0,0,1-2.4-1.5Zm24.4-.8H960a5,5,0,0,1-.8,1.2,3.1,3.1,0,0,1-4.3-.1l-.6-1Zm80.3-2.7,5.6-.2-.3.7a3.1,3.1,0,0,1-4.3.8,2.2,2.2,0,0,1-1-1.3ZM745,1222.9l-7.4.9a4,4,0,0,1,.7-2c.7-1,2.4-1.2,3.7-.6h0c.2.1.3-.1.5,0s0,.3,0,.3a4,4,0,0,1,2.5,1.3Zm-8.6,1.1-5,.7.6-.7a2.7,2.7,0,0,1,4.1-.2l.3.2Zm265.5-54.6a3,3,0,0,0-1.9-3.9,2.9,2.9,0,0,0-3.8,1.9,2.8,2.8,0,0,0,2.1,3.6,2.7,2.7,0,0,0,3.6-1.6Zm5.9,3.2a2.8,2.8,0,0,0,2.4-3.3,3.1,3.1,0,0,0-3.4-2.5,2.7,2.7,0,0,0-2.4,3.3,2.8,2.8,0,0,0,3.4,2.5Zm37.7.3a2.9,2.9,0,0,0,4.4,3.9,2.9,2.9,0,1,0-4.4-3.9Zm69.2-2a3,3,0,0,0,4.2-.2,3,3,0,0,0-4.5-4,2.9,2.9,0,0,0,.3,4.2Zm-193.8,6.4a3.1,3.1,0,1,0,.2,4.1,3,3,0,0,0-.2-4.1Zm33.1-4.4a3,3,0,0,0-6-.1,3.1,3.1,0,0,0,2.9,3.2,3.3,3.3,0,0,0,3.1-3.1Zm-22.3,1.1a3.1,3.1,0,0,0-3-2.9,2.8,2.8,0,0,0-3,2.9,2.8,2.8,0,0,0,2.8,3,3.1,3.1,0,0,0,3.2-3Zm-225.4,39a2.9,2.9,0,0,0,1.1-3.9,3.1,3.1,0,0,0-4.1-1.5,3.2,3.2,0,0,0-1.2,4.2,3.1,3.1,0,0,0,4.2,1.2ZM975,1186.3a2.8,2.8,0,0,0,2.5-3.2,3.1,3.1,0,0,0-3.2-2.8,3.3,3.3,0,0,0-2.8,3.5,3.1,3.1,0,0,0,3.5,2.5ZM753.6,1216c1.5,0,2.7-1.7,2.6-3.2a3.4,3.4,0,0,0-3.3-2.8,3.2,3.2,0,0,0-2.6,3.5,2.8,2.8,0,0,0,3.3,2.5Zm3-9.1a2.9,2.9,0,1,0-.7-5.8,2.8,2.8,0,0,0-2.5,3.1,3.1,3.1,0,0,0,3.2,2.7Zm12.4-2.8c-1,.6-1,2.1-.8,3.4s-.8-.6-1-.4a2.9,2.9,0,0,0-1.2,4.1,3,3,0,0,0,4,1.1c1.2-.6,1.4-2.1,1-3.5s.8.6,1.3.2a3.3,3.3,0,0,0,1-4.4,3.2,3.2,0,0,0-4.3-.5Zm337.5-32a3,3,0,0,0,.9-4,3,3,0,0,0-4.2-.8c-1.4,1-1.9,2.9-.7,4a2.6,2.6,0,0,0,4,.8Zm-397.9,47.3a3.2,3.2,0,0,1-2.1-3.8,3,3,0,0,1,5.8,1.8,3,3,0,0,1-3.7,2Zm236.2-35.6c1.5-.4,2.2-2.4,1.4-4a3.1,3.1,0,0,0-3.9-1.4,3.3,3.3,0,0,0-1.5,4,3,3,0,0,0,4,1.4Zm-243.6,41.3a2.8,2.8,0,0,0,4.2-.5,3,3,0,1,0-4.9-3.5,2.8,2.8,0,0,0,.7,4Zm155.2-22.4h.7a3.5,3.5,0,0,1-.5-2.1,3,3,0,0,1-.2,2.1Zm36.2-8.1a2.8,2.8,0,0,0-4.1.3,2.9,2.9,0,0,0,.3,4.2,3.1,3.1,0,0,0,4.2-.2,2.8,2.8,0,0,0-.4-4.3Zm-78.3-3.8a3.1,3.1,0,1,0,4.1-4.6,3.2,3.2,0,0,0-4.2.2,3.3,3.3,0,0,0,.1,4.4Zm13.5,17.7a3.3,3.3,0,0,0,.1-4.3,3,3,0,0,0-4.3.2,2.7,2.7,0,0,0-.1,3.9,3,3,0,0,0,4.3.2Zm-7.2-27.2a3.2,3.2,0,0,1,4.4-.1,3.3,3.3,0,0,1,0,4.4,3.3,3.3,0,0,1-4.5,0,3.3,3.3,0,0,1,.1-4.3Zm51.9-.9a2.9,2.9,0,0,0,4.1.8,2.9,2.9,0,0,0,.8-4.1,3,3,0,0,0-4.9,3.3Zm-77.1,21.5a2.9,2.9,0,0,0,3.7-1.9,3,3,0,0,0-2.1-3.7,2.9,2.9,0,0,0-3.7,2,3,3,0,0,0,2.1,3.6Zm50.9-13.5a3,3,0,0,0,3.7-2,3,3,0,0,0-2.2-3.7,2.8,2.8,0,0,0-3.6,2,3.1,3.1,0,0,0,2.1,3.7Zm-61.8.3a2.9,2.9,0,1,0,1.6-4c-1.6.7-2.5,2.6-1.6,4Zm19.5,1.4a2.9,2.9,0,0,0,1.6-3.8,3.1,3.1,0,0,0-3.8-1.7c-1.6.6-2.4,2.6-1.6,3.8A2.7,2.7,0,0,0,804,1190.1Z" transform="translate(3.8 3)"/>
<path class="cls-11" d="M826,1176l5.5-.7a3.3,3.3,0,0,1-1.9,2.3,2.8,2.8,0,0,1-3.6-1.6Zm-38.8,41-1.5.3a2.1,2.1,0,0,1,1.5-.3ZM598,1258.3l-2.2.6a2.1,2.1,0,0,1,1.3-.5Zm-11.6,3.2-4.3,1.2a2.7,2.7,0,0,1,3.5-1.5l.8.3Zm-9.7,2.7-5.7,1.7a2.9,2.9,0,0,1,1.9-3.1,3,3,0,0,1,3.8,1.4Zm-11.8,3.5-3.1.9a2.7,2.7,0,0,1,1.9-1,1.7,1.7,0,0,1,1.2.1Zm-6.8,1.9-4.8,1.5a1.9,1.9,0,0,1,.7-1.1,2.9,2.9,0,0,1,4.1-.4Zm-18.5,5.7-5.4,1.7a2.9,2.9,0,0,1,.9-2.4,3,3,0,0,1,4.2.2.9.9,0,0,1,.3.5Zm-22.5,7.3-5,1.7a2.9,2.9,0,0,1,2.9-2.6,3.1,3.1,0,0,1,2.1.9ZM744.4,1223l-5.5.7a2.6,2.6,0,0,1,1.3-2.2,3.2,3.2,0,0,1,4.2,1c.1.2,0,.3,0,.5Zm-10.7,1.4-7,1.1a2.8,2.8,0,0,1,1.6-3.9c.3-.2.5.4,1,.3s-.4-.3-.3-.5a2.9,2.9,0,0,1,3.7-2,3.1,3.1,0,0,1,2.1,3.6,2.2,2.2,0,0,1-1.1,1.4Zm174-42.4a3,3,0,0,0-3.9-1.8,2.9,2.9,0,0,0-1.8,3.8,3,3,0,1,0,5.7-2Zm-119.8,34.5a2.7,2.7,0,0,0,2.4-3.3,2.8,2.8,0,0,0-3.4-2.4,2.9,2.9,0,0,0-2.4,3.2,2.9,2.9,0,0,0,3.4,2.5Zm-13.9-3.2a3,3,0,0,0,4.2-.2,3,3,0,0,0-4.5-4,2.9,2.9,0,0,0,.3,4.2Zm-151.7,27.6a3.1,3.1,0,0,0,4.3-.5c1-1.1.7-3-.4-4.2a3.1,3.1,0,0,0-4.1.2,3.3,3.3,0,0,0,.2,4.5Zm29.3-15.6h.1c-.3.2,0,.5-.1.7s.2-.6,0-.8Zm-4.3.2a3,3,0,0,0,.4,4.2,3,3,0,0,0,4.1-.2c1,.7,2.2,1.3,3.3.6a2.9,2.9,0,0,0,.7-4.2c-.6-1.1-1.8-.9-3.1-.5.5-.3,1.2.2,1.5-.2a3.1,3.1,0,0,0-.3-4.2,3,3,0,0,0-4.1.2,2.9,2.9,0,0,0,.2,4.1c-1.1,0-1.9-.6-2.7.2Zm83.9-10.5a2.8,2.8,0,0,0,3-2.8,2.6,2.6,0,0,0-3-2.9,2.8,2.8,0,0,0-3.1,2.7,3,3,0,0,0,3.1,3Zm-58.8,13.9a3,3,0,0,0,1.2-4.1,3.3,3.3,0,0,0-4.1-1.2c-1.5,1.1-2.1,2.8-1.2,4.1a3.1,3.1,0,0,0,4.1,1.2Zm203.3-38.8a3.2,3.2,0,0,0,1.3-4.1,3.4,3.4,0,0,0-4.2-1.2,3.3,3.3,0,0,0-1.2,4.1,3.1,3.1,0,0,0,4.1,1.2Zm-10.3-6.7a3.2,3.2,0,0,0,2.7-3.5,3,3,0,0,0-3.4-2.5,2.6,2.6,0,0,0-2.5,3.2,3.2,3.2,0,0,0,3.2,2.8Zm-38.2,6.5a2.7,2.7,0,0,0,2.4-3.3,3.2,3.2,0,0,0-3.1-2.7,3.3,3.3,0,0,0-2.7,3.5,3,3,0,0,0,3.4,2.5ZM590.9,1256c.5-.4,0-1.1.1-1.8,1.6-.3,2.6-.9,2.8-2.6a2.7,2.7,0,0,0-3-2.8c-1.6-.2-2.8,1.1-3,2.8h.2c-.5,0-.8-.2-1.1,0a2.9,2.9,0,0,0-.2,4.1,2.8,2.8,0,0,0,4.2.2ZM913,1178.6c.9-.4.8-1.5,1-2.5.9.6,2,.1,2.9-.4s0,.3.1.4a3.1,3.1,0,0,0,4.2.2c.5-.4-.1-1.1.2-1.7a3.1,3.1,0,0,0,2.5-2.5,3.2,3.2,0,0,0-2.9-3.2,3.6,3.6,0,0,0-3.2,3.1h-.1c-.3-.1.1-.6-.1-.8a3.2,3.2,0,0,0-4.4.8c-.5.7.1,1.6.4,2.5a3.2,3.2,0,0,0-2.9-1.5,3.1,3.1,0,0,0-1.5,4.1,2.8,2.8,0,0,0,3.8,1.6Zm-94,8.6a2.9,2.9,0,0,0-4.1-.8,3,3,0,0,0-.8,4.1,3.2,3.2,0,0,0,4.2.9,3.2,3.2,0,0,0,.7-4.2Zm-128.7,37.5a2.9,2.9,0,0,0,.8-4.1,2.8,2.8,0,0,0-4.2-.9,2.9,2.9,0,0,0-.8,4,3.1,3.1,0,0,0,4.2,1Zm49-16.1a2.9,2.9,0,0,0,3.6-2,3,3,0,0,0-1.8-3.9,3,3,0,0,0-3.8,2,2.9,2.9,0,0,0,2,3.9Zm17.1-17.8a3.3,3.3,0,0,0-1.4,4,3,3,0,0,0,4,1.5,3,3,0,0,0,1.6-3.9,3.2,3.2,0,0,0-4.2-1.6Zm48.3,2.6c1.5-.8,2.4-2.6,1.5-4a2.9,2.9,0,1,0-5.3,2.3,2.9,2.9,0,0,0,3.8,1.7Zm-134.1,25.3a3,3,0,0,0,4.3-.5,3.1,3.1,0,0,0-.8-4.3,2.9,2.9,0,0,0-4.1.7,2.9,2.9,0,0,0,.6,4.1Zm120-22.2a2.8,2.8,0,0,0-.7-4.1,2.7,2.7,0,0,0-4.1.6,2.9,2.9,0,0,0,.7,4.2A2.8,2.8,0,0,0,790.6,1196.5Z" transform="translate(3.8 3)"/>
</g>
</g>
<g>
<path class="cls-13" d="M998.6 1352h2.4l-.2.3c-.5.9-1.4 1.1-2 .3a.7.7 0 01-.2-.6zm10.7 0h2.7a3.8 3.8 0 010 1.5c-.4.9-1.2 1.4-2 .9a2.1 2.1 0 01-.7-2.4zm2.7 0h.1a1.1 1.1 0 001.8 0zm19.7 0h2.2a1.5 1.5 0 01-1.8.5l-.4-.5zm6.6 0h2.3l-.3.5a1.4 1.4 0 01-2-.4zm37.1 0h1a.9.9 0 01-1 0zm28.1 0h1.6c-.5.5-1.1.3-1.6-.1zm7.1 0h2.9a2.4 2.4 0 01-.6 2.1 1.4 1.4 0 01-2.1-.9 2.3 2.3 0 01-.2-1.2zm6.5 0h2.8a1.7 1.7 0 010 1 1.6 1.6 0 01-1.8 1.4 2 2 0 01-1-2.4zm15.8 0h2.9c-.1.9-.7 1.8-1.5 1.6s-1.3-.7-1.4-1.6zm3.5 0h1.7a1.1 1.1 0 01-.6.3 1.4 1.4 0 01-1.1-.3zm2.2 0h2.6a2.4 2.4 0 01-.4 2.4 1.2 1.2 0 01-2.1-.1 3 3 0 01-.1-2.3zm12.4 0h1.3a2.5 2.5 0 01.6 2.7c-.4 1-1.3 1.4-2 .9a2.2 2.2 0 01-.3 2.7 1.2 1.2 0 01-2.1-.3 2.8 2.8 0 01.4-2.8 1 1 0 011.6-.1 2.2 2.2 0 01-.1-2.2 2 2 0 01.6-.9zm-4.1 30.2H1144a2 2 0 01.7-1.6c.6-.5 1.6-.1 2 .9a1.4 1.4 0 01.2.7zm-36 0h-2.8a1.6 1.6 0 011.5-1.6 1.7 1.7 0 011.3 1.6zm-8.3 0h-2.9a2 2 0 011.3-1.5c.6-.3 1.4.4 1.6 1.5zm-35.9 0h-2.5v0h-2.1a2.6 2.6 0 01-.2-1.5c.2-1 1-1.7 1.7-1.4s.9 1.1 1 1.9 1.2-.9 1.6-.2a1.7 1.7 0 01.5 1.2zm-98.8 0h-2.2a3 3 0 01-.4-1.9c.2-1.1 1-1.7 1.8-1.4a2.2 2.2 0 011.1 2.5l-.3.8zm169.9-25.8a1.4 1.4 0 011.5.7h0c.1-1 .8-1.8 1.7-1.6a2.4 2.4 0 011.1 2.6c-.2.9-1 1.6-1.8 1.3a1.6 1.6 0 01-.8-.6c-.1.7-.5 1.4-1.1 1.5s-1.5-.4-1.7-1.3.3-2.3 1.1-2.5zm-9.3 19.2a2 2 0 01-1.1 2.4c-.8.2-1.5-.3-1.7-1.5a1.9 1.9 0 011.2-2.3c.6-.3 1.4.4 1.6 1.4zm-11.2-17.7c.4-1 1.3-1.5 1.9-1.1a2.6 2.6 0 01.8 2.8c-.3.9-1.2 1.4-1.9.9a2.3 2.3 0 01-.8-2.6zm14.2 15.9a1.9 1.9 0 011 2.3c-.2 1.1-.9 1.7-1.7 1.5a2 2 0 01-1-2.4c.2-1.1 1-1.7 1.7-1.4zm-17.1 5a2.2 2.2 0 01-.3 2.7c-.7.8-1.6.4-2.1-.4a2.4 2.4 0 01.4-2.8c.6-.7 1.5-.5 2 .5zm8.6-16a2.8 2.8 0 01-.4 2.8c-.7.6-1.6.4-2.1-.6a2.6 2.6 0 01.3-2.7 1.4 1.4 0 012.2.5zm-140.3-2.5a2.7 2.7 0 01-.2 2.9 1.3 1.3 0 01-2.1-.6 2.6 2.6 0 01.3-2.8 1.3 1.3 0 012 .5zm107.6-6.8c.3-.3.6.1.9.1s.8-1.5 1.5-1.3a2.1 2.1 0 011.1 2.4c-.2 1.1-1 1.7-1.8 1.5s0 .4-.1.5-1.5.5-2-.5a2.1 2.1 0 01.4-2.7zm59.6 22.6a2.6 2.6 0 01.3-2.8 1.3 1.3 0 012 .4 2.4 2.4 0 01-.4 2.8 1.1 1.1 0 01-1.9-.4zm-60.3-11.1c-.7.6-1.6.4-2.1-.6a2.6 2.6 0 01.3-2.7 1.3 1.3 0 012.1.6 2.6 2.6 0 01-.3 2.7zm74.2-7.4c.8.1 1.4 1.2 1.3 2.2s-.7 1.9-1.5 1.9-1.5-1.2-1.4-2.1.8-2 1.6-2zm-58.3 12.5c-.2 1-.8 2-1.7 1.8s-1.3-1-1.3-2.2a2 2 0 011.6-1.9 2.3 2.3 0 011.4 2.3zm-10.8 1.4c.9 0 1.5 1.1 1.4 2.3s-.8 1.8-1.6 1.7-1.4-.9-1.3-2.1a1.7 1.7 0 011.5-1.9zm0-3.6a1.8 1.8 0 01-1.6 1.8 1.8 1.8 0 01-1.3-2.1c0-1.1.7-2 1.5-1.9a2 2 0 011.4 2.2zm64.2-9.7a2.1 2.1 0 01.3 2.6 1.2 1.2 0 01-2 .6 2.6 2.6 0 01-.3-2.8 1.2 1.2 0 012-.4zm-52.1-2.5a2.5 2.5 0 011.2 2.5c-.1.5-.6.4-.9.7a1.8 1.8 0 011.1 1.8c0 1.2-.7 1.9-1.5 1.9a2 2 0 01-1.4-2.2c.1-.6.4-.6.8-.9a2.1 2.1 0 01-1-2.2c.2-1.1.9-1.8 1.7-1.6zm9.5 6.9a1.9 1.9 0 011 2.3c-.2 1.1-.9 1.8-1.7 1.6a2.4 2.4 0 01-1.1-2.5c.2-1.1 1-1.7 1.8-1.4zm-150.6-5.1a2.2 2.2 0 01-1.1-2.4c.2-1 .9-1.8 1.7-1.5a2.1 2.1 0 011.1 2.5 1.4 1.4 0 01-1.7 1.4zm10.4 7.6a1.9 1.9 0 001.1 2.3c.2.1.3-.3.4-.4s-.2 2 .5 2.4 1.6.3 2-.7a2.4 2.4 0 00-.6-2.7c-.3-.2-.6.2-1 .3s.4-.1.5-.3a2.5 2.5 0 00-1.2-2.5c-.7-.1-1.5.5-1.7 1.6zm129.4 11.5a2.6 2.6 0 01.2-2.8 1.2 1.2 0 012 .2 2.4 2.4 0 01-.2 2.8 1.2 1.2 0 01-2-.2zm-136.4-5.9a2.2 2.2 0 01-.2 2.8 1.1 1.1 0 01-1.9-.1 2.4 2.4 0 01.1-2.8 1.2 1.2 0 012 .1zm-.8-6.8c0-.4-.3-.9-.1-1.2s1.5-1 2-.4a2.8 2.8 0 01.3 3c-.3.5-.8.2-1.2.1s.3.6.2 1a1.3 1.3 0 01-2.1.7 2.6 2.6 0 01-.5-2.7c.3-.7.9-.5 1.4-.5zm133.2-1.6c.7.3 1 1.7.5 2.7s-1.2 1.3-2 .7a2.7 2.7 0 01-.5-2.8 1.2 1.2 0 012-.6zm51.1-2.9a2.4 2.4 0 00.6 2.6 1.2 1.2 0 002-.6 2.2 2.2 0 00-.6-2.7c-.6-.6-1.6-.3-2 .7zm-16.6 7.1c.7-.6 1.6-.2 2 .8a2.5 2.5 0 01-.5 2.7 1.3 1.3 0 01-1.9-.7 2.3 2.3 0 01.4-2.8zm-14.9-11.4a2.7 2.7 0 01.5-2.7 1.3 1.3 0 012.1.7 2.8 2.8 0 01-.5 2.9c-.7.5-1.6.1-2.1-.9zm-110.5 3.6c.3-1 1.2-1.5 1.9-.9a2.3 2.3 0 01.8 2.6c-.4.9-1.2 1.4-2 .9a2.2 2.2 0 01-.7-2.6zM993 1373a2 2 0 01-1-2.4c.2-1.1 1-1.7 1.8-1.4a2 2 0 011 2.3c-.2 1.1-1 1.7-1.8 1.5zm1.8-6.4a1.2 1.2 0 01-2-.4 2 2 0 01-.3-1.1 1.2 1.2 0 01-2 .6 2.4 2.4 0 01-.5-2.7 1.3 1.3 0 012-.7 2.4 2.4 0 01.7 1.7l.4-.6c.6-.7 1.5-.5 2.1.5a2.9 2.9 0 01-.4 2.7zm68.4 3.8c.8.1 1.3.9 1.3 2.1s-.7 1.9-1.6 1.7-1.3-.9-1.3-2.1.7-1.9 1.6-1.7zm-44.1-6.1a2 2 0 011 2.3c-.2 1-.9 1.9-1.7 1.6s-1.2-1.2-1.1-2.5 1-1.7 1.8-1.4zm36.5 9.7a2.2 2.2 0 011.1 2.5c-.1 1-.9 1.7-1.7 1.4s-1.3-1.2-1.1-2.3 1-1.7 1.7-1.6zm-9.2-7.7a2.2 2.2 0 01-.1 2.6c-.7.9-1.5.7-2.1-.2a2.6 2.6 0 01.2-2.8c.6-.8 1.5-.6 2 .4zm-5.2-10.5a2.6 2.6 0 01.1-2.8 1.2 1.2 0 012.1.3 2.8 2.8 0 01-.1 2.9 1.3 1.3 0 01-2.1-.4zm25.1 4a1.2 1.2 0 012-.3 2.6 2.6 0 01.2 2.8 1.2 1.2 0 01-2 .3 2.6 2.6 0 01-.2-2.8zm-18.8 8.8a1.2 1.2 0 002-.3 2.6 2.6 0 00-.1-2.8 1.3 1.3 0 00-2.1.3 2.6 2.6 0 00.2 2.8zm-24.3-2.4c.6-.9 1.4-1 2-.4a2.4 2.4 0 01.2 2.8 1.2 1.2 0 01-2 .3 2.4 2.4 0 01-.2-2.7zm23.2-4.7c-.7.1-1.2 1.2-1.1 2.3s.8 1.8 1.7 1.6 1.3-1.1 1.1-2.3-.8-1.8-1.7-1.6zm7.6-8.7c.7-.2 1.5.6 1.6 1.6a1.9 1.9 0 01-1.2 2.3c-.7.2-1.5-.4-1.7-1.6a2.1 2.1 0 011.3-2.3zm-45.4 12.5a2.4 2.4 0 01.5 2.7 1.2 1.2 0 01-2 .6 2.2 2.2 0 01-.5-2.6C1007 1365 1007.9 1364.7 1008.6 1365.3zM800.1 1352h2.4v.3c-.6.9-1.5 1.1-2.1.3a1.4 1.4 0 01-.2-.6zm10.7 0h2.7a2.6 2.6 0 010 1.5c-.3.9-1.2 1.4-1.9.9a2 2 0 01-.8-2.4zm2.8 0h0a1.2 1.2 0 001.9 0zm19.6 0h2.2a1.4 1.4 0 01-1.7.5c-.2-.2-.4-.3-.5-.5zm6.6 0h2.3c0 .2-.2.3-.3.5a1.4 1.4 0 01-2-.4zm37.1 0h1a.9.9 0 01-1 0zm28.1 0h1.7a1.2 1.2 0 01-1.7-.1zm7.2 0H915a2.4 2.4 0 01-.6 2.1 1.4 1.4 0 01-2.1-.9 2.4 2.4 0 01-.1-1.2zm6.4 0h2.8a1.7 1.7 0 010 1 1.6 1.6 0 01-1.8 1.4 2.2 2.2 0 01-1-2.4zm15.8 0h3c-.2.9-.8 1.8-1.6 1.6s-1.2-.7-1.4-1.6zm3.6 0h1.7l-.6.3a1.4 1.4 0 01-1.1-.3zm2.2 0h2.5a2.4 2.4 0 01-.4 2.4 1.1 1.1 0 01-2-.1 2.6 2.6 0 01-.1-2.3zm12.4 0h1.2a2.5 2.5 0 01.6 2.7c-.4 1-1.3 1.4-2 .9a2.2 2.2 0 01-.3 2.7 1.2 1.2 0 01-2.1-.3 2.8 2.8 0 01.4-2.8 1 1 0 011.6-.1 2.8 2.8 0 01-.1-2.2 2.2 2.2 0 01.7-.9zm-4.2 30.2h-2.9a2.4 2.4 0 01.7-1.6c.7-.5 1.6-.1 2 .9a1.4 1.4 0 01.2.7zm-35.9 0h-2.9a1.6 1.6 0 011.5-1.6 1.9 1.9 0 011.4 1.6zm-8.4 0h-2.8a1.7 1.7 0 011.2-1.5c.7-.3 1.4.4 1.6 1.5zm-35.8 0h-2.6v-.2c-.1.1-.1.1-.1.2h-2.1a2.6 2.6 0 01-.2-1.5c.2-1 1-1.7 1.8-1.4s.9 1.1.9 1.9 1.2-.9 1.7-.2a3.3 3.3 0 01.5 1.2zm-98.9 0h-2.2a2.4 2.4 0 01-.3-1.9c.1-1.1 1-1.7 1.7-1.4a2.2 2.2 0 011.1 2.5 1.1 1.1 0 01-.3.8zm169.9-25.8a1.4 1.4 0 011.5.7h0c.2-1 .9-1.8 1.7-1.6a2.4 2.4 0 011.1 2.6c-.2.9-1 1.6-1.7 1.3a1.2 1.2 0 01-.8-.6c-.2.7-.6 1.4-1.2 1.5s-1.5-.4-1.7-1.3a2.2 2.2 0 011.1-2.5zm-9.2 19.2c.1 1.2-.3 2.2-1.1 2.4s-1.6-.3-1.8-1.5a2.1 2.1 0 011.2-2.3c.7-.3 1.5.4 1.7 1.4zm-11.2-17.7c.3-1 1.2-1.5 1.9-1.1a2.7 2.7 0 01.7 2.8c-.3.9-1.2 1.4-1.9.9a2.1 2.1 0 01-.7-2.6zm14.2 15.9a2 2 0 011 2.3c-.2 1.1-1 1.7-1.8 1.5a2 2 0 01-1-2.4c.2-1.1 1-1.7 1.8-1.4zm-17.2 5a2.2 2.2 0 01-.3 2.7c-.7.8-1.6.4-2.1-.4a2.6 2.6 0 01.4-2.8c.6-.7 1.5-.5 2 .5zm8.6-16a2.8 2.8 0 01-.4 2.8c-.6.6-1.5.4-2.1-.6a2.9 2.9 0 01.4-2.7 1.3 1.3 0 012.1.5zm-140.3-2.5a2.7 2.7 0 01-.2 2.9 1.3 1.3 0 01-2.1-.6 2.8 2.8 0 01.3-2.8 1.3 1.3 0 012 .5zm107.6-6.8c.3-.3.6.1.9.1s.9-1.5 1.6-1.3a2 2 0 011 2.4c-.2 1.1-1 1.7-1.8 1.5s0 .4-.1.5-1.5.5-2-.5a2.2 2.2 0 01.4-2.7zm59.6 22.6a2.6 2.6 0 01.3-2.8 1.3 1.3 0 012 .4 2.5 2.5 0 01-.3 2.8 1.2 1.2 0 01-2-.4zM891.1 1365c-.6.6-1.5.4-2-.6a2.6 2.6 0 01.3-2.7c.6-.6 1.6-.4 2.1.6a2.7 2.7 0 01-.4 2.7zm74.2-7.4c.8.1 1.4 1.2 1.4 2.2a1.9 1.9 0 01-1.6 1.9c-.8 0-1.4-1.2-1.3-2.1s.7-2 1.5-2zM907 1370.1c-.1 1-.7 2-1.6 1.8s-1.4-1-1.3-2.2a1.8 1.8 0 011.5-1.9 2.2 2.2 0 011.4 2.3zm-10.8 1.4c.9 0 1.5 1.1 1.4 2.3s-.8 1.8-1.5 1.7-1.4-.9-1.4-2.1.8-1.9 1.5-1.9zm0-3.6a1.8 1.8 0 01-1.6 1.8 1.9 1.9 0 01-1.3-2.1c0-1.1.7-2 1.5-1.9a2 2 0 011.4 2.2zm64.2-9.7a2.3 2.3 0 01.4 2.6 1.3 1.3 0 01-2.1.6 2.6 2.6 0 01-.3-2.8 1.2 1.2 0 012-.4zm-52.1-2.5a2.5 2.5 0 011.2 2.5c-.1.5-.6.4-.8.7a1.8 1.8 0 011 1.8c0 1.2-.7 1.9-1.5 1.9a2 2 0 01-1.4-2.2c.1-.6.5-.6.9-.9a2 2 0 01-1.1-2.2c.3-1.1 1-1.8 1.7-1.6zm9.5 6.9a2 2 0 011.1 2.3c-.2 1.1-1 1.8-1.7 1.6a2.3 2.3 0 01-1.2-2.5c.2-1.1 1-1.7 1.8-1.4zm-150.6-5.1a2.2 2.2 0 01-1.1-2.4c.3-1 1-1.8 1.8-1.5a2.4 2.4 0 011.1 2.5 1.6 1.6 0 01-1.8 1.4zm10.4 7.6c-.1 1.1.3 2.1 1.1 2.3s.3-.3.4-.4-.1 2 .5 2.4 1.6.3 2-.7a2.4 2.4 0 00-.5-2.7c-.4-.2-.6.2-1 .3s.4-.1.4-.3a2.6 2.6 0 00-1.1-2.5 1.8 1.8 0 00-1.8 1.6zm129.5 11.5a2.4 2.4 0 01.1-2.8 1.2 1.2 0 012 .2 2.4 2.4 0 01-.1 2.8 1.2 1.2 0 01-2-.2zm-136.4-5.9a2.6 2.6 0 01-.2 2.8 1.2 1.2 0 01-2-.1 2.4 2.4 0 01.1-2.8 1.3 1.3 0 012.1.1zm-.8-6.8c0-.4-.3-.9-.1-1.2a1.2 1.2 0 012-.4 2.6 2.6 0 01.2 3c-.2.5-.7.2-1.2.1s.4.6.2 1-1.3 1.3-2 .7a2.5 2.5 0 01-.6-2.7c.3-.7 1-.5 1.5-.5zm133.2-1.6c.6.3.9 1.7.5 2.7s-1.3 1.3-2 .7a2.5 2.5 0 01-.5-2.8 1.2 1.2 0 012-.6zm51.1-2.9a2.3 2.3 0 00.6 2.6 1.2 1.2 0 002-.6 2.4 2.4 0 00-.6-2.7c-.7-.6-1.6-.3-2 .7zm-16.7 7.1c.7-.6 1.6-.2 2.1.8a2.7 2.7 0 01-.6 2.7 1.3 1.3 0 01-1.9-.7 2.3 2.3 0 01.4-2.8zm-14.8-11.4a2.5 2.5 0 01.5-2.7c.7-.6 1.6-.2 2 .7a2.8 2.8 0 01-.5 2.9c-.7.5-1.6.1-2-.9zm-110.6 3.6c.4-1 1.3-1.5 2-.9s1 1.6.7 2.6a1.4 1.4 0 01-2 .9 2.4 2.4 0 01-.7-2.6zM794.5 1373a2.2 2.2 0 01-1-2.4c.3-1.1 1-1.7 1.8-1.4a1.9 1.9 0 011 2.3c-.2 1.1-1 1.7-1.8 1.5zm1.9-6.4a1.3 1.3 0 01-2.1-.4 2 2 0 01-.3-1.1 1.2 1.2 0 01-2 .6 2.4 2.4 0 01-.5-2.7 1.3 1.3 0 012-.7 2.1 2.1 0 01.7 1.7l.5-.6c.6-.7 1.5-.5 2 .5a2.6 2.6 0 01-.3 2.7zm68.3 3.8c.8.1 1.4.9 1.4 2.1s-.8 1.9-1.6 1.7-1.4-.9-1.4-2.1.8-1.9 1.6-1.7zm-44.1-6.1a2 2 0 011.1 2.3c-.2 1-1 1.9-1.8 1.6a2.4 2.4 0 01-1.1-2.5c.2-1 1-1.7 1.8-1.4zm36.5 9.7a2.3 2.3 0 011.2 2.5c-.2 1-1 1.7-1.8 1.4s-1.3-1.2-1-2.3.9-1.7 1.6-1.6zm-9.1-7.7a2.1 2.1 0 01-.2 2.6c-.6.9-1.5.7-2.1-.2a2.8 2.8 0 01.2-2.8c.6-.8 1.5-.6 2.1.4zm-5.3-10.5a2.8 2.8 0 01.1-2.8 1.3 1.3 0 012.2.3 2.8 2.8 0 01-.2 2.9 1.3 1.3 0 01-2.1-.4zm25.1 4a1.2 1.2 0 012-.3 2.6 2.6 0 01.2 2.8 1.2 1.2 0 01-2 .3 2.6 2.6 0 01-.2-2.8zm-18.8 8.8a1.3 1.3 0 002.1-.3 2.6 2.6 0 00-.2-2.8 1.3 1.3 0 00-2.1.3 2.6 2.6 0 00.2 2.8zm-24.2-2.4a1.2 1.2 0 012-.4 2.6 2.6 0 01.2 2.8c-.6.9-1.5 1-2 .3a2.3 2.3 0 01-.2-2.7zm23.2-4.7c-.8.1-1.3 1.2-1.1 2.3s.8 1.8 1.6 1.6a1.9 1.9 0 001.2-2.3c-.1-1-.9-1.8-1.7-1.6zm7.5-8.7c.7-.2 1.5.6 1.6 1.6a1.9 1.9 0 01-1.2 2.3c-.7.2-1.5-.4-1.6-1.6a2 2 0 011.2-2.3zm-45.4 12.5a2.2 2.2 0 01.6 2.7 1.2 1.2 0 01-2 .6 2.4 2.4 0 01-.6-2.6C808.5 1365 809.5 1364.7 810.1 1365.3z" transform="translate(3.8 3)"/>
</g>
<path class="cls-11" d="M829.5,1300.7l-1.4-.4a2.8,2.8,0,0,0-2.1,1.7,2.2,2.2,0,0,0,.1,1.6l4,.2.3-.6a2.5,2.5,0,0,0-.9-2.5Zm-152.1-56.9-5.7-1.2a2.1,2.1,0,0,0-.1,2.5c.4.7,1.1.4,1.9.5a2.2,2.2,0,0,0-.6,3,2.4,2.4,0,0,0,3.1.6,2.2,2.2,0,0,0,.6-3c-.2-.4-.7-.2-1.1-.4s1.9.8,2.4,0a2.1,2.1,0,0,0,.7-1.6l-1.2-.4Zm-32.1-6.4-3.4-.7a2.1,2.1,0,0,0-.6,1,2.3,2.3,0,0,0,1.5,2.9c.9.3,1.7-.4,2.2-1.2a2,2,0,0,0-.5,2.5,2.1,2.1,0,0,0,3.1.7,2.2,2.2,0,0,0,.7-3.1,2.5,2.5,0,0,0-2.8-.5,2.1,2.1,0,0,0-.2-1.6Zm-27.6-5.1-4.3-.7a2.8,2.8,0,0,0,.4,1.3,2.1,2.1,0,0,0-2.4-.1,2.6,2.6,0,0,0-.8,3.2,2.2,2.2,0,0,0,3.2.5,2,2,0,0,0,.6-3,2.3,2.3,0,0,0,3.1-.9c.1-.1.2-.2.2-.3Zm-17.8-3-4.2-.7a2.7,2.7,0,0,0,.1,2.5,2.3,2.3,0,0,0,3.2.3,2.3,2.3,0,0,0,.9-2.1Zm-5-.8-2.8-.5a2.8,2.8,0,0,0,2,.8l.8-.3Zm-3.4-.6-4.5-.7v.3a2.3,2.3,0,0,0,4.5.7v-.3Zm-39.6-5.9-4.4-.6a2,2,0,0,0,.7,1.9,2.2,2.2,0,0,0,3.1-.1,2.7,2.7,0,0,0,.6-1.2Zm-16.2-2.2-4.1-.6a1.4,1.4,0,0,0-.2.6,2,2,0,0,0,1.5,2.6,2.2,2.2,0,0,0,2.8-1.4,2.4,2.4,0,0,0,0-1.2Zm-59-6.9-5.2-.5a2,2,0,0,0-.8.8,2.3,2.3,0,0,0,.9,3,2.1,2.1,0,0,0,2.8-.7h-.1a2.3,2.3,0,0,0,2.5,1.9,2.5,2.5,0,0,0,2.1-2.5,2.3,2.3,0,0,0-2.3-1.9Zm-44.9-4-4.1-.3a2.7,2.7,0,0,0-.3,1.2,2.2,2.2,0,0,0,2.5,1.9,2.2,2.2,0,0,0,2-2.5.4.4,0,0,1-.1-.3Zm-48.1-3.1h-2a2.3,2.3,0,0,0-.3,4,2.1,2.1,0,0,0,2.5-.6c0,.5-.5.8-.3,1.2s.5-.1.7.1-1.4.4-1.6,1.1a2,2,0,0,0,1.5,2.6,2.1,2.1,0,0,0,2.7-1.4c.1-.8-.4-1.2-1-1.9s.6.4.8.3.1-.6.1-.8,2.2.8,3,0a2.5,2.5,0,0,0-.3-3.4,2.2,2.2,0,0,0-3.1.2c-.2.1.1.4.1.6s-1.5-.9-2.2-.6,0,.6-.1.6.2-1.3-.4-1.8Zm-33.1-1.4h-1.9a2,2,0,0,0-1,.7,2.4,2.4,0,0,0,.5,3.1,2.4,2.4,0,0,0,3.2-.4,2.4,2.4,0,0,0-.5-3.2l-.3-.2Zm-11-.3h-3.4a2.6,2.6,0,0,0-.5.9,2.3,2.3,0,0,0,1.7,2.8,2,2,0,0,0,2.7-1.7,2.2,2.2,0,0,0-.5-1.9Zm463.1,89.1-3.9-1.2a1.4,1.4,0,0,0-.5.8,2.5,2.5,0,0,0,1.6,2.9,2.4,2.4,0,0,0,2.7-1.7,2.5,2.5,0,0,0,.1-.8Zm-7.4-2.3-4-1.3a2.4,2.4,0,0,0,.3,3,2.3,2.3,0,0,0,3.1-.2,2,2,0,0,0,.6-1.5Zm-9.5-3-3.7-1.2-.3.4a2.2,2.2,0,1,0,3.7,2.3,2,2,0,0,0,.3-1.5Zm-11-3.7-4.2-1.5a2.3,2.3,0,0,0,.1,1.8,2.1,2.1,0,0,0,3,.8,1.7,1.7,0,0,0,1.1-1.1ZM740.3,1271l-4.2-1.7a4.1,4.1,0,0,0-.1,1.2,2.4,2.4,0,0,0,2.6,1.9,2.2,2.2,0,0,0,1.7-1.4Zm-37.8-16.7-2.7-1.2a1.2,1.2,0,0,0,.5.7,1.9,1.9,0,0,0,2.2.5Zm-12.1-5.3-3.4-1.4a2.4,2.4,0,0,0,.9,1.4,2.3,2.3,0,0,0,2.5,0Zm-7.2,25.1a2.2,2.2,0,0,1,1.9-2.5,2.2,2.2,0,0,1,.6,4.4,2.2,2.2,0,0,1-2.5-1.9Zm-88.9-40.7a2.3,2.3,0,0,1,2.2.9h0a2.4,2.4,0,0,1,2.8-1.7,2.6,2.6,0,0,1,1.5,2.9,2.4,2.4,0,0,1-2.8,1.5,2.5,2.5,0,0,1-1.2-.8,2.1,2.1,0,0,1-1.8,1.6,2.1,2.1,0,0,1-2.6-1.6,2.3,2.3,0,0,1,1.9-2.7ZM579,1254.2a2.3,2.3,0,0,1-1.9,2.7,2.3,2.3,0,0,1-2.6-1.9,2.2,2.2,0,0,1,2-2.4,2.1,2.1,0,0,1,2.5,1.6Zm222.5,46.5a2.5,2.5,0,0,1,1.2,1.7l-4.4-.2.2-.4a2.1,2.1,0,0,1,3-1.1Zm-46.8-4.9a2.2,2.2,0,1,1-3.8-2,2,2,0,0,1,2.9-1,2,2,0,0,1,.9,3Zm-469-61.6a2.5,2.5,0,0,1,3.1-1.1,2.4,2.4,0,0,1,1,3.1,2.2,2.2,0,0,1-3.1.9,2.2,2.2,0,0,1-1-2.9Zm277-.7a2.6,2.6,0,0,1,3.1-1.1,2.7,2.7,0,0,1,1,3.2,2.3,2.3,0,0,1-4.1-2.1Zm-262.2-14.7a2.2,2.2,0,1,1,.9,3,2.2,2.2,0,0,1-.9-3Zm383.3,46.1a2.3,2.3,0,0,1,1.4,2.7,2.1,2.1,0,0,1-2.7,1.7,2.3,2.3,0,0,1-1.5-2.9,2.3,2.3,0,0,1,2.8-1.5Zm-42.2,11.7a2,2,0,0,1,1.4,2.7,2.2,2.2,0,0,1-2.8,1.4,2,2,0,0,1-1.4-2.7,2.1,2.1,0,0,1,2.8-1.4Zm-69.7-9.3a2.1,2.1,0,0,1,1.5,2.6,2.2,2.2,0,0,1-2.9,1.5,2.1,2.1,0,0,1-1.4-2.7,2.2,2.2,0,0,1,2.8-1.4Zm-6.4-41.9a2.3,2.3,0,0,1,1.5,2.8,2.5,2.5,0,0,1-2.9,1.4,2.1,2.1,0,0,1-1.4-2.7,2.3,2.3,0,0,1,2.8-1.5Zm-234.7,20.3a2.4,2.4,0,0,1,1.5,2.9,2.2,2.2,0,0,1-2.8,1.5,2.3,2.3,0,0,1-1.5-2.9,2.2,2.2,0,0,1,2.8-1.5Zm252.9,6.7a2.1,2.1,0,0,1,1.4,2.7,2.2,2.2,0,0,1-2.8,1.5,2,2,0,0,1-1.4-2.7,2.3,2.3,0,0,1,2.8-1.5Zm-26.6,4.3a2.2,2.2,0,0,1-.6,3.1,2.4,2.4,0,0,1-3.2-.6,2.2,2.2,0,0,1,.7-3.1,2.1,2.1,0,0,1,3.1.6Zm14.1-17.2a2.5,2.5,0,0,1-.8,3.1,2.4,2.4,0,0,1-3.2-.8,2.4,2.4,0,0,1,.7-3,2.5,2.5,0,0,1,3.3.7Zm197,55.9a2.3,2.3,0,0,1,3.1.9,2.3,2.3,0,0,1-.6,3,2.5,2.5,0,0,1-3.3-.8,2.5,2.5,0,0,1,.8-3.1ZM355.8,1226a2.4,2.4,0,0,1-.6,3.2,2.3,2.3,0,1,1-2.5-3.8,2.4,2.4,0,0,1,3.1.6Zm165.6.5c.5-.3.9.2,1.4.2a2.1,2.1,0,0,1,2.5-1.3,2.2,2.2,0,0,1,1.4,2.8,2.2,2.2,0,0,1-2.8,1.4c-.2.1,0,.5-.2.6a2.1,2.1,0,0,1-3-.6,2.2,2.2,0,0,1,.7-3.1Zm90.3,29.9a2.4,2.4,0,0,1,.6-3.1,2.5,2.5,0,0,1,3.1.6,2.1,2.1,0,0,1-.7,3.1,2,2,0,0,1-3-.6Zm51.1,9.1a2.3,2.3,0,0,1,3.2.6,2.2,2.2,0,0,1-.8,3.1,2.2,2.2,0,0,1-2.4-3.7Zm11.9-19.8c.2-.1-.1-.4.1-.5s-.2.3,0,.5Zm-154.9-6.2a2.5,2.5,0,0,1-3.2-.9,2.5,2.5,0,0,1,.6-3.1,2.4,2.4,0,0,1,3.2.9,2.5,2.5,0,0,1-.6,3.1Zm27.6,43.8a2.3,2.3,0,0,1,3.1.8,2.3,2.3,0,1,1-3.9,2.3,2.4,2.4,0,0,1,.8-3.1Zm2.2-24.9a2.6,2.6,0,0,1,2.1,2.7,2.7,2.7,0,0,1-2.7,1.8,2.1,2.1,0,0,1-1.9-2.5,2.3,2.3,0,0,1,2.5-2Zm170.5,38.1c1-.2,2.1-.3,2.7.7a1.8,1.8,0,0,1,.2,1.3l-4.2-.2a6.7,6.7,0,0,1,.6-1.2c-.4.3-.6.8-1.1.9a2.5,2.5,0,0,1-2-2.7,2.4,2.4,0,0,1,2.6-1.8,2.2,2.2,0,0,1,1.9,2.5c-.1.3-.5.2-.7.5Zm-86-59.8a2.5,2.5,0,0,1,2,2.5,2.5,2.5,0,0,1-2.5,2.1,2.4,2.4,0,0,1-2-2.5,2.5,2.5,0,0,1,2.5-2.1Zm-89,36.9a2.3,2.3,0,0,1-1.9-2.5,2.2,2.2,0,0,1,2.4-2,2.2,2.2,0,0,1,2,2.5,2.3,2.3,0,0,1-2.5,2Zm-1.2-27.2a2.3,2.3,0,0,1-4.5-.7,2.2,2.2,0,0,1,2.5-2,2.5,2.5,0,0,1,2,2.7Zm99,7.5a2.3,2.3,0,0,1,2,2.6,2.2,2.2,0,0,1-2.6,1.9,2.2,2.2,0,0,1-1.9-2.4,2.3,2.3,0,0,1,2.5-2.1Zm-115.6-6.8a2.3,2.3,0,0,1,1.9,2.7,2.3,2.3,0,0,1-2.5,1.8,2.1,2.1,0,0,1-1.9-2.5,2.3,2.3,0,0,1,2.5-2Zm.1-4.1a2.3,2.3,0,0,1-2.6,1.9,2.1,2.1,0,0,1-1.8-2.5,2,2,0,0,1,2.4-1.9,2.2,2.2,0,0,1,2,2.5Zm183,48.7a2.3,2.3,0,1,1-.5,4.5,2.7,2.7,0,0,1-2.1-2.6,2.5,2.5,0,0,1,2.6-1.9Zm-40.8,4a2.1,2.1,0,0,1,3-.5,3.2,3.2,0,0,1,.8.9l-3.9-.2c0-.1.1-.1.1-.2Zm-43-58.7a2,2,0,0,1,.3,3,2.1,2.1,0,0,1-3.1.4,2,2,0,0,1-.3-3,2,2,0,0,1,3.1-.4Zm31.5,9.2a2.5,2.5,0,0,1,3.2-.4,2.4,2.4,0,0,1,.4,3.2,2.5,2.5,0,0,1-3.2.4,2.3,2.3,0,0,1-.4-3.2ZM536,1274.9c.1-.6-.2-1.1.2-1.3a2.3,2.3,0,0,1,2.5,3.8c-.6.3-1.1-.1-1.6-.4s.3.6,0,1a2.4,2.4,0,0,1-3.1.4,2.3,2.3,0,0,1-.4-3.2,2.3,2.3,0,0,1,2.4-.3Zm159.1,10.3a2.4,2.4,0,0,1,.4,3.2,2.3,2.3,0,0,1-3.1.4,2.3,2.3,0,1,1,2.7-3.6Zm-148.4-54.9a2.4,2.4,0,0,1,1.6,2.8c-.1.6-.9.5-1.3.7a2.1,2.1,0,0,1,1.5,2.2,2,2,0,0,1-2.3,2,2.5,2.5,0,0,1-2.1-2.6c.2-.6.7-.6,1.3-1a2,2,0,0,1-1.4-2.4,2.2,2.2,0,0,1,2.7-1.7Zm14.2,8.4a2.1,2.1,0,0,1,1.5,2.7,2.2,2.2,0,0,1-2.7,1.6,2.4,2.4,0,0,1-1.7-2.8,2.3,2.3,0,0,1,2.9-1.5Zm-231.1-17.1a2.3,2.3,0,0,1,1.2-4.4,2.5,2.5,0,0,1,1.6,2.9,2.3,2.3,0,0,1-2.8,1.5Zm15.6,9.3a2.2,2.2,0,0,0,1.5,2.7c.3.1.5-.3.7-.4s-.4,2.2.5,2.7a2.3,2.3,0,0,0,3.2-.6,2.5,2.5,0,0,0-.7-3.2c-.5-.2-.9.3-1.6.3s.7,0,.7-.3a2.2,2.2,0,1,0-4.3-1.2Zm199,34a2.2,2.2,0,0,0-2.7,1.6,2,2,0,0,0,1.5,2.6,2.2,2.2,0,0,0,2.8-1.4,2.3,2.3,0,0,0-1.6-2.8ZM285.7,1252a2.2,2.2,0,0,1-3.1-.5,2.1,2.1,0,0,1,.4-3.1,2.3,2.3,0,0,1,3.1.4,2.3,2.3,0,0,1-.4,3.2Zm374.4,20.8a2.3,2.3,0,0,1,2.7,3.6,2.1,2.1,0,0,1-3.1-.4,2.2,2.2,0,0,1,.4-3.2Zm-363.3-10.6a2.2,2.2,0,0,1-.4,3.2,2.2,2.2,0,0,1-3.2-.6,2.1,2.1,0,0,1,.5-3,2.1,2.1,0,0,1,3.1.4Zm246.8-8.5a2.3,2.3,0,0,1,.3-3.2,2.4,2.4,0,0,1,3.2.4,2.1,2.1,0,0,1-.5,3.1,2.1,2.1,0,0,1-3-.3Zm150.6,23.6a2.3,2.3,0,0,1-3.3-.6,2.1,2.1,0,0,1,.6-3,2,2,0,0,1,3,.5,2.2,2.2,0,0,1-.3,3.1Zm-70.9-3a2.3,2.3,0,0,1,3.1.3,2.2,2.2,0,0,1-.4,3.2,2.3,2.3,0,0,1-3.1-.4,2.1,2.1,0,0,1,.4-3.1Zm-289-37.6a2.1,2.1,0,0,1-.4,3.1,2.1,2.1,0,0,1-3-.3,2.2,2.2,0,1,1,3.4-2.8Zm374,41.4a2,2,0,0,1,3,.4,2.2,2.2,0,0,1-.3,3.1,2.4,2.4,0,0,1-3.2-.4,2.1,2.1,0,0,1,.5-3.1Zm-51.4-14.5a2.3,2.3,0,0,1,.2,3.1,2.2,2.2,0,0,1-3.2.2c-.9-.9-1.1-2.4-.1-3.1a2.1,2.1,0,0,1,3.1-.2Zm-276.1-46.7c-.2-.1-.4.2-.6.1a2.4,2.4,0,0,1-.6-3.2,2.5,2.5,0,0,1,3.3-.4c.6.4.3,1.2.3,2s.5-.3.7-.1a2.3,2.3,0,0,1,.2,3.1,2,2,0,0,1-3.2.1c-.5-.4-.1-1.1-.1-1.6ZM710,1282a2.1,2.1,0,0,0-1.8,2.5,2.4,2.4,0,0,0,2.4,2,2.5,2.5,0,0,0,2.1-2.6,2.2,2.2,0,0,0-2.7-1.9Zm-125.8-12.8a2,2,0,0,1-1.9,2.5,2,2,0,0,1-2.5-1.9,2.3,2.3,0,0,1,1.9-2.5,2.2,2.2,0,0,1,2.5,1.9Zm-47.9-11.3a2.1,2.1,0,0,1,2.5,1.9,2.3,2.3,0,1,1-4.5.6,2.3,2.3,0,0,1,2-2.5Zm77.9,11a2.3,2.3,0,0,1,2.6,2.1,2.2,2.2,0,0,1-1.9,2.4,2.1,2.1,0,0,1-2.5-1.8,2.2,2.2,0,0,1,1.8-2.7Zm-280.7-40c0-.4-.4-1-.1-1.3a2.1,2.1,0,0,1,3.1-.2,2.5,2.5,0,0,1,.3,3.4c-.5.4-1.2.1-2,0s.6.7.3,1a2.3,2.3,0,0,1-3.2.7,2.2,2.2,0,0,1-.6-3.1c.4-.7,1.4-.5,2.2-.5Zm204.7,8.3a2,2,0,0,1,.6,3.1,2.2,2.2,0,0,1-3.7-2.5,2.2,2.2,0,0,1,3.1-.6Zm33.8,36.4a2.1,2.1,0,0,1,3.1-.6,2.2,2.2,0,1,1-2.3,3.7,2.3,2.3,0,0,1-.8-3.1Zm-13,1.1a2.3,2.3,0,0,1,3.2-.6,2.2,2.2,0,0,1,.7,3,2.3,2.3,0,0,1-3.2.7,2.3,2.3,0,0,1-.7-3.1Zm189.9,19.1a2.3,2.3,0,0,1-3,.9,2.5,2.5,0,0,1-.7-3.3,2.4,2.4,0,0,1,3.1-.7,2.2,2.2,0,0,1,.6,3.1Zm-132-56a2.3,2.3,0,0,1,3.1-.6,2.2,2.2,0,0,1,.8,3.1,2.2,2.2,0,0,1-3.1.6,2.4,2.4,0,0,1-.8-3.1Zm45.8,22.3a2.4,2.4,0,0,1,.8,3.1,2.2,2.2,0,0,1-3.1.6,2.2,2.2,0,0,1-.8-3,2.4,2.4,0,0,1,3.1-.7Zm86,22.7a2.4,2.4,0,0,1-.6-3.1,2.3,2.3,0,0,1,3.9,2.5,2.5,2.5,0,0,1-3.3.6Zm-60.6-30a2.2,2.2,0,0,1,3.1.8,2.3,2.3,0,0,1-1,3.1,2.2,2.2,0,0,1-3-1,2.1,2.1,0,0,1,.9-2.9Zm-84.6,8.3a2.4,2.4,0,0,1,3.1,1.1,2.3,2.3,0,0,1-1,3,2.3,2.3,0,0,1-3-.9,2.4,2.4,0,0,1,.9-3.2Zm-46.6-35.4a2.4,2.4,0,0,1-.8,3.2,2.5,2.5,0,0,1-3.2-1.1,2.3,2.3,0,0,1,4-2.1Zm-11.6-2.6a2.2,2.2,0,0,1-1,3,2.4,2.4,0,0,1-3-.9,2.4,2.4,0,0,1,.9-3.2,2.4,2.4,0,0,1,3.1,1.1Zm45.6,21.4a2.3,2.3,0,1,1,2.1,4.1,2.3,2.3,0,0,1-2.1-4.1Zm-22.1-13.9a2.2,2.2,0,0,1,.8-2.9,2.3,2.3,0,1,1,2.2,4.1,2.2,2.2,0,0,1-3-1.2ZM401,1265.4a2.2,2.2,0,1,1-3.1-1.1,2.3,2.3,0,0,1,3.1,1.1Zm73.7-51.9h.5a3.8,3.8,0,0,0-.6,1.6,1.8,1.8,0,0,0,.1-1.6Zm-77.6,5a2.5,2.5,0,0,1,3-1.1l.6.5a1.9,1.9,0,0,1,.4-1.9,2.1,2.1,0,0,1,3.1-.4,2,2,0,0,1,.4,3,2.1,2.1,0,0,1-3.2.4l-.2-.2a2.3,2.3,0,0,1-.1,1.8,2.2,2.2,0,0,1-3,.9,2.2,2.2,0,0,1-1-3Zm1.6,7.8a2.3,2.3,0,0,1,4.1,2.1,2.4,2.4,0,0,1-3.2.9,2.3,2.3,0,0,1-.9-3Zm79.1,31.5a2.4,2.4,0,0,1-1.5-2.8,2.2,2.2,0,0,1,2.8-1.5c1,.2,1.3,1.3,1.3,2.3s1.9-1,2.5-.1a2.2,2.2,0,1,1-2.9,3.2c-.7-.5-.4-1.5-.2-2.3-.4.7-1.1,1.5-2,1.2ZM346,1271.4a2.2,2.2,0,1,1-1.3,4.3,2.4,2.4,0,0,1-1.5-2.9,2.2,2.2,0,0,1,2.8-1.4Zm-26.1,6.6a2.6,2.6,0,0,1,1,.7h-3.3a2.4,2.4,0,0,1,2.3-.6Zm51-37a2.1,2.1,0,0,1-1.4-2.7,2.3,2.3,0,0,1,2.8-1.5,2.2,2.2,0,0,1,1.4,2.8,2.1,2.1,0,0,1-2.8,1.4Zm71.9,34.6a2.1,2.1,0,0,1-1.6-2.6,2.3,2.3,0,1,1,4.4,1.1,2.2,2.2,0,0,1-2.8,1.5Zm57.9-52.1a2.1,2.1,0,0,1-3-.7,2.1,2.1,0,0,1,.7-3.1c.9-.8,2.4-.2,3,.7a2,2,0,0,1-.7,3.1Zm28.2,64a2.3,2.3,0,0,1-3.1-.9,2.2,2.2,0,0,1,.6-3,2.3,2.3,0,0,1,3.1.8,2.3,2.3,0,0,1-.6,3.1Zm-141.1-17a2.3,2.3,0,0,1-3.1-.6,2.2,2.2,0,0,1,.7-3.1,2.2,2.2,0,0,1,3.1.7,2.5,2.5,0,0,1-.7,3ZM374.1,1234a2.5,2.5,0,0,1-3.2-.6,1.9,1.9,0,0,1-.4-1.2,2.1,2.1,0,0,1-3,.5,2.2,2.2,0,0,1-.7-3.1,2.3,2.3,0,0,1,3.2-.6,2.1,2.1,0,0,1,.9,1.9l.7-.6a2.1,2.1,0,0,1,3.1.7,2.4,2.4,0,0,1-.6,3Zm68-16.3a2.5,2.5,0,0,1,3.3.8,2.5,2.5,0,0,1-.7,3.1,2.4,2.4,0,0,1-3.1-.6,2.7,2.7,0,0,1,.5-3.3Zm36.8,25.7a2.3,2.3,0,0,1,1.9,2.6,1.9,1.9,0,0,1-2.5,1.7,2.2,2.2,0,0,1-2-2.4,2.4,2.4,0,0,1,2.6-1.9Zm-125.2,25.7a2.4,2.4,0,0,1,.4,3.2,2.3,2.3,0,0,1-3.1.4,2.5,2.5,0,0,1-.6-3.2,2.5,2.5,0,0,1,3.3-.4Zm57.7-35.9a2.1,2.1,0,0,1,1.5,2.7,2.2,2.2,0,0,1-2.7,1.7,2.4,2.4,0,0,1-1.6-2.9,2.4,2.4,0,0,1,2.8-1.5Zm-8.2,25.1a2.2,2.2,0,0,1-1.5-2.7,2.2,2.2,0,0,1,2.7-1.7,2.4,2.4,0,0,1,1.6,2.9,2.3,2.3,0,0,1-2.8,1.5Zm-109.2,14a2.5,2.5,0,0,1-1.5-2.9,2.2,2.2,0,0,1,2.8-1.4,2,2,0,0,1,1.4,2.6,2.4,2.4,0,0,1-2.7,1.7Zm173.1-25.4a2.4,2.4,0,0,1,1.5,2.9,2.3,2.3,0,0,1-2.8,1.5,2.1,2.1,0,0,1-1.4-2.7,2.4,2.4,0,0,1,2.7-1.7ZM306.5,1278a2.1,2.1,0,0,1,.8-1.8,2.4,2.4,0,0,1,3.2.4,2,2,0,0,1,.4,1.6l-4.4-.2Zm146.9-40.4a2,2,0,0,1-.4,2.9,2.1,2.1,0,0,1-3.2-.4,2.3,2.3,0,0,1,.5-3.1,2.1,2.1,0,0,1,3.1.6Zm-137.5,24.3a2.1,2.1,0,0,1-.4,3.1,2.2,2.2,0,1,1-2.7-3.5,2.2,2.2,0,0,1,3.1.4Zm129.9-36.5a2.4,2.4,0,0,0,3.2.6,2.4,2.4,0,0,0-2.8-3.8,2.6,2.6,0,0,0-.4,3.2Zm38.4,6.4a2.2,2.2,0,1,1,.2,3.1,2.2,2.2,0,0,1-.2-3.1ZM376,1260.9a2.2,2.2,0,0,1,0,3.2,2.3,2.3,0,0,1-3.1.1,2.5,2.5,0,0,1-.3-3.3,2.4,2.4,0,0,1,3.4,0Zm78.9-20.7a2.2,2.2,0,0,0,3.1-.1,2.3,2.3,0,0,0-.1-3.2,2.4,2.4,0,0,0-3.2.1,2.3,2.3,0,0,0,.2,3.2Zm-37.2-4.5a2.2,2.2,0,1,1,.2,3.1,2.1,2.1,0,0,1-.2-3.1Zm-10.5,24.4a2.2,2.2,0,0,1,2.4,2,2,2,0,0,1-1.8,2.4,2.1,2.1,0,0,1-2.5-1.9,2.2,2.2,0,0,1,1.9-2.5Zm46.4-27.9a2.2,2.2,0,0,0-1.8,2.4,2.2,2.2,0,0,0,2.4,2,2,2,0,0,0,1.9-2.5,2.1,2.1,0,0,0-2.5-1.9Zm12.1-9.2a2.3,2.3,0,0,1,2.4,1.9,2.2,2.2,0,0,1-2,2.5,2.1,2.1,0,0,1-2.5-1.9,2.3,2.3,0,0,1,2.1-2.5Zm35.7,36.1a2.3,2.3,0,0,1,.7,3.1,2.1,2.1,0,0,1-3.1.6,2.1,2.1,0,0,1-.7-3,2.4,2.4,0,0,1,3.1-.7ZM419.8,1216a2.2,2.2,0,0,1,3.1-.8c1,.7,1.5,2.2.7,3.1a2.2,2.2,0,0,1-3,.8c-1.1-.7-1.6-2.2-.8-3.1Zm69.2,64.7a2.3,2.3,0,0,1,3-.9,2.1,2.1,0,0,1,.6,3.1,2.2,2.2,0,0,1-3,.9,2.2,2.2,0,0,1-.6-3.1Zm-93.7-47.1a2,2,0,0,1,.7,3,2.2,2.2,0,0,1-3.1.6,2.3,2.3,0,0,1-.8-3,2.2,2.2,0,0,1,3.2-.6Zm39.1-16.5a2.2,2.2,0,0,1,.8,3,2.3,2.3,0,0,1-3,.9c-1.1-.7-1.5-2.3-.8-3.1a2.1,2.1,0,0,1,3-.8Zm-18.3,40.4a1.9,1.9,0,0,1,2.4-.5,2.1,2.1,0,0,1,.8-2.7,2.3,2.3,0,0,1,3.1.9,2.2,2.2,0,0,1-1,3c-.8.4-1.5-.3-2.1-.7s1.2,1.6.6,2.5a2.3,2.3,0,0,1-3.1.6,2.3,2.3,0,0,1-.7-3.1Zm-7.5-44.2a2.3,2.3,0,0,1,3.1,1.1,2.2,2.2,0,0,1-1,2.9,2.3,2.3,0,0,1-3-.8A2.4,2.4,0,0,1,408.6,1213.3Z" transform="translate(3.8 3)"/>
<g>
<path class="cls-14" d="M138.6 1166.5L135.2 1157.8 141.7 1160.3 138.6 1166.5zM355.2 1088.1L351.8 1079.4 358.3 1081.9 355.2 1088.1zM325.1 1217.8L321.6 1209 328.1 1211.5 325.1 1217.8zM644.8 1087L641.5 1078.7 647.6 1081.1 644.8 1087zM704.2 1365.8L701 1357.6 707.1 1359.9 704.2 1365.8zM525 1298.6L530.8 1291.2 531.9 1298.1 525 1298.6zM45.4 1316.8L51.2 1309.5 52.3 1316.3 45.4 1316.8zM646.4 1217.7L646.9 1213.8 648.8 1216.1 646.4 1217.7zM505.4 1147.9L505.9 1144 507.8 1146.2 505.4 1147.9zM576.9 1223.9L577.4 1220.1 579.2 1222.3 576.9 1223.9zM600.2 1403.6L600.7 1399.7 602.6 1402 600.2 1403.6zM561.6 1078.7L562.1 1074.9 564 1077.1 561.6 1078.7zM408.5 1225.5L409 1221.6 410.9 1223.8 408.5 1225.5zM423.1 1078.7L423.6 1074.8 425.5 1077 423.1 1078.7zM213.3 1193.5L213.9 1189.6 215.7 1191.8 213.3 1193.5zM125.4 1275.6L125.9 1271.7 127.8 1273.9 125.4 1275.6zM0 1101.3L.5 1097.4 2.4 1099.7 0 1101.3zM144.1 1417.4L140.7 1408.7 147.2 1411.2 144.1 1417.4zM248.1 1358.3L244.6 1349.6 251.1 1352 248.1 1358.3zM218.8 1444.4L219.4 1440.5 221.2 1442.7 218.8 1444.4z"/>
</g>
<g class="cls-15">
<path class="cls-16" d="M765.2 723L750.2 695 713.5 692.6 729.3 723 765.2 723z"/>
<path class="cls-17" d="M713.5 692.3L729.7 723.4 712.5 752.4 696.6 722.4 713.5 692.3z"/>
<path class="cls-18" d="M729.5 722.7L765.2 723 746.1 753.7 712.7 752.2 729.5 722.7z"/>
</g>
<path class="cls-2" d="M237.8 537.8L235.1 540.2 237.8 540.5 237.8 537.8z"/>
<g>
<path class="cls-2" d="M201.5 855.5L190.4 859.2 194 851.3 201.5 855.5zM118.3 580.3L107.2 584 110.7 576.1 118.3 580.3zM277.9 626.5L266.8 630.3 270.3 622.3 277.9 626.5zM136.2 219.3L125.7 222.8 129 215.3 136.2 219.3zM487.6 163.7L477.2 167.3 480.5 159.8 487.6 163.7zM391.9 382.7L383.2 375 391.8 374.1 391.9 382.7zM378.1 977.2L373.9 973.5 378 973 378.1 977.2zM299.2 225.9L294.4 225 297.3 222.9 299.2 225.9zM202.8 397.1L198 396.1 200.9 394 202.8 397.1zM302.4 313.1L297.6 312.1 300.5 310 302.4 313.1zM527.9 295.9L523.1 295 526 292.9 527.9 295.9zM120.4 322.4L115.6 321.5 118.5 319.3 120.4 322.4zM293 523.1L288.2 522.1 291.1 520 293 523.1zM111 495L106.2 494.1 109.1 492 111 495zM240.1 764.2L235.3 763.2 238.2 761.1 240.1 764.2zM336.6 879.3L331.8 878.3 334.7 876.2 336.6 879.3zM111 1023.9L106.2 1023 109.1 1020.9 111 1023.9zM509.7 863.5L503.6 865.6 505.5 861.2 509.7 863.5zM548.3 801.4L543.5 800.5 546.4 798.3 548.3 801.4z"/>
</g>
</g>
<path class="cls-19" d="M658.9,478.5C597.6,299.2,663.4,110.4,809.3-3H1286V761.4q-11.9,4.2-24,7.8C1009.5,844.6,739.5,714.4,658.9,478.5Z" transform="translate(3.8 3)" id="Layer_2" data-name="Layer 2"/>
</svg>